M48
;GenerationSoftware,Autodesk,EAGLE,9.4.2*%
;CreationDate,2019-06-14T19:17:47Z*%
FMAT,2
ICI,OFF
METRIC,TZ,000.000
T8C0.350
T7C0.700
T6C0.813
T5C1.000
T4C1.016
T3C1.600
T2C3.000
T1C3.302
%
G90
M71
T1
X4699Y45085
T2
X5080Y63500
X5080Y-5080
X71120Y-5080
X71120Y63500
T3
X72390Y55118
X2540Y54356
X59690Y-7366
X72390Y31750
X14732Y-7366
T4
X29210Y62230
X29210Y64770
X26670Y62230
X26670Y64770
X24130Y62230
X21590Y62230
X21590Y64770
X19050Y62230
X19050Y64770
X16510Y62230
X16510Y64770
X13970Y62230
X13970Y64770
X57150Y64770
X19685Y42545
X19685Y45085
X24130Y64770
X62230Y62230
X62230Y64770
X59690Y62230
X59690Y64770
X57150Y62230
X19685Y47625
X54610Y62230
X54610Y64770
X52070Y62230
X52070Y64770
X49530Y62230
X49530Y64770
X46990Y62230
X46990Y64770
X44450Y62230
X44450Y64770
X41910Y62230
X41910Y64770
X39370Y62230
X39370Y64770
X36830Y62230
X36830Y64770
X34290Y62230
X34290Y64770
X31750Y62230
X31750Y64770
T5
X39370Y22860
X41910Y22860
X44450Y22860
X46990Y22860
X49530Y22860
X11430Y22860
X54610Y22860
X57150Y22860
X59690Y22860
X62230Y22860
X64770Y22860
X67310Y22860
X69850Y22860
X52070Y22860
X6350Y2540
X8890Y2540
X11430Y2540
X13970Y2540
X16510Y2540
X19050Y2540
X21590Y2540
X24130Y2540
X26670Y2540
X29210Y2540
X31750Y2540
X34290Y2540
X36830Y2540
X39370Y2540
X41910Y2540
X44450Y2540
X46990Y2540
X49530Y2540
X52070Y2540
X54610Y2540
X57150Y2540
X59690Y2540
X62230Y2540
X64770Y2540
X67310Y2540
X69850Y2540
X72075Y41435
X72075Y48735
X6350Y22860
X8890Y22860
X13970Y22860
X16510Y22860
X19050Y22860
X21590Y22860
X24130Y22860
X26670Y22860
X29210Y22860
X31750Y22860
X34290Y22860
X36830Y22860
T6
X52705Y39370
X45085Y39370
X52705Y49530
X45085Y49530
X33655Y48260
X33655Y50800
X33655Y38100
X33655Y40640
T7
X67025Y43485
X67025Y46685
X68225Y44285
X68225Y45885
X67025Y45085
T8
X13335Y42545
X17780Y41275
X38100Y59690
X22860Y44450
X27305Y48895
X10160Y64135
X25400Y44450
X29845Y48895
X40640Y51435
X15240Y34925
X17780Y40005
X52070Y41275
X12700Y38735
X11430Y37465
X15875Y40005
M30