G04 EAGLE Gerber RS-274X export*
G75*
%MOMM*%
%FSLAX34Y34*%
%LPD*%
%IN*%
%IPPOS*%
%AMOC8*
5,1,8,0,0,1.08239X$1,22.5*%
G01*
%ADD10C,0.254000*%


D10*
X0Y266700D02*
X590350Y266700D01*
X590350Y707900D01*
X0Y707900D01*
X0Y266700D01*
X12363Y679800D02*
X11693Y679875D01*
X11036Y680025D01*
X10400Y680248D01*
X9793Y680540D01*
X9223Y680899D01*
X8696Y681319D01*
X8219Y681796D01*
X7799Y682323D01*
X7440Y682893D01*
X7148Y683500D01*
X6925Y684136D01*
X6775Y684793D01*
X6700Y685463D01*
X6700Y686137D01*
X6775Y686807D01*
X6925Y687464D01*
X7148Y688100D01*
X7440Y688707D01*
X7799Y689278D01*
X8219Y689804D01*
X8696Y690281D01*
X9223Y690701D01*
X9793Y691060D01*
X10400Y691352D01*
X11036Y691575D01*
X11693Y691725D01*
X12363Y691800D01*
X13037Y691800D01*
X13707Y691725D01*
X14364Y691575D01*
X15000Y691352D01*
X15607Y691060D01*
X16178Y690701D01*
X16704Y690281D01*
X17181Y689804D01*
X17601Y689278D01*
X17960Y688707D01*
X18252Y688100D01*
X18475Y687464D01*
X18625Y686807D01*
X18700Y686137D01*
X18700Y685463D01*
X18625Y684793D01*
X18475Y684136D01*
X18252Y683500D01*
X17960Y682893D01*
X17601Y682323D01*
X17181Y681796D01*
X16704Y681319D01*
X16178Y680899D01*
X15607Y680540D01*
X15000Y680248D01*
X14364Y680025D01*
X13707Y679875D01*
X13037Y679800D01*
X12363Y679800D01*
X12363Y527400D02*
X11693Y527475D01*
X11036Y527625D01*
X10400Y527848D01*
X9793Y528140D01*
X9223Y528499D01*
X8696Y528919D01*
X8219Y529396D01*
X7799Y529923D01*
X7440Y530493D01*
X7148Y531100D01*
X6925Y531736D01*
X6775Y532393D01*
X6700Y533063D01*
X6700Y533737D01*
X6775Y534407D01*
X6925Y535064D01*
X7148Y535700D01*
X7440Y536307D01*
X7799Y536878D01*
X8219Y537404D01*
X8696Y537881D01*
X9223Y538301D01*
X9793Y538660D01*
X10400Y538952D01*
X11036Y539175D01*
X11693Y539325D01*
X12363Y539400D01*
X13037Y539400D01*
X13707Y539325D01*
X14364Y539175D01*
X15000Y538952D01*
X15607Y538660D01*
X16178Y538301D01*
X16704Y537881D01*
X17181Y537404D01*
X17601Y536878D01*
X17960Y536307D01*
X18252Y535700D01*
X18475Y535064D01*
X18625Y534407D01*
X18700Y533737D01*
X18700Y533063D01*
X18625Y532393D01*
X18475Y531736D01*
X18252Y531100D01*
X17960Y530493D01*
X17601Y529923D01*
X17181Y529396D01*
X16704Y528919D01*
X16178Y528499D01*
X15607Y528140D01*
X15000Y527848D01*
X14364Y527625D01*
X13707Y527475D01*
X13037Y527400D01*
X12363Y527400D01*
X469563Y679800D02*
X468893Y679875D01*
X468236Y680025D01*
X467600Y680248D01*
X466993Y680540D01*
X466423Y680899D01*
X465896Y681319D01*
X465419Y681796D01*
X464999Y682323D01*
X464640Y682893D01*
X464348Y683500D01*
X464125Y684136D01*
X463975Y684793D01*
X463900Y685463D01*
X463900Y686137D01*
X463975Y686807D01*
X464125Y687464D01*
X464348Y688100D01*
X464640Y688707D01*
X464999Y689278D01*
X465419Y689804D01*
X465896Y690281D01*
X466423Y690701D01*
X466993Y691060D01*
X467600Y691352D01*
X468236Y691575D01*
X468893Y691725D01*
X469563Y691800D01*
X470237Y691800D01*
X470907Y691725D01*
X471564Y691575D01*
X472200Y691352D01*
X472807Y691060D01*
X473378Y690701D01*
X473904Y690281D01*
X474381Y689804D01*
X474801Y689278D01*
X475160Y688707D01*
X475452Y688100D01*
X475675Y687464D01*
X475825Y686807D01*
X475900Y686137D01*
X475900Y685463D01*
X475825Y684793D01*
X475675Y684136D01*
X475452Y683500D01*
X475160Y682893D01*
X474801Y682323D01*
X474381Y681796D01*
X473904Y681319D01*
X473378Y680899D01*
X472807Y680540D01*
X472200Y680248D01*
X471564Y680025D01*
X470907Y679875D01*
X470237Y679800D01*
X469563Y679800D01*
X469563Y527400D02*
X468893Y527475D01*
X468236Y527625D01*
X467600Y527848D01*
X466993Y528140D01*
X466423Y528499D01*
X465896Y528919D01*
X465419Y529396D01*
X464999Y529923D01*
X464640Y530493D01*
X464348Y531100D01*
X464125Y531736D01*
X463975Y532393D01*
X463900Y533063D01*
X463900Y533737D01*
X463975Y534407D01*
X464125Y535064D01*
X464348Y535700D01*
X464640Y536307D01*
X464999Y536878D01*
X465419Y537404D01*
X465896Y537881D01*
X466423Y538301D01*
X466993Y538660D01*
X467600Y538952D01*
X468236Y539175D01*
X468893Y539325D01*
X469563Y539400D01*
X470237Y539400D01*
X470907Y539325D01*
X471564Y539175D01*
X472200Y538952D01*
X472807Y538660D01*
X473378Y538301D01*
X473904Y537881D01*
X474381Y537404D01*
X474801Y536878D01*
X475160Y536307D01*
X475452Y535700D01*
X475675Y535064D01*
X475825Y534407D01*
X475900Y533737D01*
X475900Y533063D01*
X475825Y532393D01*
X475675Y531736D01*
X475452Y531100D01*
X475160Y530493D01*
X474801Y529923D01*
X474381Y529396D01*
X473904Y528919D01*
X473378Y528499D01*
X472807Y528140D01*
X472200Y527848D01*
X471564Y527625D01*
X470907Y527475D01*
X470237Y527400D01*
X469563Y527400D01*
M02*
