G04 EAGLE Gerber RS-274X export*
G75*
%MOMM*%
%FSLAX34Y34*%
%LPD*%
%INSoldermask Top*%
%IPPOS*%
%AMOC8*
5,1,8,0,0,1.08239X$1,22.5*%
G01*
%ADD10C,1.611200*%
%ADD11C,1.403200*%
%ADD12C,1.727200*%
%ADD13P,2.034460X8X292.500000*%
%ADD14P,1.649562X8X112.500000*%
%ADD15C,1.711200*%
%ADD16C,0.959600*%


D10*
X38100Y685800D03*
X63500Y685800D03*
X88900Y685800D03*
X114300Y685800D03*
X139700Y685800D03*
X165100Y685800D03*
X190500Y685800D03*
X215900Y685800D03*
X241300Y685800D03*
X266700Y685800D03*
X292100Y685800D03*
X317500Y685800D03*
X342900Y685800D03*
X368300Y685800D03*
X393700Y685800D03*
X419100Y685800D03*
X444500Y685800D03*
X38100Y533400D03*
X63500Y533400D03*
X88900Y533400D03*
X114300Y533400D03*
X139700Y533400D03*
X165100Y533400D03*
X190500Y533400D03*
X215900Y533400D03*
X241300Y533400D03*
X266700Y533400D03*
X292100Y533400D03*
X317500Y533400D03*
X342900Y533400D03*
X368300Y533400D03*
X393700Y533400D03*
X419100Y533400D03*
X444500Y533400D03*
D11*
X12700Y685800D03*
X12700Y533400D03*
X469900Y685800D03*
X469900Y533400D03*
D12*
X299720Y457200D02*
X284480Y457200D01*
X284480Y431800D02*
X299720Y431800D01*
X299720Y406400D02*
X284480Y406400D01*
X248920Y457200D02*
X233680Y457200D01*
X233680Y431800D02*
X248920Y431800D01*
X248920Y406400D02*
X233680Y406400D01*
X198120Y457200D02*
X182880Y457200D01*
X182880Y431800D02*
X198120Y431800D01*
X198120Y406400D02*
X182880Y406400D01*
X147320Y457200D02*
X132080Y457200D01*
X132080Y431800D02*
X147320Y431800D01*
X147320Y406400D02*
X132080Y406400D01*
X96520Y457200D02*
X81280Y457200D01*
X81280Y431800D02*
X96520Y431800D01*
X96520Y406400D02*
X81280Y406400D01*
X284480Y355600D02*
X299720Y355600D01*
X299720Y330200D02*
X284480Y330200D01*
X284480Y304800D02*
X299720Y304800D01*
X248920Y355600D02*
X233680Y355600D01*
X233680Y330200D02*
X248920Y330200D01*
X248920Y304800D02*
X233680Y304800D01*
X198120Y355600D02*
X182880Y355600D01*
X182880Y330200D02*
X198120Y330200D01*
X198120Y304800D02*
X182880Y304800D01*
X147320Y355600D02*
X132080Y355600D01*
X132080Y330200D02*
X147320Y330200D01*
X147320Y304800D02*
X132080Y304800D01*
X96520Y355600D02*
X81280Y355600D01*
X81280Y330200D02*
X96520Y330200D01*
X96520Y304800D02*
X81280Y304800D01*
D13*
X353060Y368300D03*
X353060Y292100D03*
X398780Y368300D03*
X398780Y292100D03*
X353060Y477520D03*
X353060Y401320D03*
X401320Y477520D03*
X401320Y401320D03*
X449580Y477520D03*
X449580Y401320D03*
D14*
X566420Y375920D03*
X566420Y401320D03*
X566420Y434340D03*
X566420Y459740D03*
X566420Y492760D03*
X566420Y518160D03*
X566420Y551180D03*
X566420Y576580D03*
X566420Y609600D03*
X566420Y635000D03*
D15*
X563880Y325040D02*
X563880Y309960D01*
X538480Y309960D02*
X538480Y325040D01*
X480060Y325040D02*
X480060Y309960D01*
X454660Y309960D02*
X454660Y325040D01*
D14*
X566420Y665480D03*
X566420Y690880D03*
D13*
X497840Y477520D03*
X497840Y401320D03*
D12*
X45720Y457200D02*
X30480Y457200D01*
X30480Y431800D02*
X45720Y431800D01*
X45720Y406400D02*
X30480Y406400D01*
X30480Y355600D02*
X45720Y355600D01*
X45720Y330200D02*
X30480Y330200D01*
X30480Y304800D02*
X45720Y304800D01*
D16*
X537210Y462915D03*
X537210Y493776D03*
X524637Y465201D03*
X516636Y457200D03*
M02*
