M48
;GenerationSoftware,Autodesk,EAGLE,9.4.2*%
;CreationDate,2019-08-29T21:57:12Z*%
FMAT,2
ICI,OFF
METRIC,TZ,000.000
T6C0.350
T5C0.813
T4C0.900
T3C1.000
T2C1.016
T1C1.200
%
G90
M71
T1
X1270Y68580
X1270Y53340
X46990Y68580
X46990Y53340
T2
X13970Y40640
X8890Y45720
X29210Y45720
X29210Y43180
X29210Y40640
X24130Y45720
X24130Y43180
X24130Y40640
X19050Y45720
X13970Y35560
X19050Y43180
X19050Y40640
X13970Y45720
X13970Y43180
X3810Y33020
X3810Y35560
X3810Y40640
X3810Y43180
X3810Y45720
X3810Y30480
X8890Y30480
X8890Y33020
X8890Y35560
X13970Y30480
X13970Y33020
X19050Y30480
X19050Y33020
X19050Y35560
X24130Y30480
X24130Y33020
X24130Y35560
X29210Y30480
X29210Y33020
X29210Y35560
X8890Y40640
X8890Y43180
T3
X45466Y31750
X56388Y31750
X53848Y31750
X48006Y31750
T4
X16510Y68580
X39370Y53340
X44450Y53340
X6350Y53340
X3810Y68580
X6350Y68580
X8890Y68580
X11430Y68580
X13970Y68580
X19050Y68580
X21590Y68580
X24130Y68580
X26670Y68580
X34290Y53340
X31750Y53340
X29210Y53340
X26670Y53340
X24130Y53340
X21590Y53340
X19050Y53340
X16510Y53340
X13970Y53340
X41910Y53340
X11430Y53340
X8890Y53340
X41910Y68580
X3810Y53340
X44450Y68580
X36830Y53340
X39370Y68580
X36830Y68580
X34290Y68580
X31750Y68580
X29210Y68580
T5
X40132Y47752
X44958Y47752
X44958Y40132
X56642Y37592
X56642Y40132
X56642Y43434
X56642Y45974
X56642Y49276
X56642Y51816
X56642Y55118
X56642Y57658
X56642Y60960
X56642Y63500
X35306Y36830
X56642Y66548
X56642Y69088
X49784Y47752
X49784Y40132
X35306Y29210
X39878Y36830
X39878Y29210
X35306Y47752
X35306Y40132
X40132Y40132
T6
X53721Y49378
X53721Y46291
X51664Y45720
X52464Y46520
M30