G04 EAGLE Gerber RS-274X export*
G75*
%MOMM*%
%FSLAX34Y34*%
%LPD*%
%INBottom Copper*%
%IPPOS*%
%AMOC8*
5,1,8,0,0,1.08239X$1,22.5*%
G01*
%ADD10C,1.408000*%
%ADD11C,1.524000*%
%ADD12P,1.814519X8X292.500000*%
%ADD13P,1.429621X8X112.500000*%
%ADD14C,1.508000*%
%ADD15C,0.254000*%
%ADD16C,0.756400*%

G36*
X579448Y276864D02*
X579448Y276864D01*
X579467Y276862D01*
X579569Y276884D01*
X579671Y276900D01*
X579688Y276910D01*
X579708Y276914D01*
X579797Y276967D01*
X579888Y277016D01*
X579902Y277030D01*
X579919Y277040D01*
X579986Y277119D01*
X580058Y277194D01*
X580066Y277212D01*
X580079Y277227D01*
X580118Y277323D01*
X580161Y277417D01*
X580163Y277437D01*
X580171Y277455D01*
X580189Y277622D01*
X580189Y696978D01*
X580186Y696998D01*
X580188Y697017D01*
X580166Y697119D01*
X580150Y697221D01*
X580140Y697238D01*
X580136Y697258D01*
X580083Y697347D01*
X580034Y697438D01*
X580020Y697452D01*
X580010Y697469D01*
X579931Y697536D01*
X579856Y697608D01*
X579838Y697616D01*
X579823Y697629D01*
X579727Y697668D01*
X579633Y697711D01*
X579613Y697713D01*
X579595Y697721D01*
X579428Y697739D01*
X576127Y697739D01*
X576056Y697728D01*
X575985Y697726D01*
X575936Y697708D01*
X575884Y697700D01*
X575821Y697666D01*
X575754Y697641D01*
X575713Y697609D01*
X575667Y697584D01*
X575618Y697532D01*
X575562Y697488D01*
X575534Y697444D01*
X575498Y697406D01*
X575467Y697341D01*
X575429Y697281D01*
X575416Y697230D01*
X575394Y697183D01*
X575386Y697112D01*
X575369Y697042D01*
X575373Y696990D01*
X575367Y696939D01*
X575382Y696868D01*
X575388Y696797D01*
X575408Y696749D01*
X575419Y696698D01*
X575456Y696637D01*
X575484Y696571D01*
X575529Y696515D01*
X575545Y696487D01*
X575563Y696472D01*
X575589Y696440D01*
X576835Y695194D01*
X576835Y686566D01*
X570734Y680465D01*
X562106Y680465D01*
X556005Y686566D01*
X556005Y695194D01*
X557251Y696440D01*
X557293Y696498D01*
X557342Y696550D01*
X557364Y696597D01*
X557395Y696639D01*
X557416Y696708D01*
X557446Y696773D01*
X557452Y696825D01*
X557467Y696875D01*
X557465Y696946D01*
X557473Y697017D01*
X557462Y697068D01*
X557461Y697120D01*
X557436Y697188D01*
X557421Y697258D01*
X557394Y697303D01*
X557376Y697351D01*
X557331Y697407D01*
X557295Y697469D01*
X557255Y697503D01*
X557222Y697543D01*
X557162Y697582D01*
X557108Y697629D01*
X557059Y697648D01*
X557016Y697676D01*
X556946Y697694D01*
X556880Y697721D01*
X556808Y697729D01*
X556777Y697737D01*
X556754Y697735D01*
X556713Y697739D01*
X482653Y697739D01*
X482583Y697728D01*
X482511Y697726D01*
X482462Y697708D01*
X482411Y697700D01*
X482347Y697666D01*
X482280Y697641D01*
X482239Y697609D01*
X482193Y697584D01*
X482144Y697532D01*
X482088Y697488D01*
X482060Y697444D01*
X482024Y697406D01*
X481994Y697341D01*
X481955Y697281D01*
X481942Y697230D01*
X481920Y697183D01*
X481912Y697112D01*
X481895Y697042D01*
X481899Y696990D01*
X481893Y696939D01*
X481908Y696868D01*
X481914Y696797D01*
X481934Y696749D01*
X481945Y696698D01*
X481982Y696637D01*
X482010Y696571D01*
X482055Y696515D01*
X482071Y696487D01*
X482089Y696472D01*
X482115Y696440D01*
X483600Y694954D01*
X486061Y689015D01*
X486061Y682585D01*
X483600Y676646D01*
X479054Y672100D01*
X473115Y669639D01*
X466685Y669639D01*
X460746Y672100D01*
X456200Y676646D01*
X454067Y681793D01*
X454030Y681854D01*
X454000Y681920D01*
X453965Y681958D01*
X453938Y682003D01*
X453882Y682048D01*
X453834Y682101D01*
X453788Y682126D01*
X453748Y682159D01*
X453681Y682185D01*
X453618Y682220D01*
X453567Y682229D01*
X453519Y682248D01*
X453447Y682251D01*
X453376Y682263D01*
X453325Y682256D01*
X453273Y682258D01*
X453204Y682238D01*
X453133Y682228D01*
X453087Y682204D01*
X453037Y682189D01*
X452978Y682149D01*
X452914Y682116D01*
X452877Y682079D01*
X452835Y682049D01*
X452792Y681992D01*
X452742Y681940D01*
X452707Y681878D01*
X452688Y681852D01*
X452681Y681830D01*
X452661Y681793D01*
X452191Y680661D01*
X449639Y678109D01*
X446305Y676727D01*
X442695Y676727D01*
X439361Y678109D01*
X436809Y680661D01*
X435427Y683995D01*
X435427Y687605D01*
X436809Y690939D01*
X439361Y693491D01*
X442695Y694873D01*
X446305Y694873D01*
X449639Y693491D01*
X452191Y690939D01*
X452661Y689807D01*
X452699Y689746D01*
X452728Y689680D01*
X452763Y689642D01*
X452790Y689597D01*
X452846Y689552D01*
X452894Y689499D01*
X452940Y689474D01*
X452980Y689441D01*
X453047Y689415D01*
X453110Y689380D01*
X453161Y689371D01*
X453209Y689352D01*
X453281Y689349D01*
X453352Y689337D01*
X453403Y689344D01*
X453455Y689342D01*
X453524Y689362D01*
X453595Y689372D01*
X453641Y689396D01*
X453691Y689411D01*
X453750Y689451D01*
X453814Y689484D01*
X453851Y689521D01*
X453893Y689551D01*
X453936Y689608D01*
X453986Y689660D01*
X454021Y689722D01*
X454040Y689748D01*
X454047Y689770D01*
X454067Y689807D01*
X456200Y694954D01*
X457685Y696440D01*
X457727Y696498D01*
X457776Y696550D01*
X457798Y696597D01*
X457829Y696639D01*
X457850Y696708D01*
X457880Y696773D01*
X457886Y696825D01*
X457901Y696875D01*
X457899Y696946D01*
X457907Y697017D01*
X457896Y697068D01*
X457895Y697120D01*
X457870Y697188D01*
X457855Y697258D01*
X457828Y697303D01*
X457810Y697351D01*
X457765Y697407D01*
X457729Y697469D01*
X457689Y697503D01*
X457656Y697543D01*
X457596Y697582D01*
X457542Y697629D01*
X457493Y697648D01*
X457449Y697676D01*
X457380Y697694D01*
X457313Y697721D01*
X457242Y697729D01*
X457211Y697737D01*
X457188Y697735D01*
X457147Y697739D01*
X25453Y697739D01*
X25383Y697728D01*
X25311Y697726D01*
X25262Y697708D01*
X25211Y697700D01*
X25147Y697666D01*
X25080Y697641D01*
X25039Y697609D01*
X24993Y697584D01*
X24944Y697532D01*
X24888Y697488D01*
X24860Y697444D01*
X24824Y697406D01*
X24794Y697341D01*
X24755Y697281D01*
X24742Y697230D01*
X24720Y697183D01*
X24712Y697112D01*
X24695Y697042D01*
X24699Y696990D01*
X24693Y696939D01*
X24708Y696868D01*
X24714Y696797D01*
X24734Y696749D01*
X24745Y696698D01*
X24782Y696637D01*
X24810Y696571D01*
X24855Y696515D01*
X24871Y696487D01*
X24889Y696472D01*
X24915Y696440D01*
X26400Y694954D01*
X28533Y689807D01*
X28570Y689746D01*
X28600Y689680D01*
X28635Y689642D01*
X28662Y689597D01*
X28718Y689552D01*
X28766Y689499D01*
X28812Y689474D01*
X28852Y689441D01*
X28919Y689415D01*
X28982Y689380D01*
X29033Y689371D01*
X29081Y689352D01*
X29153Y689349D01*
X29224Y689337D01*
X29275Y689344D01*
X29327Y689342D01*
X29396Y689362D01*
X29467Y689372D01*
X29513Y689396D01*
X29563Y689411D01*
X29622Y689451D01*
X29686Y689484D01*
X29723Y689521D01*
X29765Y689551D01*
X29808Y689608D01*
X29858Y689660D01*
X29893Y689722D01*
X29912Y689748D01*
X29919Y689770D01*
X29939Y689807D01*
X30409Y690939D01*
X32961Y693491D01*
X36295Y694873D01*
X39905Y694873D01*
X43239Y693491D01*
X45791Y690939D01*
X47173Y687605D01*
X47173Y683995D01*
X45791Y680661D01*
X43239Y678109D01*
X39905Y676727D01*
X36295Y676727D01*
X32961Y678109D01*
X30409Y680661D01*
X29939Y681793D01*
X29901Y681854D01*
X29872Y681920D01*
X29837Y681958D01*
X29810Y682003D01*
X29754Y682048D01*
X29706Y682101D01*
X29660Y682126D01*
X29620Y682159D01*
X29553Y682185D01*
X29490Y682220D01*
X29439Y682229D01*
X29391Y682248D01*
X29319Y682251D01*
X29248Y682263D01*
X29197Y682256D01*
X29145Y682258D01*
X29076Y682238D01*
X29005Y682228D01*
X28959Y682204D01*
X28909Y682189D01*
X28850Y682149D01*
X28786Y682116D01*
X28749Y682079D01*
X28707Y682049D01*
X28664Y681992D01*
X28614Y681940D01*
X28579Y681878D01*
X28560Y681852D01*
X28553Y681830D01*
X28533Y681793D01*
X26400Y676646D01*
X21854Y672100D01*
X15915Y669639D01*
X10922Y669639D01*
X10902Y669636D01*
X10883Y669638D01*
X10781Y669616D01*
X10679Y669600D01*
X10662Y669590D01*
X10642Y669586D01*
X10553Y669533D01*
X10462Y669484D01*
X10448Y669470D01*
X10431Y669460D01*
X10364Y669381D01*
X10292Y669306D01*
X10284Y669288D01*
X10271Y669273D01*
X10232Y669177D01*
X10189Y669083D01*
X10187Y669063D01*
X10179Y669045D01*
X10161Y668878D01*
X10161Y550322D01*
X10164Y550302D01*
X10162Y550283D01*
X10184Y550181D01*
X10200Y550079D01*
X10210Y550062D01*
X10214Y550042D01*
X10267Y549953D01*
X10316Y549862D01*
X10330Y549848D01*
X10340Y549831D01*
X10419Y549764D01*
X10494Y549692D01*
X10512Y549684D01*
X10527Y549671D01*
X10623Y549632D01*
X10717Y549589D01*
X10737Y549587D01*
X10755Y549579D01*
X10922Y549561D01*
X15915Y549561D01*
X21854Y547100D01*
X26400Y542554D01*
X28533Y537407D01*
X28570Y537346D01*
X28600Y537280D01*
X28635Y537242D01*
X28662Y537197D01*
X28718Y537152D01*
X28766Y537099D01*
X28812Y537074D01*
X28852Y537041D01*
X28919Y537015D01*
X28982Y536980D01*
X29033Y536971D01*
X29081Y536952D01*
X29153Y536949D01*
X29224Y536937D01*
X29275Y536944D01*
X29327Y536942D01*
X29396Y536962D01*
X29467Y536972D01*
X29513Y536996D01*
X29563Y537011D01*
X29622Y537051D01*
X29686Y537084D01*
X29723Y537121D01*
X29765Y537151D01*
X29808Y537208D01*
X29858Y537260D01*
X29893Y537322D01*
X29912Y537348D01*
X29919Y537370D01*
X29939Y537407D01*
X30409Y538539D01*
X32961Y541091D01*
X36295Y542473D01*
X39905Y542473D01*
X43239Y541091D01*
X45791Y538539D01*
X47173Y535205D01*
X47173Y531595D01*
X45791Y528261D01*
X43239Y525709D01*
X39905Y524327D01*
X36295Y524327D01*
X32961Y525709D01*
X30409Y528261D01*
X29939Y529393D01*
X29901Y529454D01*
X29872Y529520D01*
X29837Y529558D01*
X29810Y529603D01*
X29754Y529648D01*
X29706Y529701D01*
X29660Y529726D01*
X29620Y529759D01*
X29553Y529785D01*
X29490Y529820D01*
X29439Y529829D01*
X29391Y529848D01*
X29319Y529851D01*
X29248Y529863D01*
X29197Y529856D01*
X29145Y529858D01*
X29076Y529838D01*
X29005Y529828D01*
X28959Y529804D01*
X28909Y529789D01*
X28850Y529749D01*
X28786Y529716D01*
X28749Y529679D01*
X28707Y529649D01*
X28664Y529592D01*
X28614Y529540D01*
X28579Y529478D01*
X28560Y529452D01*
X28553Y529430D01*
X28533Y529393D01*
X26400Y524246D01*
X21854Y519700D01*
X15915Y517239D01*
X10922Y517239D01*
X10902Y517236D01*
X10883Y517238D01*
X10781Y517216D01*
X10679Y517200D01*
X10662Y517190D01*
X10642Y517186D01*
X10553Y517133D01*
X10462Y517084D01*
X10448Y517070D01*
X10431Y517060D01*
X10364Y516981D01*
X10292Y516906D01*
X10284Y516888D01*
X10271Y516873D01*
X10232Y516777D01*
X10189Y516683D01*
X10187Y516663D01*
X10179Y516645D01*
X10161Y516478D01*
X10161Y277622D01*
X10164Y277602D01*
X10162Y277583D01*
X10184Y277481D01*
X10200Y277379D01*
X10210Y277362D01*
X10214Y277342D01*
X10267Y277253D01*
X10316Y277162D01*
X10330Y277148D01*
X10340Y277131D01*
X10419Y277064D01*
X10494Y276992D01*
X10512Y276984D01*
X10527Y276971D01*
X10623Y276932D01*
X10717Y276889D01*
X10737Y276887D01*
X10755Y276879D01*
X10922Y276861D01*
X579428Y276861D01*
X579448Y276864D01*
G37*
%LPC*%
G36*
X562843Y367283D02*
X562843Y367283D01*
X557783Y372343D01*
X557783Y379063D01*
X557769Y379153D01*
X557761Y379244D01*
X557749Y379273D01*
X557744Y379305D01*
X557701Y379386D01*
X557665Y379470D01*
X557639Y379502D01*
X557628Y379523D01*
X557605Y379545D01*
X557560Y379601D01*
X462913Y474248D01*
X462839Y474301D01*
X462770Y474361D01*
X462739Y474373D01*
X462713Y474392D01*
X462626Y474419D01*
X462541Y474453D01*
X462500Y474457D01*
X462478Y474464D01*
X462446Y474463D01*
X462375Y474471D01*
X460756Y474471D01*
X460736Y474468D01*
X460717Y474470D01*
X460615Y474448D01*
X460513Y474432D01*
X460496Y474422D01*
X460476Y474418D01*
X460387Y474365D01*
X460296Y474316D01*
X460282Y474302D01*
X460265Y474292D01*
X460198Y474213D01*
X460126Y474138D01*
X460118Y474120D01*
X460105Y474105D01*
X460066Y474009D01*
X460023Y473915D01*
X460021Y473895D01*
X460013Y473877D01*
X459995Y473710D01*
X459995Y473206D01*
X453894Y467105D01*
X445266Y467105D01*
X439165Y473206D01*
X439165Y481834D01*
X439278Y481947D01*
X439290Y481963D01*
X439306Y481976D01*
X439362Y482063D01*
X439422Y482147D01*
X439428Y482166D01*
X439439Y482183D01*
X439464Y482283D01*
X439494Y482382D01*
X439494Y482402D01*
X439499Y482421D01*
X439491Y482524D01*
X439488Y482628D01*
X439481Y482647D01*
X439480Y482666D01*
X439439Y482761D01*
X439404Y482859D01*
X439391Y482874D01*
X439383Y482893D01*
X439279Y483024D01*
X432052Y490250D01*
X431978Y490303D01*
X431909Y490363D01*
X431878Y490375D01*
X431852Y490394D01*
X431765Y490421D01*
X431680Y490455D01*
X431639Y490459D01*
X431617Y490466D01*
X431585Y490465D01*
X431514Y490473D01*
X345853Y490473D01*
X345783Y490462D01*
X345711Y490460D01*
X345662Y490442D01*
X345611Y490434D01*
X345547Y490400D01*
X345480Y490375D01*
X345439Y490343D01*
X345393Y490318D01*
X345344Y490266D01*
X345288Y490222D01*
X345260Y490178D01*
X345224Y490140D01*
X345194Y490075D01*
X345155Y490015D01*
X345142Y489964D01*
X345120Y489917D01*
X345112Y489846D01*
X345095Y489776D01*
X345099Y489724D01*
X345093Y489673D01*
X345108Y489602D01*
X345114Y489531D01*
X345134Y489483D01*
X345145Y489432D01*
X345182Y489371D01*
X345210Y489305D01*
X345255Y489249D01*
X345272Y489221D01*
X345289Y489206D01*
X345315Y489174D01*
X347112Y487377D01*
X347128Y487365D01*
X347140Y487350D01*
X347227Y487294D01*
X347312Y487233D01*
X347331Y487228D01*
X347347Y487217D01*
X347448Y487192D01*
X347547Y487161D01*
X347567Y487162D01*
X347586Y487157D01*
X347689Y487165D01*
X347793Y487167D01*
X347811Y487174D01*
X347831Y487176D01*
X347926Y487216D01*
X348024Y487252D01*
X348039Y487264D01*
X348057Y487272D01*
X348188Y487377D01*
X348746Y487935D01*
X357374Y487935D01*
X363475Y481834D01*
X363475Y473206D01*
X357374Y467105D01*
X348746Y467105D01*
X342645Y473206D01*
X342645Y482026D01*
X342657Y482064D01*
X342656Y482084D01*
X342661Y482104D01*
X342653Y482206D01*
X342651Y482310D01*
X342644Y482329D01*
X342642Y482349D01*
X342602Y482444D01*
X342566Y482541D01*
X342554Y482557D01*
X342546Y482575D01*
X342441Y482706D01*
X340612Y484535D01*
X340538Y484588D01*
X340469Y484648D01*
X340438Y484660D01*
X340412Y484679D01*
X340325Y484706D01*
X340240Y484740D01*
X340199Y484744D01*
X340177Y484751D01*
X340145Y484750D01*
X340074Y484758D01*
X213516Y484758D01*
X211358Y486916D01*
X171941Y526333D01*
X171925Y526345D01*
X171912Y526361D01*
X171848Y526402D01*
X171803Y526440D01*
X171778Y526450D01*
X171741Y526477D01*
X171722Y526483D01*
X171705Y526494D01*
X171613Y526517D01*
X171575Y526532D01*
X171554Y526535D01*
X171506Y526549D01*
X171486Y526549D01*
X171467Y526554D01*
X171417Y526550D01*
X171408Y526551D01*
X171397Y526551D01*
X171368Y526546D01*
X171364Y526546D01*
X171260Y526543D01*
X171241Y526536D01*
X171222Y526535D01*
X171174Y526514D01*
X171154Y526511D01*
X171113Y526489D01*
X171029Y526459D01*
X171013Y526446D01*
X170995Y526438D01*
X170953Y526405D01*
X170937Y526396D01*
X170919Y526377D01*
X170864Y526333D01*
X170239Y525709D01*
X166905Y524327D01*
X163295Y524327D01*
X159961Y525709D01*
X157409Y528261D01*
X156027Y531595D01*
X156027Y535205D01*
X157409Y538539D01*
X159961Y541091D01*
X163295Y542473D01*
X166905Y542473D01*
X170239Y541091D01*
X172791Y538539D01*
X174173Y535205D01*
X174173Y533758D01*
X174187Y533668D01*
X174195Y533577D01*
X174207Y533548D01*
X174212Y533516D01*
X174255Y533435D01*
X174291Y533351D01*
X174317Y533319D01*
X174328Y533298D01*
X174351Y533276D01*
X174396Y533220D01*
X216029Y491587D01*
X216103Y491534D01*
X216172Y491474D01*
X216203Y491462D01*
X216229Y491443D01*
X216316Y491416D01*
X216401Y491382D01*
X216442Y491378D01*
X216464Y491371D01*
X216496Y491372D01*
X216567Y491364D01*
X254222Y491364D01*
X254292Y491375D01*
X254364Y491377D01*
X254413Y491395D01*
X254464Y491403D01*
X254528Y491437D01*
X254595Y491462D01*
X254636Y491494D01*
X254682Y491519D01*
X254731Y491570D01*
X254787Y491615D01*
X254815Y491659D01*
X254851Y491697D01*
X254881Y491762D01*
X254920Y491822D01*
X254933Y491873D01*
X254955Y491920D01*
X254963Y491991D01*
X254980Y492061D01*
X254976Y492113D01*
X254982Y492164D01*
X254967Y492235D01*
X254961Y492306D01*
X254941Y492354D01*
X254930Y492405D01*
X254893Y492466D01*
X254865Y492532D01*
X254820Y492588D01*
X254803Y492616D01*
X254786Y492631D01*
X254760Y492663D01*
X221877Y525547D01*
X221783Y525614D01*
X221688Y525685D01*
X221682Y525687D01*
X221677Y525690D01*
X221566Y525724D01*
X221454Y525761D01*
X221448Y525761D01*
X221442Y525763D01*
X221325Y525760D01*
X221208Y525758D01*
X221201Y525756D01*
X221196Y525756D01*
X221178Y525750D01*
X221047Y525712D01*
X217705Y524327D01*
X214095Y524327D01*
X210761Y525709D01*
X208209Y528261D01*
X206827Y531595D01*
X206827Y535205D01*
X208209Y538539D01*
X210761Y541091D01*
X214095Y542473D01*
X217705Y542473D01*
X221039Y541091D01*
X223591Y538539D01*
X224973Y535205D01*
X224973Y532107D01*
X224987Y532017D01*
X224995Y531926D01*
X225007Y531897D01*
X225012Y531865D01*
X225055Y531784D01*
X225091Y531700D01*
X225117Y531668D01*
X225128Y531647D01*
X225151Y531625D01*
X225196Y531569D01*
X259463Y497302D01*
X259537Y497249D01*
X259606Y497189D01*
X259637Y497177D01*
X259663Y497158D01*
X259750Y497131D01*
X259835Y497097D01*
X259876Y497093D01*
X259898Y497086D01*
X259930Y497087D01*
X260001Y497079D01*
X434565Y497079D01*
X443949Y487694D01*
X443966Y487683D01*
X443978Y487667D01*
X444065Y487611D01*
X444149Y487551D01*
X444168Y487545D01*
X444185Y487534D01*
X444285Y487509D01*
X444384Y487479D01*
X444404Y487479D01*
X444423Y487474D01*
X444526Y487482D01*
X444630Y487485D01*
X444649Y487492D01*
X444669Y487493D01*
X444764Y487534D01*
X444861Y487569D01*
X444877Y487582D01*
X444895Y487590D01*
X445026Y487694D01*
X445266Y487935D01*
X453894Y487935D01*
X459996Y481833D01*
X459998Y481818D01*
X459996Y481799D01*
X460018Y481697D01*
X460034Y481595D01*
X460044Y481578D01*
X460048Y481558D01*
X460101Y481469D01*
X460150Y481378D01*
X460164Y481364D01*
X460174Y481347D01*
X460253Y481280D01*
X460328Y481208D01*
X460346Y481200D01*
X460361Y481187D01*
X460457Y481148D01*
X460551Y481105D01*
X460571Y481103D01*
X460589Y481095D01*
X460756Y481077D01*
X465426Y481077D01*
X467584Y478919D01*
X561856Y384647D01*
X561872Y384635D01*
X561885Y384619D01*
X561972Y384563D01*
X562056Y384503D01*
X562075Y384497D01*
X562092Y384487D01*
X562192Y384461D01*
X562291Y384431D01*
X562311Y384431D01*
X562330Y384426D01*
X562433Y384435D01*
X562537Y384437D01*
X562555Y384444D01*
X562575Y384446D01*
X562671Y384486D01*
X562768Y384522D01*
X562783Y384534D01*
X562802Y384542D01*
X562820Y384557D01*
X569997Y384557D01*
X575057Y379497D01*
X575057Y372343D01*
X569997Y367283D01*
X562843Y367283D01*
G37*
%LPD*%
%LPC*%
G36*
X562843Y425703D02*
X562843Y425703D01*
X557783Y430763D01*
X557783Y437356D01*
X557769Y437446D01*
X557761Y437537D01*
X557749Y437566D01*
X557744Y437598D01*
X557701Y437679D01*
X557665Y437763D01*
X557639Y437795D01*
X557628Y437816D01*
X557605Y437838D01*
X557560Y437894D01*
X538577Y456877D01*
X538503Y456930D01*
X538434Y456990D01*
X538403Y457002D01*
X538377Y457021D01*
X538290Y457048D01*
X538205Y457082D01*
X538164Y457086D01*
X538142Y457093D01*
X538110Y457092D01*
X538039Y457100D01*
X536053Y457100D01*
X533916Y457986D01*
X532281Y459621D01*
X531395Y461758D01*
X531395Y462495D01*
X531380Y462591D01*
X531370Y462688D01*
X531360Y462712D01*
X531356Y462738D01*
X531310Y462824D01*
X531270Y462913D01*
X531253Y462932D01*
X531240Y462955D01*
X531170Y463022D01*
X531104Y463094D01*
X531081Y463107D01*
X531062Y463125D01*
X530974Y463166D01*
X530888Y463213D01*
X530863Y463217D01*
X530839Y463228D01*
X530742Y463239D01*
X530646Y463256D01*
X530620Y463253D01*
X530595Y463255D01*
X530500Y463235D01*
X530403Y463221D01*
X530380Y463209D01*
X530354Y463203D01*
X530270Y463153D01*
X530184Y463109D01*
X530166Y463090D01*
X530143Y463077D01*
X530080Y463003D01*
X530012Y462933D01*
X529996Y462905D01*
X529983Y462890D01*
X529971Y462859D01*
X529931Y462787D01*
X529566Y461907D01*
X527931Y460272D01*
X525794Y459386D01*
X523480Y459386D01*
X523421Y459411D01*
X523351Y459427D01*
X523284Y459453D01*
X523232Y459455D01*
X523181Y459467D01*
X523110Y459460D01*
X523038Y459464D01*
X522988Y459449D01*
X522936Y459444D01*
X522871Y459415D01*
X522802Y459395D01*
X522759Y459365D01*
X522712Y459344D01*
X522659Y459296D01*
X522600Y459255D01*
X522569Y459213D01*
X522530Y459178D01*
X522496Y459115D01*
X522453Y459057D01*
X522437Y459008D01*
X522412Y458962D01*
X522399Y458892D01*
X522377Y458823D01*
X522377Y458771D01*
X522368Y458720D01*
X522379Y458649D01*
X522379Y458578D01*
X522399Y458509D01*
X522404Y458477D01*
X522415Y458456D01*
X522426Y458416D01*
X522451Y458357D01*
X522451Y456043D01*
X521565Y453906D01*
X519930Y452271D01*
X517793Y451385D01*
X515479Y451385D01*
X513342Y452271D01*
X511707Y453906D01*
X510821Y456043D01*
X510821Y458357D01*
X511707Y460494D01*
X513110Y461898D01*
X513163Y461972D01*
X513223Y462041D01*
X513235Y462071D01*
X513254Y462097D01*
X513281Y462184D01*
X513315Y462269D01*
X513319Y462310D01*
X513326Y462332D01*
X513325Y462365D01*
X513333Y462436D01*
X513333Y561438D01*
X557560Y605665D01*
X557613Y605739D01*
X557673Y605808D01*
X557685Y605839D01*
X557704Y605865D01*
X557731Y605952D01*
X557765Y606037D01*
X557769Y606078D01*
X557776Y606100D01*
X557775Y606132D01*
X557783Y606203D01*
X557783Y613177D01*
X562843Y618237D01*
X569997Y618237D01*
X575057Y613177D01*
X575057Y606023D01*
X569997Y600963D01*
X562598Y600963D01*
X562586Y600967D01*
X562544Y600963D01*
X562527Y600963D01*
X562512Y600961D01*
X562484Y600959D01*
X562381Y600956D01*
X562361Y600949D01*
X562340Y600947D01*
X562246Y600907D01*
X562150Y600872D01*
X562133Y600859D01*
X562114Y600851D01*
X561983Y600746D01*
X520162Y558925D01*
X520109Y558851D01*
X520049Y558782D01*
X520037Y558751D01*
X520018Y558725D01*
X519991Y558638D01*
X519957Y558553D01*
X519953Y558512D01*
X519946Y558490D01*
X519947Y558458D01*
X519939Y558387D01*
X519939Y511588D01*
X519950Y511518D01*
X519952Y511446D01*
X519970Y511397D01*
X519978Y511346D01*
X520012Y511282D01*
X520037Y511215D01*
X520069Y511174D01*
X520094Y511128D01*
X520146Y511079D01*
X520190Y511023D01*
X520234Y510995D01*
X520272Y510959D01*
X520337Y510929D01*
X520397Y510890D01*
X520448Y510877D01*
X520495Y510855D01*
X520566Y510847D01*
X520636Y510830D01*
X520688Y510834D01*
X520739Y510828D01*
X520810Y510843D01*
X520881Y510849D01*
X520929Y510869D01*
X520980Y510880D01*
X521041Y510917D01*
X521107Y510945D01*
X521163Y510990D01*
X521191Y511007D01*
X521206Y511024D01*
X521238Y511050D01*
X523492Y513304D01*
X557560Y547372D01*
X557613Y547446D01*
X557673Y547515D01*
X557685Y547546D01*
X557704Y547572D01*
X557731Y547659D01*
X557765Y547744D01*
X557769Y547785D01*
X557776Y547807D01*
X557775Y547839D01*
X557783Y547910D01*
X557783Y554757D01*
X562843Y559817D01*
X569997Y559817D01*
X575057Y554757D01*
X575057Y547603D01*
X569997Y542543D01*
X562771Y542543D01*
X562761Y542550D01*
X562660Y542575D01*
X562561Y542606D01*
X562541Y542605D01*
X562522Y542610D01*
X562419Y542602D01*
X562316Y542599D01*
X562297Y542592D01*
X562277Y542591D01*
X562182Y542550D01*
X562085Y542515D01*
X562069Y542502D01*
X562050Y542495D01*
X561920Y542390D01*
X528163Y508633D01*
X528110Y508559D01*
X528050Y508490D01*
X528038Y508459D01*
X528019Y508433D01*
X527992Y508346D01*
X527958Y508261D01*
X527954Y508220D01*
X527947Y508198D01*
X527948Y508166D01*
X527940Y508095D01*
X527940Y470437D01*
X527954Y470347D01*
X527962Y470256D01*
X527974Y470226D01*
X527979Y470194D01*
X528022Y470113D01*
X528058Y470030D01*
X528084Y469997D01*
X528095Y469977D01*
X528118Y469955D01*
X528163Y469899D01*
X529566Y468495D01*
X530452Y466358D01*
X530452Y465621D01*
X530453Y465613D01*
X530453Y465611D01*
X530455Y465601D01*
X530467Y465525D01*
X530477Y465428D01*
X530487Y465404D01*
X530491Y465378D01*
X530537Y465292D01*
X530577Y465203D01*
X530594Y465184D01*
X530607Y465161D01*
X530677Y465094D01*
X530743Y465022D01*
X530766Y465009D01*
X530785Y464991D01*
X530873Y464950D01*
X530959Y464903D01*
X530984Y464899D01*
X531008Y464888D01*
X531105Y464877D01*
X531201Y464860D01*
X531227Y464863D01*
X531252Y464861D01*
X531347Y464881D01*
X531444Y464895D01*
X531467Y464907D01*
X531493Y464913D01*
X531577Y464963D01*
X531663Y465007D01*
X531681Y465026D01*
X531704Y465039D01*
X531767Y465113D01*
X531835Y465183D01*
X531851Y465211D01*
X531864Y465226D01*
X531876Y465257D01*
X531916Y465329D01*
X532281Y466209D01*
X533916Y467844D01*
X536053Y468730D01*
X538367Y468730D01*
X540504Y467844D01*
X542139Y466209D01*
X543025Y464072D01*
X543025Y462086D01*
X543039Y461996D01*
X543047Y461905D01*
X543059Y461876D01*
X543064Y461844D01*
X543107Y461763D01*
X543143Y461679D01*
X543169Y461647D01*
X543180Y461626D01*
X543203Y461604D01*
X543248Y461548D01*
X561793Y443003D01*
X561809Y442992D01*
X561821Y442976D01*
X561909Y442920D01*
X561992Y442860D01*
X562011Y442854D01*
X562028Y442843D01*
X562129Y442818D01*
X562227Y442787D01*
X562247Y442788D01*
X562267Y442783D01*
X562370Y442791D01*
X562473Y442794D01*
X562492Y442801D01*
X562512Y442802D01*
X562607Y442843D01*
X562704Y442878D01*
X562720Y442891D01*
X562738Y442898D01*
X562836Y442977D01*
X569997Y442977D01*
X575057Y437917D01*
X575057Y430763D01*
X569997Y425703D01*
X562843Y425703D01*
G37*
%LPD*%
%LPC*%
G36*
X394466Y357885D02*
X394466Y357885D01*
X388365Y363986D01*
X388365Y372614D01*
X388479Y372727D01*
X388490Y372743D01*
X388506Y372756D01*
X388562Y372843D01*
X388622Y372927D01*
X388628Y372946D01*
X388639Y372963D01*
X388664Y373063D01*
X388694Y373162D01*
X388694Y373182D01*
X388699Y373201D01*
X388691Y373304D01*
X388688Y373408D01*
X388681Y373427D01*
X388680Y373446D01*
X388639Y373541D01*
X388604Y373639D01*
X388591Y373655D01*
X388583Y373673D01*
X388479Y373804D01*
X384174Y378108D01*
X384174Y389223D01*
X384160Y389313D01*
X384152Y389404D01*
X384140Y389433D01*
X384135Y389465D01*
X384092Y389546D01*
X384056Y389630D01*
X384030Y389662D01*
X384019Y389683D01*
X383996Y389705D01*
X383951Y389761D01*
X305179Y468533D01*
X305105Y468586D01*
X305036Y468646D01*
X305005Y468658D01*
X304979Y468677D01*
X304892Y468704D01*
X304807Y468738D01*
X304766Y468742D01*
X304744Y468749D01*
X304712Y468748D01*
X304641Y468756D01*
X204372Y468756D01*
X202214Y470914D01*
X146668Y526460D01*
X146652Y526472D01*
X146639Y526488D01*
X146552Y526544D01*
X146468Y526604D01*
X146449Y526610D01*
X146432Y526621D01*
X146332Y526646D01*
X146233Y526676D01*
X146213Y526676D01*
X146194Y526681D01*
X146091Y526673D01*
X145987Y526670D01*
X145968Y526663D01*
X145949Y526662D01*
X145854Y526621D01*
X145756Y526586D01*
X145740Y526573D01*
X145722Y526565D01*
X145591Y526460D01*
X144839Y525709D01*
X141505Y524327D01*
X137895Y524327D01*
X134561Y525709D01*
X132009Y528261D01*
X130627Y531595D01*
X130627Y535205D01*
X132009Y538539D01*
X134561Y541091D01*
X137895Y542473D01*
X141505Y542473D01*
X144839Y541091D01*
X147391Y538539D01*
X148773Y535205D01*
X148773Y534012D01*
X148787Y533922D01*
X148795Y533831D01*
X148807Y533802D01*
X148812Y533770D01*
X148855Y533689D01*
X148891Y533605D01*
X148917Y533573D01*
X148928Y533552D01*
X148951Y533530D01*
X148996Y533474D01*
X206885Y475585D01*
X206959Y475532D01*
X207028Y475472D01*
X207059Y475460D01*
X207085Y475441D01*
X207172Y475414D01*
X207257Y475380D01*
X207298Y475376D01*
X207320Y475369D01*
X207352Y475370D01*
X207423Y475362D01*
X307692Y475362D01*
X390780Y392274D01*
X390780Y381159D01*
X390794Y381069D01*
X390802Y380978D01*
X390814Y380949D01*
X390819Y380917D01*
X390839Y380881D01*
X390840Y380872D01*
X390862Y380835D01*
X390898Y380752D01*
X390924Y380720D01*
X390935Y380699D01*
X390956Y380679D01*
X390967Y380661D01*
X390980Y380650D01*
X391003Y380621D01*
X393149Y378474D01*
X393165Y378463D01*
X393178Y378447D01*
X393265Y378391D01*
X393349Y378331D01*
X393368Y378325D01*
X393385Y378314D01*
X393485Y378289D01*
X393584Y378259D01*
X393604Y378259D01*
X393623Y378254D01*
X393726Y378262D01*
X393830Y378265D01*
X393849Y378272D01*
X393869Y378273D01*
X393963Y378314D01*
X394061Y378349D01*
X394077Y378362D01*
X394095Y378370D01*
X394226Y378474D01*
X394466Y378715D01*
X403094Y378715D01*
X409195Y372614D01*
X409195Y363986D01*
X403094Y357885D01*
X394466Y357885D01*
G37*
%LPD*%
%LPC*%
G36*
X493526Y467105D02*
X493526Y467105D01*
X487425Y473206D01*
X487425Y481834D01*
X493526Y487935D01*
X494284Y487935D01*
X494304Y487938D01*
X494323Y487936D01*
X494425Y487958D01*
X494527Y487974D01*
X494544Y487984D01*
X494564Y487988D01*
X494653Y488041D01*
X494744Y488090D01*
X494758Y488104D01*
X494775Y488114D01*
X494842Y488193D01*
X494914Y488268D01*
X494922Y488286D01*
X494935Y488301D01*
X494974Y488397D01*
X495017Y488491D01*
X495019Y488511D01*
X495027Y488529D01*
X495045Y488696D01*
X495045Y599157D01*
X496980Y601092D01*
X497046Y601092D01*
X497136Y601106D01*
X497227Y601114D01*
X497256Y601126D01*
X497288Y601131D01*
X497369Y601174D01*
X497453Y601210D01*
X497485Y601236D01*
X497506Y601247D01*
X497528Y601270D01*
X497584Y601315D01*
X557560Y661291D01*
X557613Y661365D01*
X557673Y661434D01*
X557685Y661465D01*
X557704Y661491D01*
X557731Y661578D01*
X557765Y661663D01*
X557769Y661704D01*
X557776Y661726D01*
X557775Y661758D01*
X557783Y661829D01*
X557783Y669057D01*
X562843Y674117D01*
X569997Y674117D01*
X575057Y669057D01*
X575057Y661903D01*
X569997Y656843D01*
X562769Y656843D01*
X562679Y656829D01*
X562588Y656821D01*
X562559Y656809D01*
X562527Y656804D01*
X562446Y656761D01*
X562362Y656725D01*
X562330Y656699D01*
X562309Y656688D01*
X562287Y656665D01*
X562231Y656620D01*
X501874Y596263D01*
X501821Y596189D01*
X501761Y596120D01*
X501749Y596089D01*
X501730Y596063D01*
X501703Y595976D01*
X501669Y595891D01*
X501665Y595850D01*
X501658Y595828D01*
X501659Y595796D01*
X501651Y595725D01*
X501651Y488696D01*
X501654Y488676D01*
X501652Y488657D01*
X501674Y488555D01*
X501690Y488453D01*
X501700Y488436D01*
X501704Y488416D01*
X501757Y488327D01*
X501806Y488236D01*
X501820Y488222D01*
X501830Y488205D01*
X501909Y488138D01*
X501984Y488066D01*
X502002Y488058D01*
X502017Y488045D01*
X502061Y488027D01*
X508255Y481834D01*
X508255Y473206D01*
X502154Y467105D01*
X493526Y467105D01*
G37*
%LPD*%
%LPC*%
G36*
X466685Y517239D02*
X466685Y517239D01*
X460746Y519700D01*
X456200Y524246D01*
X454067Y529393D01*
X454030Y529454D01*
X454000Y529520D01*
X453965Y529558D01*
X453938Y529603D01*
X453882Y529648D01*
X453834Y529701D01*
X453788Y529726D01*
X453748Y529759D01*
X453681Y529785D01*
X453618Y529820D01*
X453567Y529829D01*
X453519Y529848D01*
X453447Y529851D01*
X453376Y529863D01*
X453325Y529856D01*
X453273Y529858D01*
X453204Y529838D01*
X453133Y529828D01*
X453087Y529804D01*
X453037Y529789D01*
X452978Y529749D01*
X452914Y529716D01*
X452877Y529679D01*
X452835Y529649D01*
X452792Y529592D01*
X452742Y529540D01*
X452707Y529478D01*
X452688Y529452D01*
X452681Y529430D01*
X452661Y529393D01*
X452191Y528261D01*
X449639Y525709D01*
X446305Y524327D01*
X442695Y524327D01*
X439361Y525709D01*
X436809Y528261D01*
X435427Y531595D01*
X435427Y535205D01*
X436809Y538539D01*
X439361Y541091D01*
X442695Y542473D01*
X446305Y542473D01*
X449639Y541091D01*
X452191Y538539D01*
X452661Y537407D01*
X452699Y537346D01*
X452728Y537280D01*
X452763Y537242D01*
X452790Y537197D01*
X452846Y537152D01*
X452894Y537099D01*
X452940Y537074D01*
X452980Y537041D01*
X453047Y537015D01*
X453110Y536980D01*
X453161Y536971D01*
X453209Y536952D01*
X453281Y536949D01*
X453352Y536937D01*
X453403Y536944D01*
X453455Y536942D01*
X453524Y536962D01*
X453595Y536972D01*
X453641Y536996D01*
X453691Y537011D01*
X453750Y537051D01*
X453814Y537084D01*
X453851Y537121D01*
X453893Y537151D01*
X453936Y537208D01*
X453986Y537260D01*
X454021Y537322D01*
X454040Y537348D01*
X454047Y537370D01*
X454067Y537407D01*
X456200Y542554D01*
X460746Y547100D01*
X466685Y549561D01*
X473115Y549561D01*
X479054Y547100D01*
X483600Y542554D01*
X486061Y536615D01*
X486061Y530185D01*
X483600Y524246D01*
X479054Y519700D01*
X473115Y517239D01*
X466685Y517239D01*
G37*
%LPD*%
%LPC*%
G36*
X282206Y318769D02*
X282206Y318769D01*
X278005Y320510D01*
X274790Y323725D01*
X273049Y327926D01*
X273049Y332474D01*
X274790Y336675D01*
X278005Y339890D01*
X282206Y341631D01*
X301994Y341631D01*
X306195Y339890D01*
X309410Y336675D01*
X311151Y332474D01*
X311151Y327926D01*
X309410Y323725D01*
X306195Y320510D01*
X301994Y318769D01*
X282206Y318769D01*
G37*
%LPD*%
%LPC*%
G36*
X28206Y318769D02*
X28206Y318769D01*
X24005Y320510D01*
X20790Y323725D01*
X19049Y327926D01*
X19049Y332474D01*
X20790Y336675D01*
X24005Y339890D01*
X28206Y341631D01*
X47994Y341631D01*
X52195Y339890D01*
X55410Y336675D01*
X57151Y332474D01*
X57151Y327926D01*
X55410Y323725D01*
X52195Y320510D01*
X47994Y318769D01*
X28206Y318769D01*
G37*
%LPD*%
%LPC*%
G36*
X231406Y318769D02*
X231406Y318769D01*
X227205Y320510D01*
X223990Y323725D01*
X222249Y327926D01*
X222249Y332474D01*
X223990Y336675D01*
X227205Y339890D01*
X231406Y341631D01*
X251194Y341631D01*
X255395Y339890D01*
X258610Y336675D01*
X260351Y332474D01*
X260351Y327926D01*
X258610Y323725D01*
X255395Y320510D01*
X251194Y318769D01*
X231406Y318769D01*
G37*
%LPD*%
%LPC*%
G36*
X129806Y318769D02*
X129806Y318769D01*
X125605Y320510D01*
X122390Y323725D01*
X120649Y327926D01*
X120649Y332474D01*
X122390Y336675D01*
X125605Y339890D01*
X129806Y341631D01*
X149594Y341631D01*
X153795Y339890D01*
X157010Y336675D01*
X158751Y332474D01*
X158751Y327926D01*
X157010Y323725D01*
X153795Y320510D01*
X149594Y318769D01*
X129806Y318769D01*
G37*
%LPD*%
%LPC*%
G36*
X79006Y318769D02*
X79006Y318769D01*
X74805Y320510D01*
X71590Y323725D01*
X69849Y327926D01*
X69849Y332474D01*
X71590Y336675D01*
X74805Y339890D01*
X79006Y341631D01*
X98794Y341631D01*
X102995Y339890D01*
X106210Y336675D01*
X107951Y332474D01*
X107951Y327926D01*
X106210Y323725D01*
X102995Y320510D01*
X98794Y318769D01*
X79006Y318769D01*
G37*
%LPD*%
%LPC*%
G36*
X180606Y318769D02*
X180606Y318769D01*
X176405Y320510D01*
X173190Y323725D01*
X171449Y327926D01*
X171449Y332474D01*
X173190Y336675D01*
X176405Y339890D01*
X180606Y341631D01*
X200394Y341631D01*
X204595Y339890D01*
X207810Y336675D01*
X209551Y332474D01*
X209551Y327926D01*
X207810Y323725D01*
X204595Y320510D01*
X200394Y318769D01*
X180606Y318769D01*
G37*
%LPD*%
%LPC*%
G36*
X561622Y298609D02*
X561622Y298609D01*
X557450Y300337D01*
X554257Y303530D01*
X552529Y307702D01*
X552529Y327298D01*
X554257Y331470D01*
X557450Y334663D01*
X561622Y336391D01*
X566138Y336391D01*
X570310Y334663D01*
X573503Y331470D01*
X575231Y327298D01*
X575231Y307702D01*
X573503Y303530D01*
X570310Y300337D01*
X566138Y298609D01*
X561622Y298609D01*
G37*
%LPD*%
%LPC*%
G36*
X477802Y298609D02*
X477802Y298609D01*
X473630Y300337D01*
X470437Y303530D01*
X468709Y307702D01*
X468709Y327298D01*
X470437Y331470D01*
X473630Y334663D01*
X477802Y336391D01*
X482318Y336391D01*
X486490Y334663D01*
X489683Y331470D01*
X491411Y327298D01*
X491411Y307702D01*
X489683Y303530D01*
X486490Y300337D01*
X482318Y298609D01*
X477802Y298609D01*
G37*
%LPD*%
%LPC*%
G36*
X231760Y422147D02*
X231760Y422147D01*
X228212Y423617D01*
X225497Y426332D01*
X224027Y429880D01*
X224027Y433720D01*
X225497Y437268D01*
X228212Y439983D01*
X231760Y441453D01*
X250840Y441453D01*
X254388Y439983D01*
X257103Y437268D01*
X258573Y433720D01*
X258573Y429880D01*
X257103Y426332D01*
X254388Y423617D01*
X250840Y422147D01*
X231760Y422147D01*
G37*
%LPD*%
%LPC*%
G36*
X79360Y422147D02*
X79360Y422147D01*
X75812Y423617D01*
X73097Y426332D01*
X71627Y429880D01*
X71627Y433720D01*
X73097Y437268D01*
X75812Y439983D01*
X79360Y441453D01*
X98440Y441453D01*
X101988Y439983D01*
X104703Y437268D01*
X106173Y433720D01*
X106173Y429880D01*
X104703Y426332D01*
X101988Y423617D01*
X98440Y422147D01*
X79360Y422147D01*
G37*
%LPD*%
%LPC*%
G36*
X130160Y422147D02*
X130160Y422147D01*
X126612Y423617D01*
X123897Y426332D01*
X122427Y429880D01*
X122427Y433720D01*
X123897Y437268D01*
X126612Y439983D01*
X130160Y441453D01*
X149240Y441453D01*
X152788Y439983D01*
X155503Y437268D01*
X156973Y433720D01*
X156973Y429880D01*
X155503Y426332D01*
X152788Y423617D01*
X149240Y422147D01*
X130160Y422147D01*
G37*
%LPD*%
%LPC*%
G36*
X180960Y396747D02*
X180960Y396747D01*
X177412Y398217D01*
X174697Y400932D01*
X173227Y404480D01*
X173227Y408320D01*
X174697Y411868D01*
X177412Y414583D01*
X180960Y416053D01*
X200040Y416053D01*
X203588Y414583D01*
X206303Y411868D01*
X207773Y408320D01*
X207773Y404480D01*
X206303Y400932D01*
X203588Y398217D01*
X200040Y396747D01*
X180960Y396747D01*
G37*
%LPD*%
%LPC*%
G36*
X282560Y396747D02*
X282560Y396747D01*
X279012Y398217D01*
X276297Y400932D01*
X274827Y404480D01*
X274827Y408320D01*
X276297Y411868D01*
X279012Y414583D01*
X282560Y416053D01*
X301640Y416053D01*
X305188Y414583D01*
X307903Y411868D01*
X309373Y408320D01*
X309373Y404480D01*
X307903Y400932D01*
X305188Y398217D01*
X301640Y396747D01*
X282560Y396747D01*
G37*
%LPD*%
%LPC*%
G36*
X28560Y396747D02*
X28560Y396747D01*
X25012Y398217D01*
X22297Y400932D01*
X20827Y404480D01*
X20827Y408320D01*
X22297Y411868D01*
X25012Y414583D01*
X28560Y416053D01*
X47640Y416053D01*
X51188Y414583D01*
X53903Y411868D01*
X55373Y408320D01*
X55373Y404480D01*
X53903Y400932D01*
X51188Y398217D01*
X47640Y396747D01*
X28560Y396747D01*
G37*
%LPD*%
%LPC*%
G36*
X79360Y396747D02*
X79360Y396747D01*
X75812Y398217D01*
X73097Y400932D01*
X71627Y404480D01*
X71627Y408320D01*
X73097Y411868D01*
X75812Y414583D01*
X79360Y416053D01*
X98440Y416053D01*
X101988Y414583D01*
X104703Y411868D01*
X106173Y408320D01*
X106173Y404480D01*
X104703Y400932D01*
X101988Y398217D01*
X98440Y396747D01*
X79360Y396747D01*
G37*
%LPD*%
%LPC*%
G36*
X130160Y396747D02*
X130160Y396747D01*
X126612Y398217D01*
X123897Y400932D01*
X122427Y404480D01*
X122427Y408320D01*
X123897Y411868D01*
X126612Y414583D01*
X130160Y416053D01*
X149240Y416053D01*
X152788Y414583D01*
X155503Y411868D01*
X156973Y408320D01*
X156973Y404480D01*
X155503Y400932D01*
X152788Y398217D01*
X149240Y396747D01*
X130160Y396747D01*
G37*
%LPD*%
%LPC*%
G36*
X231760Y396747D02*
X231760Y396747D01*
X228212Y398217D01*
X225497Y400932D01*
X224027Y404480D01*
X224027Y408320D01*
X225497Y411868D01*
X228212Y414583D01*
X231760Y416053D01*
X250840Y416053D01*
X254388Y414583D01*
X257103Y411868D01*
X258573Y408320D01*
X258573Y404480D01*
X257103Y400932D01*
X254388Y398217D01*
X250840Y396747D01*
X231760Y396747D01*
G37*
%LPD*%
%LPC*%
G36*
X282560Y447547D02*
X282560Y447547D01*
X279012Y449017D01*
X276297Y451732D01*
X274827Y455280D01*
X274827Y459120D01*
X276297Y462668D01*
X279012Y465383D01*
X282560Y466853D01*
X301640Y466853D01*
X305188Y465383D01*
X307903Y462668D01*
X309373Y459120D01*
X309373Y455280D01*
X307903Y451732D01*
X305188Y449017D01*
X301640Y447547D01*
X282560Y447547D01*
G37*
%LPD*%
%LPC*%
G36*
X231760Y447547D02*
X231760Y447547D01*
X228212Y449017D01*
X225497Y451732D01*
X224027Y455280D01*
X224027Y459120D01*
X225497Y462668D01*
X228212Y465383D01*
X231760Y466853D01*
X250840Y466853D01*
X254388Y465383D01*
X257103Y462668D01*
X258573Y459120D01*
X258573Y455280D01*
X257103Y451732D01*
X254388Y449017D01*
X250840Y447547D01*
X231760Y447547D01*
G37*
%LPD*%
%LPC*%
G36*
X28560Y447547D02*
X28560Y447547D01*
X25012Y449017D01*
X22297Y451732D01*
X20827Y455280D01*
X20827Y459120D01*
X22297Y462668D01*
X25012Y465383D01*
X28560Y466853D01*
X47640Y466853D01*
X51188Y465383D01*
X53903Y462668D01*
X55373Y459120D01*
X55373Y455280D01*
X53903Y451732D01*
X51188Y449017D01*
X47640Y447547D01*
X28560Y447547D01*
G37*
%LPD*%
%LPC*%
G36*
X180960Y447547D02*
X180960Y447547D01*
X177412Y449017D01*
X174697Y451732D01*
X173227Y455280D01*
X173227Y459120D01*
X174697Y462668D01*
X177412Y465383D01*
X180960Y466853D01*
X200040Y466853D01*
X203588Y465383D01*
X206303Y462668D01*
X207773Y459120D01*
X207773Y455280D01*
X206303Y451732D01*
X203588Y449017D01*
X200040Y447547D01*
X180960Y447547D01*
G37*
%LPD*%
%LPC*%
G36*
X130160Y345947D02*
X130160Y345947D01*
X126612Y347417D01*
X123897Y350132D01*
X122427Y353680D01*
X122427Y357520D01*
X123897Y361068D01*
X126612Y363783D01*
X130160Y365253D01*
X149240Y365253D01*
X152788Y363783D01*
X155503Y361068D01*
X156973Y357520D01*
X156973Y353680D01*
X155503Y350132D01*
X152788Y347417D01*
X149240Y345947D01*
X130160Y345947D01*
G37*
%LPD*%
%LPC*%
G36*
X180960Y345947D02*
X180960Y345947D01*
X177412Y347417D01*
X174697Y350132D01*
X173227Y353680D01*
X173227Y357520D01*
X174697Y361068D01*
X177412Y363783D01*
X180960Y365253D01*
X200040Y365253D01*
X203588Y363783D01*
X206303Y361068D01*
X207773Y357520D01*
X207773Y353680D01*
X206303Y350132D01*
X203588Y347417D01*
X200040Y345947D01*
X180960Y345947D01*
G37*
%LPD*%
%LPC*%
G36*
X231760Y345947D02*
X231760Y345947D01*
X228212Y347417D01*
X225497Y350132D01*
X224027Y353680D01*
X224027Y357520D01*
X225497Y361068D01*
X228212Y363783D01*
X231760Y365253D01*
X250840Y365253D01*
X254388Y363783D01*
X257103Y361068D01*
X258573Y357520D01*
X258573Y353680D01*
X257103Y350132D01*
X254388Y347417D01*
X250840Y345947D01*
X231760Y345947D01*
G37*
%LPD*%
%LPC*%
G36*
X282560Y345947D02*
X282560Y345947D01*
X279012Y347417D01*
X276297Y350132D01*
X274827Y353680D01*
X274827Y357520D01*
X276297Y361068D01*
X279012Y363783D01*
X282560Y365253D01*
X301640Y365253D01*
X305188Y363783D01*
X307903Y361068D01*
X309373Y357520D01*
X309373Y353680D01*
X307903Y350132D01*
X305188Y347417D01*
X301640Y345947D01*
X282560Y345947D01*
G37*
%LPD*%
%LPC*%
G36*
X28560Y345947D02*
X28560Y345947D01*
X25012Y347417D01*
X22297Y350132D01*
X20827Y353680D01*
X20827Y357520D01*
X22297Y361068D01*
X25012Y363783D01*
X28560Y365253D01*
X47640Y365253D01*
X51188Y363783D01*
X53903Y361068D01*
X55373Y357520D01*
X55373Y353680D01*
X53903Y350132D01*
X51188Y347417D01*
X47640Y345947D01*
X28560Y345947D01*
G37*
%LPD*%
%LPC*%
G36*
X79360Y345947D02*
X79360Y345947D01*
X75812Y347417D01*
X73097Y350132D01*
X71627Y353680D01*
X71627Y357520D01*
X73097Y361068D01*
X75812Y363783D01*
X79360Y365253D01*
X98440Y365253D01*
X101988Y363783D01*
X104703Y361068D01*
X106173Y357520D01*
X106173Y353680D01*
X104703Y350132D01*
X101988Y347417D01*
X98440Y345947D01*
X79360Y345947D01*
G37*
%LPD*%
%LPC*%
G36*
X130160Y447547D02*
X130160Y447547D01*
X126612Y449017D01*
X123897Y451732D01*
X122427Y455280D01*
X122427Y459120D01*
X123897Y462668D01*
X126612Y465383D01*
X130160Y466853D01*
X149240Y466853D01*
X152788Y465383D01*
X155503Y462668D01*
X156973Y459120D01*
X156973Y455280D01*
X155503Y451732D01*
X152788Y449017D01*
X149240Y447547D01*
X130160Y447547D01*
G37*
%LPD*%
%LPC*%
G36*
X79360Y447547D02*
X79360Y447547D01*
X75812Y449017D01*
X73097Y451732D01*
X71627Y455280D01*
X71627Y459120D01*
X73097Y462668D01*
X75812Y465383D01*
X79360Y466853D01*
X98440Y466853D01*
X101988Y465383D01*
X104703Y462668D01*
X106173Y459120D01*
X106173Y455280D01*
X104703Y451732D01*
X101988Y449017D01*
X98440Y447547D01*
X79360Y447547D01*
G37*
%LPD*%
%LPC*%
G36*
X180960Y422147D02*
X180960Y422147D01*
X177412Y423617D01*
X174697Y426332D01*
X173227Y429880D01*
X173227Y433720D01*
X174697Y437268D01*
X177412Y439983D01*
X180960Y441453D01*
X200040Y441453D01*
X203588Y439983D01*
X206303Y437268D01*
X207773Y433720D01*
X207773Y429880D01*
X206303Y426332D01*
X203588Y423617D01*
X200040Y422147D01*
X180960Y422147D01*
G37*
%LPD*%
%LPC*%
G36*
X28560Y422147D02*
X28560Y422147D01*
X25012Y423617D01*
X22297Y426332D01*
X20827Y429880D01*
X20827Y433720D01*
X22297Y437268D01*
X25012Y439983D01*
X28560Y441453D01*
X47640Y441453D01*
X51188Y439983D01*
X53903Y437268D01*
X55373Y433720D01*
X55373Y429880D01*
X53903Y426332D01*
X51188Y423617D01*
X47640Y422147D01*
X28560Y422147D01*
G37*
%LPD*%
%LPC*%
G36*
X282560Y422147D02*
X282560Y422147D01*
X279012Y423617D01*
X276297Y426332D01*
X274827Y429880D01*
X274827Y433720D01*
X276297Y437268D01*
X279012Y439983D01*
X282560Y441453D01*
X301640Y441453D01*
X305188Y439983D01*
X307903Y437268D01*
X309373Y433720D01*
X309373Y429880D01*
X307903Y426332D01*
X305188Y423617D01*
X301640Y422147D01*
X282560Y422147D01*
G37*
%LPD*%
%LPC*%
G36*
X562843Y484123D02*
X562843Y484123D01*
X557783Y489183D01*
X557783Y489712D01*
X557780Y489732D01*
X557782Y489751D01*
X557760Y489853D01*
X557744Y489955D01*
X557734Y489972D01*
X557730Y489992D01*
X557677Y490081D01*
X557628Y490172D01*
X557614Y490186D01*
X557604Y490203D01*
X557525Y490270D01*
X557450Y490342D01*
X557432Y490350D01*
X557417Y490363D01*
X557321Y490402D01*
X557227Y490445D01*
X557207Y490447D01*
X557189Y490455D01*
X557022Y490473D01*
X542446Y490473D01*
X542356Y490459D01*
X542265Y490451D01*
X542235Y490439D01*
X542203Y490434D01*
X542122Y490391D01*
X542039Y490355D01*
X542006Y490329D01*
X541986Y490318D01*
X541964Y490295D01*
X541908Y490250D01*
X540504Y488847D01*
X538367Y487961D01*
X536053Y487961D01*
X533916Y488847D01*
X532281Y490482D01*
X531395Y492619D01*
X531395Y494933D01*
X532281Y497070D01*
X533916Y498705D01*
X536053Y499591D01*
X538367Y499591D01*
X540504Y498705D01*
X541908Y497302D01*
X541982Y497249D01*
X542051Y497189D01*
X542081Y497177D01*
X542107Y497158D01*
X542194Y497131D01*
X542279Y497097D01*
X542320Y497093D01*
X542342Y497086D01*
X542375Y497087D01*
X542446Y497079D01*
X558209Y497079D01*
X558299Y497093D01*
X558390Y497101D01*
X558420Y497113D01*
X558452Y497118D01*
X558533Y497161D01*
X558617Y497197D01*
X558649Y497223D01*
X558669Y497234D01*
X558692Y497257D01*
X558748Y497302D01*
X562843Y501397D01*
X569997Y501397D01*
X575057Y496337D01*
X575057Y489183D01*
X569997Y484123D01*
X562843Y484123D01*
G37*
%LPD*%
%LPC*%
G36*
X391542Y522549D02*
X391542Y522549D01*
X387554Y524201D01*
X384501Y527254D01*
X382849Y531242D01*
X382849Y535558D01*
X384501Y539546D01*
X387554Y542599D01*
X391542Y544251D01*
X395858Y544251D01*
X399846Y542599D01*
X402899Y539546D01*
X404551Y535558D01*
X404551Y531242D01*
X402899Y527254D01*
X399846Y524201D01*
X395858Y522549D01*
X391542Y522549D01*
G37*
%LPD*%
%LPC*%
G36*
X562106Y566165D02*
X562106Y566165D01*
X556005Y572266D01*
X556005Y580894D01*
X562106Y586995D01*
X570734Y586995D01*
X576835Y580894D01*
X576835Y572266D01*
X570734Y566165D01*
X562106Y566165D01*
G37*
%LPD*%
%LPC*%
G36*
X348746Y357885D02*
X348746Y357885D01*
X342645Y363986D01*
X342645Y372614D01*
X348746Y378715D01*
X357374Y378715D01*
X363475Y372614D01*
X363475Y363986D01*
X357374Y357885D01*
X348746Y357885D01*
G37*
%LPD*%
%LPC*%
G36*
X562106Y624585D02*
X562106Y624585D01*
X556005Y630686D01*
X556005Y639314D01*
X562106Y645415D01*
X570734Y645415D01*
X576835Y639314D01*
X576835Y630686D01*
X570734Y624585D01*
X562106Y624585D01*
G37*
%LPD*%
%LPC*%
G36*
X562106Y390905D02*
X562106Y390905D01*
X556005Y397006D01*
X556005Y405634D01*
X562106Y411735D01*
X570734Y411735D01*
X576835Y405634D01*
X576835Y397006D01*
X570734Y390905D01*
X562106Y390905D01*
G37*
%LPD*%
%LPC*%
G36*
X562106Y507745D02*
X562106Y507745D01*
X556005Y513846D01*
X556005Y522474D01*
X562106Y528575D01*
X570734Y528575D01*
X576835Y522474D01*
X576835Y513846D01*
X570734Y507745D01*
X562106Y507745D01*
G37*
%LPD*%
%LPC*%
G36*
X397006Y467105D02*
X397006Y467105D01*
X390905Y473206D01*
X390905Y481834D01*
X397006Y487935D01*
X405634Y487935D01*
X411735Y481834D01*
X411735Y473206D01*
X405634Y467105D01*
X397006Y467105D01*
G37*
%LPD*%
%LPC*%
G36*
X562106Y449325D02*
X562106Y449325D01*
X556005Y455426D01*
X556005Y464054D01*
X562106Y470155D01*
X570734Y470155D01*
X576835Y464054D01*
X576835Y455426D01*
X570734Y449325D01*
X562106Y449325D01*
G37*
%LPD*%
%LPC*%
G36*
X315695Y524327D02*
X315695Y524327D01*
X312361Y525709D01*
X309809Y528261D01*
X308427Y531595D01*
X308427Y535205D01*
X309809Y538539D01*
X312361Y541091D01*
X315695Y542473D01*
X319305Y542473D01*
X322639Y541091D01*
X325191Y538539D01*
X326573Y535205D01*
X326573Y531595D01*
X325191Y528261D01*
X322639Y525709D01*
X319305Y524327D01*
X315695Y524327D01*
G37*
%LPD*%
%LPC*%
G36*
X290295Y524327D02*
X290295Y524327D01*
X286961Y525709D01*
X284409Y528261D01*
X283027Y531595D01*
X283027Y535205D01*
X284409Y538539D01*
X286961Y541091D01*
X290295Y542473D01*
X293905Y542473D01*
X297239Y541091D01*
X299791Y538539D01*
X301173Y535205D01*
X301173Y531595D01*
X299791Y528261D01*
X297239Y525709D01*
X293905Y524327D01*
X290295Y524327D01*
G37*
%LPD*%
%LPC*%
G36*
X87095Y676727D02*
X87095Y676727D01*
X83761Y678109D01*
X81209Y680661D01*
X79827Y683995D01*
X79827Y687605D01*
X81209Y690939D01*
X83761Y693491D01*
X87095Y694873D01*
X90705Y694873D01*
X94039Y693491D01*
X96591Y690939D01*
X97973Y687605D01*
X97973Y683995D01*
X96591Y680661D01*
X94039Y678109D01*
X90705Y676727D01*
X87095Y676727D01*
G37*
%LPD*%
%LPC*%
G36*
X290295Y676727D02*
X290295Y676727D01*
X286961Y678109D01*
X284409Y680661D01*
X283027Y683995D01*
X283027Y687605D01*
X284409Y690939D01*
X286961Y693491D01*
X290295Y694873D01*
X293905Y694873D01*
X297239Y693491D01*
X299791Y690939D01*
X301173Y687605D01*
X301173Y683995D01*
X299791Y680661D01*
X297239Y678109D01*
X293905Y676727D01*
X290295Y676727D01*
G37*
%LPD*%
%LPC*%
G36*
X112495Y676727D02*
X112495Y676727D01*
X109161Y678109D01*
X106609Y680661D01*
X105227Y683995D01*
X105227Y687605D01*
X106609Y690939D01*
X109161Y693491D01*
X112495Y694873D01*
X116105Y694873D01*
X119439Y693491D01*
X121991Y690939D01*
X123373Y687605D01*
X123373Y683995D01*
X121991Y680661D01*
X119439Y678109D01*
X116105Y676727D01*
X112495Y676727D01*
G37*
%LPD*%
%LPC*%
G36*
X163295Y676727D02*
X163295Y676727D01*
X159961Y678109D01*
X157409Y680661D01*
X156027Y683995D01*
X156027Y687605D01*
X157409Y690939D01*
X159961Y693491D01*
X163295Y694873D01*
X166905Y694873D01*
X170239Y693491D01*
X172791Y690939D01*
X174173Y687605D01*
X174173Y683995D01*
X172791Y680661D01*
X170239Y678109D01*
X166905Y676727D01*
X163295Y676727D01*
G37*
%LPD*%
%LPC*%
G36*
X137895Y676727D02*
X137895Y676727D01*
X134561Y678109D01*
X132009Y680661D01*
X130627Y683995D01*
X130627Y687605D01*
X132009Y690939D01*
X134561Y693491D01*
X137895Y694873D01*
X141505Y694873D01*
X144839Y693491D01*
X147391Y690939D01*
X148773Y687605D01*
X148773Y683995D01*
X147391Y680661D01*
X144839Y678109D01*
X141505Y676727D01*
X137895Y676727D01*
G37*
%LPD*%
%LPC*%
G36*
X188695Y676727D02*
X188695Y676727D01*
X185361Y678109D01*
X182809Y680661D01*
X181427Y683995D01*
X181427Y687605D01*
X182809Y690939D01*
X185361Y693491D01*
X188695Y694873D01*
X192305Y694873D01*
X195639Y693491D01*
X198191Y690939D01*
X199573Y687605D01*
X199573Y683995D01*
X198191Y680661D01*
X195639Y678109D01*
X192305Y676727D01*
X188695Y676727D01*
G37*
%LPD*%
%LPC*%
G36*
X264895Y676727D02*
X264895Y676727D01*
X261561Y678109D01*
X259009Y680661D01*
X257627Y683995D01*
X257627Y687605D01*
X259009Y690939D01*
X261561Y693491D01*
X264895Y694873D01*
X268505Y694873D01*
X271839Y693491D01*
X274391Y690939D01*
X275773Y687605D01*
X275773Y683995D01*
X274391Y680661D01*
X271839Y678109D01*
X268505Y676727D01*
X264895Y676727D01*
G37*
%LPD*%
%LPC*%
G36*
X61695Y676727D02*
X61695Y676727D01*
X58361Y678109D01*
X55809Y680661D01*
X54427Y683995D01*
X54427Y687605D01*
X55809Y690939D01*
X58361Y693491D01*
X61695Y694873D01*
X65305Y694873D01*
X68639Y693491D01*
X71191Y690939D01*
X72573Y687605D01*
X72573Y683995D01*
X71191Y680661D01*
X68639Y678109D01*
X65305Y676727D01*
X61695Y676727D01*
G37*
%LPD*%
%LPC*%
G36*
X366495Y676727D02*
X366495Y676727D01*
X363161Y678109D01*
X360609Y680661D01*
X359227Y683995D01*
X359227Y687605D01*
X360609Y690939D01*
X363161Y693491D01*
X366495Y694873D01*
X370105Y694873D01*
X373439Y693491D01*
X375991Y690939D01*
X377373Y687605D01*
X377373Y683995D01*
X375991Y680661D01*
X373439Y678109D01*
X370105Y676727D01*
X366495Y676727D01*
G37*
%LPD*%
%LPC*%
G36*
X417295Y676727D02*
X417295Y676727D01*
X413961Y678109D01*
X411409Y680661D01*
X410027Y683995D01*
X410027Y687605D01*
X411409Y690939D01*
X413961Y693491D01*
X417295Y694873D01*
X420905Y694873D01*
X424239Y693491D01*
X426791Y690939D01*
X428173Y687605D01*
X428173Y683995D01*
X426791Y680661D01*
X424239Y678109D01*
X420905Y676727D01*
X417295Y676727D01*
G37*
%LPD*%
%LPC*%
G36*
X391895Y676727D02*
X391895Y676727D01*
X388561Y678109D01*
X386009Y680661D01*
X384627Y683995D01*
X384627Y687605D01*
X386009Y690939D01*
X388561Y693491D01*
X391895Y694873D01*
X395505Y694873D01*
X398839Y693491D01*
X401391Y690939D01*
X402773Y687605D01*
X402773Y683995D01*
X401391Y680661D01*
X398839Y678109D01*
X395505Y676727D01*
X391895Y676727D01*
G37*
%LPD*%
%LPC*%
G36*
X341095Y676727D02*
X341095Y676727D01*
X337761Y678109D01*
X335209Y680661D01*
X333827Y683995D01*
X333827Y687605D01*
X335209Y690939D01*
X337761Y693491D01*
X341095Y694873D01*
X344705Y694873D01*
X348039Y693491D01*
X350591Y690939D01*
X351973Y687605D01*
X351973Y683995D01*
X350591Y680661D01*
X348039Y678109D01*
X344705Y676727D01*
X341095Y676727D01*
G37*
%LPD*%
%LPC*%
G36*
X239495Y676727D02*
X239495Y676727D01*
X236161Y678109D01*
X233609Y680661D01*
X232227Y683995D01*
X232227Y687605D01*
X233609Y690939D01*
X236161Y693491D01*
X239495Y694873D01*
X243105Y694873D01*
X246439Y693491D01*
X248991Y690939D01*
X250373Y687605D01*
X250373Y683995D01*
X248991Y680661D01*
X246439Y678109D01*
X243105Y676727D01*
X239495Y676727D01*
G37*
%LPD*%
%LPC*%
G36*
X214095Y676727D02*
X214095Y676727D01*
X210761Y678109D01*
X208209Y680661D01*
X206827Y683995D01*
X206827Y687605D01*
X208209Y690939D01*
X210761Y693491D01*
X214095Y694873D01*
X217705Y694873D01*
X221039Y693491D01*
X223591Y690939D01*
X224973Y687605D01*
X224973Y683995D01*
X223591Y680661D01*
X221039Y678109D01*
X217705Y676727D01*
X214095Y676727D01*
G37*
%LPD*%
%LPC*%
G36*
X61695Y524327D02*
X61695Y524327D01*
X58361Y525709D01*
X55809Y528261D01*
X54427Y531595D01*
X54427Y535205D01*
X55809Y538539D01*
X58361Y541091D01*
X61695Y542473D01*
X65305Y542473D01*
X68639Y541091D01*
X71191Y538539D01*
X72573Y535205D01*
X72573Y531595D01*
X71191Y528261D01*
X68639Y525709D01*
X65305Y524327D01*
X61695Y524327D01*
G37*
%LPD*%
%LPC*%
G36*
X239495Y524327D02*
X239495Y524327D01*
X236161Y525709D01*
X233609Y528261D01*
X232227Y531595D01*
X232227Y535205D01*
X233609Y538539D01*
X236161Y541091D01*
X239495Y542473D01*
X243105Y542473D01*
X246439Y541091D01*
X248991Y538539D01*
X250373Y535205D01*
X250373Y531595D01*
X248991Y528261D01*
X246439Y525709D01*
X243105Y524327D01*
X239495Y524327D01*
G37*
%LPD*%
%LPC*%
G36*
X264895Y524327D02*
X264895Y524327D01*
X261561Y525709D01*
X259009Y528261D01*
X257627Y531595D01*
X257627Y535205D01*
X259009Y538539D01*
X261561Y541091D01*
X264895Y542473D01*
X268505Y542473D01*
X271839Y541091D01*
X274391Y538539D01*
X275773Y535205D01*
X275773Y531595D01*
X274391Y528261D01*
X271839Y525709D01*
X268505Y524327D01*
X264895Y524327D01*
G37*
%LPD*%
%LPC*%
G36*
X417295Y524327D02*
X417295Y524327D01*
X413961Y525709D01*
X411409Y528261D01*
X410027Y531595D01*
X410027Y535205D01*
X411409Y538539D01*
X413961Y541091D01*
X417295Y542473D01*
X420905Y542473D01*
X424239Y541091D01*
X426791Y538539D01*
X428173Y535205D01*
X428173Y531595D01*
X426791Y528261D01*
X424239Y525709D01*
X420905Y524327D01*
X417295Y524327D01*
G37*
%LPD*%
%LPC*%
G36*
X341095Y524327D02*
X341095Y524327D01*
X337761Y525709D01*
X335209Y528261D01*
X333827Y531595D01*
X333827Y535205D01*
X335209Y538539D01*
X337761Y541091D01*
X341095Y542473D01*
X344705Y542473D01*
X348039Y541091D01*
X350591Y538539D01*
X351973Y535205D01*
X351973Y531595D01*
X350591Y528261D01*
X348039Y525709D01*
X344705Y524327D01*
X341095Y524327D01*
G37*
%LPD*%
%LPC*%
G36*
X112495Y524327D02*
X112495Y524327D01*
X109161Y525709D01*
X106609Y528261D01*
X105227Y531595D01*
X105227Y535205D01*
X106609Y538539D01*
X109161Y541091D01*
X112495Y542473D01*
X116105Y542473D01*
X119439Y541091D01*
X121991Y538539D01*
X123373Y535205D01*
X123373Y531595D01*
X121991Y528261D01*
X119439Y525709D01*
X116105Y524327D01*
X112495Y524327D01*
G37*
%LPD*%
%LPC*%
G36*
X87095Y524327D02*
X87095Y524327D01*
X83761Y525709D01*
X81209Y528261D01*
X79827Y531595D01*
X79827Y535205D01*
X81209Y538539D01*
X83761Y541091D01*
X87095Y542473D01*
X90705Y542473D01*
X94039Y541091D01*
X96591Y538539D01*
X97973Y535205D01*
X97973Y531595D01*
X96591Y528261D01*
X94039Y525709D01*
X90705Y524327D01*
X87095Y524327D01*
G37*
%LPD*%
%LPC*%
G36*
X188695Y524327D02*
X188695Y524327D01*
X185361Y525709D01*
X182809Y528261D01*
X181427Y531595D01*
X181427Y535205D01*
X182809Y538539D01*
X185361Y541091D01*
X188695Y542473D01*
X192305Y542473D01*
X195639Y541091D01*
X198191Y538539D01*
X199573Y535205D01*
X199573Y531595D01*
X198191Y528261D01*
X195639Y525709D01*
X192305Y524327D01*
X188695Y524327D01*
G37*
%LPD*%
%LPC*%
G36*
X293623Y306323D02*
X293623Y306323D01*
X293623Y314961D01*
X300520Y314961D01*
X302099Y314711D01*
X303620Y314216D01*
X305045Y313490D01*
X306339Y312550D01*
X307470Y311419D01*
X308410Y310125D01*
X309136Y308700D01*
X309631Y307179D01*
X309766Y306323D01*
X293623Y306323D01*
G37*
%LPD*%
%LPC*%
G36*
X141223Y306323D02*
X141223Y306323D01*
X141223Y314961D01*
X148120Y314961D01*
X149699Y314711D01*
X151220Y314216D01*
X152645Y313490D01*
X153939Y312550D01*
X155070Y311419D01*
X156010Y310125D01*
X156736Y308700D01*
X157231Y307179D01*
X157366Y306323D01*
X141223Y306323D01*
G37*
%LPD*%
%LPC*%
G36*
X192023Y306323D02*
X192023Y306323D01*
X192023Y314961D01*
X198920Y314961D01*
X200499Y314711D01*
X202020Y314216D01*
X203445Y313490D01*
X204739Y312550D01*
X205870Y311419D01*
X206810Y310125D01*
X207536Y308700D01*
X208031Y307179D01*
X208166Y306323D01*
X192023Y306323D01*
G37*
%LPD*%
%LPC*%
G36*
X242823Y306323D02*
X242823Y306323D01*
X242823Y314961D01*
X249720Y314961D01*
X251299Y314711D01*
X252820Y314216D01*
X254245Y313490D01*
X255539Y312550D01*
X256670Y311419D01*
X257610Y310125D01*
X258336Y308700D01*
X258831Y307179D01*
X258966Y306323D01*
X242823Y306323D01*
G37*
%LPD*%
%LPC*%
G36*
X90423Y306323D02*
X90423Y306323D01*
X90423Y314961D01*
X97320Y314961D01*
X98899Y314711D01*
X100420Y314216D01*
X101845Y313490D01*
X103139Y312550D01*
X104270Y311419D01*
X105210Y310125D01*
X105936Y308700D01*
X106431Y307179D01*
X106566Y306323D01*
X90423Y306323D01*
G37*
%LPD*%
%LPC*%
G36*
X39623Y306323D02*
X39623Y306323D01*
X39623Y314961D01*
X46520Y314961D01*
X48099Y314711D01*
X49620Y314216D01*
X51045Y313490D01*
X52339Y312550D01*
X53470Y311419D01*
X54410Y310125D01*
X55136Y308700D01*
X55631Y307179D01*
X55766Y306323D01*
X39623Y306323D01*
G37*
%LPD*%
%LPC*%
G36*
X122034Y306323D02*
X122034Y306323D01*
X122169Y307179D01*
X122664Y308700D01*
X123390Y310125D01*
X124330Y311419D01*
X125461Y312550D01*
X126755Y313490D01*
X128180Y314216D01*
X129701Y314711D01*
X131280Y314961D01*
X138177Y314961D01*
X138177Y306323D01*
X122034Y306323D01*
G37*
%LPD*%
%LPC*%
G36*
X172834Y306323D02*
X172834Y306323D01*
X172969Y307179D01*
X173464Y308700D01*
X174190Y310125D01*
X175130Y311419D01*
X176261Y312550D01*
X177555Y313490D01*
X178980Y314216D01*
X180501Y314711D01*
X182080Y314961D01*
X188977Y314961D01*
X188977Y306323D01*
X172834Y306323D01*
G37*
%LPD*%
%LPC*%
G36*
X223634Y306323D02*
X223634Y306323D01*
X223769Y307179D01*
X224264Y308700D01*
X224990Y310125D01*
X225930Y311419D01*
X227061Y312550D01*
X228355Y313490D01*
X229780Y314216D01*
X231301Y314711D01*
X232880Y314961D01*
X239777Y314961D01*
X239777Y306323D01*
X223634Y306323D01*
G37*
%LPD*%
%LPC*%
G36*
X274434Y306323D02*
X274434Y306323D01*
X274569Y307179D01*
X275064Y308700D01*
X275790Y310125D01*
X276730Y311419D01*
X277861Y312550D01*
X279155Y313490D01*
X280580Y314216D01*
X282101Y314711D01*
X283680Y314961D01*
X290577Y314961D01*
X290577Y306323D01*
X274434Y306323D01*
G37*
%LPD*%
%LPC*%
G36*
X20434Y306323D02*
X20434Y306323D01*
X20569Y307179D01*
X21064Y308700D01*
X21790Y310125D01*
X22730Y311419D01*
X23861Y312550D01*
X25155Y313490D01*
X26580Y314216D01*
X28101Y314711D01*
X29680Y314961D01*
X36577Y314961D01*
X36577Y306323D01*
X20434Y306323D01*
G37*
%LPD*%
%LPC*%
G36*
X71234Y306323D02*
X71234Y306323D01*
X71369Y307179D01*
X71864Y308700D01*
X72590Y310125D01*
X73530Y311419D01*
X74661Y312550D01*
X75955Y313490D01*
X77380Y314216D01*
X78901Y314711D01*
X80480Y314961D01*
X87377Y314961D01*
X87377Y306323D01*
X71234Y306323D01*
G37*
%LPD*%
%LPC*%
G36*
X39623Y294639D02*
X39623Y294639D01*
X39623Y303277D01*
X55766Y303277D01*
X55631Y302421D01*
X55136Y300900D01*
X54410Y299475D01*
X53470Y298181D01*
X52339Y297050D01*
X51045Y296110D01*
X49620Y295384D01*
X48099Y294889D01*
X46520Y294639D01*
X39623Y294639D01*
G37*
%LPD*%
%LPC*%
G36*
X90423Y294639D02*
X90423Y294639D01*
X90423Y303277D01*
X106566Y303277D01*
X106431Y302421D01*
X105936Y300900D01*
X105210Y299475D01*
X104270Y298181D01*
X103139Y297050D01*
X101845Y296110D01*
X100420Y295384D01*
X98899Y294889D01*
X97320Y294639D01*
X90423Y294639D01*
G37*
%LPD*%
%LPC*%
G36*
X141223Y294639D02*
X141223Y294639D01*
X141223Y303277D01*
X157366Y303277D01*
X157231Y302421D01*
X156736Y300900D01*
X156010Y299475D01*
X155070Y298181D01*
X153939Y297050D01*
X152645Y296110D01*
X151220Y295384D01*
X149699Y294889D01*
X148120Y294639D01*
X141223Y294639D01*
G37*
%LPD*%
%LPC*%
G36*
X192023Y294639D02*
X192023Y294639D01*
X192023Y303277D01*
X208166Y303277D01*
X208031Y302421D01*
X207536Y300900D01*
X206810Y299475D01*
X205870Y298181D01*
X204739Y297050D01*
X203445Y296110D01*
X202020Y295384D01*
X200499Y294889D01*
X198920Y294639D01*
X192023Y294639D01*
G37*
%LPD*%
%LPC*%
G36*
X242823Y294639D02*
X242823Y294639D01*
X242823Y303277D01*
X258966Y303277D01*
X258831Y302421D01*
X258336Y300900D01*
X257610Y299475D01*
X256670Y298181D01*
X255539Y297050D01*
X254245Y296110D01*
X252820Y295384D01*
X251299Y294889D01*
X249720Y294639D01*
X242823Y294639D01*
G37*
%LPD*%
%LPC*%
G36*
X293623Y294639D02*
X293623Y294639D01*
X293623Y303277D01*
X309766Y303277D01*
X309631Y302421D01*
X309136Y300900D01*
X308410Y299475D01*
X307470Y298181D01*
X306339Y297050D01*
X305045Y296110D01*
X303620Y295384D01*
X302099Y294889D01*
X300520Y294639D01*
X293623Y294639D01*
G37*
%LPD*%
%LPC*%
G36*
X232880Y294639D02*
X232880Y294639D01*
X231301Y294889D01*
X229780Y295384D01*
X228355Y296110D01*
X227061Y297050D01*
X225930Y298181D01*
X224990Y299475D01*
X224264Y300900D01*
X223769Y302421D01*
X223634Y303277D01*
X239777Y303277D01*
X239777Y294639D01*
X232880Y294639D01*
G37*
%LPD*%
%LPC*%
G36*
X182080Y294639D02*
X182080Y294639D01*
X180501Y294889D01*
X178980Y295384D01*
X177555Y296110D01*
X176261Y297050D01*
X175130Y298181D01*
X174190Y299475D01*
X173464Y300900D01*
X172969Y302421D01*
X172834Y303277D01*
X188977Y303277D01*
X188977Y294639D01*
X182080Y294639D01*
G37*
%LPD*%
%LPC*%
G36*
X131280Y294639D02*
X131280Y294639D01*
X129701Y294889D01*
X128180Y295384D01*
X126755Y296110D01*
X125461Y297050D01*
X124330Y298181D01*
X123390Y299475D01*
X122664Y300900D01*
X122169Y302421D01*
X122034Y303277D01*
X138177Y303277D01*
X138177Y294639D01*
X131280Y294639D01*
G37*
%LPD*%
%LPC*%
G36*
X80480Y294639D02*
X80480Y294639D01*
X78901Y294889D01*
X77380Y295384D01*
X75955Y296110D01*
X74661Y297050D01*
X73530Y298181D01*
X72590Y299475D01*
X71864Y300900D01*
X71369Y302421D01*
X71234Y303277D01*
X87377Y303277D01*
X87377Y294639D01*
X80480Y294639D01*
G37*
%LPD*%
%LPC*%
G36*
X29680Y294639D02*
X29680Y294639D01*
X28101Y294889D01*
X26580Y295384D01*
X25155Y296110D01*
X23861Y297050D01*
X22730Y298181D01*
X21790Y299475D01*
X21064Y300900D01*
X20569Y302421D01*
X20434Y303277D01*
X36577Y303277D01*
X36577Y294639D01*
X29680Y294639D01*
G37*
%LPD*%
%LPC*%
G36*
X283680Y294639D02*
X283680Y294639D01*
X282101Y294889D01*
X280580Y295384D01*
X279155Y296110D01*
X277861Y297050D01*
X276730Y298181D01*
X275790Y299475D01*
X275064Y300900D01*
X274569Y302421D01*
X274434Y303277D01*
X290577Y303277D01*
X290577Y294639D01*
X283680Y294639D01*
G37*
%LPD*%
%LPC*%
G36*
X540003Y319023D02*
X540003Y319023D01*
X540003Y335005D01*
X540841Y334873D01*
X542350Y334382D01*
X543763Y333662D01*
X545047Y332729D01*
X546169Y331607D01*
X547102Y330323D01*
X547822Y328910D01*
X548313Y327401D01*
X548561Y325833D01*
X548561Y319023D01*
X540003Y319023D01*
G37*
%LPD*%
%LPC*%
G36*
X456183Y319023D02*
X456183Y319023D01*
X456183Y335005D01*
X457021Y334873D01*
X458530Y334382D01*
X459943Y333662D01*
X461227Y332729D01*
X462349Y331607D01*
X463282Y330323D01*
X464002Y328910D01*
X464493Y327401D01*
X464741Y325833D01*
X464741Y319023D01*
X456183Y319023D01*
G37*
%LPD*%
%LPC*%
G36*
X540003Y315977D02*
X540003Y315977D01*
X548561Y315977D01*
X548561Y309167D01*
X548313Y307599D01*
X547822Y306090D01*
X547102Y304677D01*
X546169Y303393D01*
X545047Y302271D01*
X543763Y301338D01*
X542350Y300618D01*
X540841Y300127D01*
X540003Y299995D01*
X540003Y315977D01*
G37*
%LPD*%
%LPC*%
G36*
X456183Y315977D02*
X456183Y315977D01*
X464741Y315977D01*
X464741Y309167D01*
X464493Y307599D01*
X464002Y306090D01*
X463282Y304677D01*
X462349Y303393D01*
X461227Y302271D01*
X459943Y301338D01*
X458530Y300618D01*
X457021Y300127D01*
X456183Y299995D01*
X456183Y315977D01*
G37*
%LPD*%
%LPC*%
G36*
X528399Y319023D02*
X528399Y319023D01*
X528399Y325833D01*
X528647Y327401D01*
X529138Y328910D01*
X529858Y330323D01*
X530791Y331607D01*
X531913Y332729D01*
X533197Y333662D01*
X534610Y334382D01*
X536119Y334873D01*
X536957Y335005D01*
X536957Y319023D01*
X528399Y319023D01*
G37*
%LPD*%
%LPC*%
G36*
X444579Y319023D02*
X444579Y319023D01*
X444579Y325833D01*
X444827Y327401D01*
X445318Y328910D01*
X446038Y330323D01*
X446971Y331607D01*
X448093Y332729D01*
X449377Y333662D01*
X450790Y334382D01*
X452299Y334873D01*
X453137Y335005D01*
X453137Y319023D01*
X444579Y319023D01*
G37*
%LPD*%
%LPC*%
G36*
X536119Y300127D02*
X536119Y300127D01*
X534610Y300618D01*
X533197Y301338D01*
X531913Y302271D01*
X530791Y303393D01*
X529858Y304677D01*
X529138Y306090D01*
X528647Y307599D01*
X528399Y309167D01*
X528399Y315977D01*
X536957Y315977D01*
X536957Y299995D01*
X536119Y300127D01*
G37*
%LPD*%
%LPC*%
G36*
X452299Y300127D02*
X452299Y300127D01*
X450790Y300618D01*
X449377Y301338D01*
X448093Y302271D01*
X446971Y303393D01*
X446038Y304677D01*
X445318Y306090D01*
X444827Y307599D01*
X444579Y309167D01*
X444579Y315977D01*
X453137Y315977D01*
X453137Y299995D01*
X452299Y300127D01*
G37*
%LPD*%
%LPC*%
G36*
X400303Y293623D02*
X400303Y293623D01*
X400303Y303023D01*
X403304Y303023D01*
X409703Y296624D01*
X409703Y293623D01*
X400303Y293623D01*
G37*
%LPD*%
%LPC*%
G36*
X354583Y293623D02*
X354583Y293623D01*
X354583Y303023D01*
X357584Y303023D01*
X363983Y296624D01*
X363983Y293623D01*
X354583Y293623D01*
G37*
%LPD*%
%LPC*%
G36*
X451103Y402843D02*
X451103Y402843D01*
X451103Y412243D01*
X454104Y412243D01*
X460503Y405844D01*
X460503Y402843D01*
X451103Y402843D01*
G37*
%LPD*%
%LPC*%
G36*
X499363Y402843D02*
X499363Y402843D01*
X499363Y412243D01*
X502364Y412243D01*
X508763Y405844D01*
X508763Y402843D01*
X499363Y402843D01*
G37*
%LPD*%
%LPC*%
G36*
X402843Y402843D02*
X402843Y402843D01*
X402843Y412243D01*
X405844Y412243D01*
X412243Y405844D01*
X412243Y402843D01*
X402843Y402843D01*
G37*
%LPD*%
%LPC*%
G36*
X354583Y402843D02*
X354583Y402843D01*
X354583Y412243D01*
X357584Y412243D01*
X363983Y405844D01*
X363983Y402843D01*
X354583Y402843D01*
G37*
%LPD*%
%LPC*%
G36*
X342137Y402843D02*
X342137Y402843D01*
X342137Y405844D01*
X348536Y412243D01*
X351537Y412243D01*
X351537Y402843D01*
X342137Y402843D01*
G37*
%LPD*%
%LPC*%
G36*
X354583Y281177D02*
X354583Y281177D01*
X354583Y290577D01*
X363983Y290577D01*
X363983Y287576D01*
X357584Y281177D01*
X354583Y281177D01*
G37*
%LPD*%
%LPC*%
G36*
X400303Y281177D02*
X400303Y281177D01*
X400303Y290577D01*
X409703Y290577D01*
X409703Y287576D01*
X403304Y281177D01*
X400303Y281177D01*
G37*
%LPD*%
%LPC*%
G36*
X342137Y293623D02*
X342137Y293623D01*
X342137Y296624D01*
X348536Y303023D01*
X351537Y303023D01*
X351537Y293623D01*
X342137Y293623D01*
G37*
%LPD*%
%LPC*%
G36*
X387857Y293623D02*
X387857Y293623D01*
X387857Y296624D01*
X394256Y303023D01*
X397257Y303023D01*
X397257Y293623D01*
X387857Y293623D01*
G37*
%LPD*%
%LPC*%
G36*
X390397Y402843D02*
X390397Y402843D01*
X390397Y405844D01*
X396796Y412243D01*
X399797Y412243D01*
X399797Y402843D01*
X390397Y402843D01*
G37*
%LPD*%
%LPC*%
G36*
X499363Y390397D02*
X499363Y390397D01*
X499363Y399797D01*
X508763Y399797D01*
X508763Y396796D01*
X502364Y390397D01*
X499363Y390397D01*
G37*
%LPD*%
%LPC*%
G36*
X451103Y390397D02*
X451103Y390397D01*
X451103Y399797D01*
X460503Y399797D01*
X460503Y396796D01*
X454104Y390397D01*
X451103Y390397D01*
G37*
%LPD*%
%LPC*%
G36*
X402843Y390397D02*
X402843Y390397D01*
X402843Y399797D01*
X412243Y399797D01*
X412243Y396796D01*
X405844Y390397D01*
X402843Y390397D01*
G37*
%LPD*%
%LPC*%
G36*
X354583Y390397D02*
X354583Y390397D01*
X354583Y399797D01*
X363983Y399797D01*
X363983Y396796D01*
X357584Y390397D01*
X354583Y390397D01*
G37*
%LPD*%
%LPC*%
G36*
X438657Y402843D02*
X438657Y402843D01*
X438657Y405844D01*
X445056Y412243D01*
X448057Y412243D01*
X448057Y402843D01*
X438657Y402843D01*
G37*
%LPD*%
%LPC*%
G36*
X486917Y402843D02*
X486917Y402843D01*
X486917Y405844D01*
X493316Y412243D01*
X496317Y412243D01*
X496317Y402843D01*
X486917Y402843D01*
G37*
%LPD*%
%LPC*%
G36*
X396796Y390397D02*
X396796Y390397D01*
X390397Y396796D01*
X390397Y399797D01*
X399797Y399797D01*
X399797Y390397D01*
X396796Y390397D01*
G37*
%LPD*%
%LPC*%
G36*
X348536Y390397D02*
X348536Y390397D01*
X342137Y396796D01*
X342137Y399797D01*
X351537Y399797D01*
X351537Y390397D01*
X348536Y390397D01*
G37*
%LPD*%
%LPC*%
G36*
X493316Y390397D02*
X493316Y390397D01*
X486917Y396796D01*
X486917Y399797D01*
X496317Y399797D01*
X496317Y390397D01*
X493316Y390397D01*
G37*
%LPD*%
%LPC*%
G36*
X445056Y390397D02*
X445056Y390397D01*
X438657Y396796D01*
X438657Y399797D01*
X448057Y399797D01*
X448057Y390397D01*
X445056Y390397D01*
G37*
%LPD*%
%LPC*%
G36*
X394256Y281177D02*
X394256Y281177D01*
X387857Y287576D01*
X387857Y290577D01*
X397257Y290577D01*
X397257Y281177D01*
X394256Y281177D01*
G37*
%LPD*%
%LPC*%
G36*
X348536Y281177D02*
X348536Y281177D01*
X342137Y287576D01*
X342137Y290577D01*
X351537Y290577D01*
X351537Y281177D01*
X348536Y281177D01*
G37*
%LPD*%
%LPC*%
G36*
X319023Y687323D02*
X319023Y687323D01*
X319023Y695259D01*
X319743Y695145D01*
X321178Y694679D01*
X322521Y693994D01*
X323742Y693108D01*
X324808Y692042D01*
X325694Y690821D01*
X326379Y689478D01*
X326845Y688043D01*
X326959Y687323D01*
X319023Y687323D01*
G37*
%LPD*%
%LPC*%
G36*
X369823Y534923D02*
X369823Y534923D01*
X369823Y542859D01*
X370543Y542745D01*
X371978Y542279D01*
X373321Y541594D01*
X374542Y540708D01*
X375608Y539642D01*
X376494Y538421D01*
X377179Y537078D01*
X377645Y535643D01*
X377759Y534923D01*
X369823Y534923D01*
G37*
%LPD*%
%LPC*%
G36*
X358841Y534923D02*
X358841Y534923D01*
X358955Y535643D01*
X359421Y537078D01*
X360106Y538421D01*
X360992Y539642D01*
X362058Y540708D01*
X363279Y541594D01*
X364622Y542279D01*
X366057Y542745D01*
X366777Y542859D01*
X366777Y534923D01*
X358841Y534923D01*
G37*
%LPD*%
%LPC*%
G36*
X369823Y531877D02*
X369823Y531877D01*
X377759Y531877D01*
X377645Y531157D01*
X377179Y529722D01*
X376494Y528379D01*
X375608Y527158D01*
X374542Y526092D01*
X373321Y525206D01*
X371978Y524521D01*
X370543Y524055D01*
X369823Y523941D01*
X369823Y531877D01*
G37*
%LPD*%
%LPC*%
G36*
X319023Y684277D02*
X319023Y684277D01*
X326959Y684277D01*
X326845Y683557D01*
X326379Y682122D01*
X325694Y680779D01*
X324808Y679558D01*
X323742Y678492D01*
X322521Y677606D01*
X321178Y676921D01*
X319743Y676455D01*
X319023Y676341D01*
X319023Y684277D01*
G37*
%LPD*%
%LPC*%
G36*
X308041Y687323D02*
X308041Y687323D01*
X308155Y688043D01*
X308621Y689478D01*
X309306Y690821D01*
X310192Y692042D01*
X311258Y693108D01*
X312479Y693994D01*
X313822Y694679D01*
X315257Y695145D01*
X315977Y695259D01*
X315977Y687323D01*
X308041Y687323D01*
G37*
%LPD*%
%LPC*%
G36*
X315257Y676455D02*
X315257Y676455D01*
X313822Y676921D01*
X312479Y677606D01*
X311258Y678492D01*
X310192Y679558D01*
X309306Y680779D01*
X308621Y682122D01*
X308155Y683557D01*
X308041Y684277D01*
X315977Y684277D01*
X315977Y676341D01*
X315257Y676455D01*
G37*
%LPD*%
%LPC*%
G36*
X366057Y524055D02*
X366057Y524055D01*
X364622Y524521D01*
X363279Y525206D01*
X362058Y526092D01*
X360992Y527158D01*
X360106Y528379D01*
X359421Y529722D01*
X358955Y531157D01*
X358841Y531877D01*
X366777Y531877D01*
X366777Y523941D01*
X366057Y524055D01*
G37*
%LPD*%
%LPC*%
G36*
X139699Y304799D02*
X139699Y304799D01*
X139699Y304801D01*
X139701Y304801D01*
X139701Y304799D01*
X139699Y304799D01*
G37*
%LPD*%
%LPC*%
G36*
X88899Y304799D02*
X88899Y304799D01*
X88899Y304801D01*
X88901Y304801D01*
X88901Y304799D01*
X88899Y304799D01*
G37*
%LPD*%
%LPC*%
G36*
X38099Y304799D02*
X38099Y304799D01*
X38099Y304801D01*
X38101Y304801D01*
X38101Y304799D01*
X38099Y304799D01*
G37*
%LPD*%
%LPC*%
G36*
X368299Y533399D02*
X368299Y533399D01*
X368299Y533401D01*
X368301Y533401D01*
X368301Y533399D01*
X368299Y533399D01*
G37*
%LPD*%
%LPC*%
G36*
X454659Y317499D02*
X454659Y317499D01*
X454659Y317501D01*
X454661Y317501D01*
X454661Y317499D01*
X454659Y317499D01*
G37*
%LPD*%
%LPC*%
G36*
X497839Y401319D02*
X497839Y401319D01*
X497839Y401321D01*
X497841Y401321D01*
X497841Y401319D01*
X497839Y401319D01*
G37*
%LPD*%
%LPC*%
G36*
X538479Y317499D02*
X538479Y317499D01*
X538479Y317501D01*
X538481Y317501D01*
X538481Y317499D01*
X538479Y317499D01*
G37*
%LPD*%
%LPC*%
G36*
X353059Y401319D02*
X353059Y401319D01*
X353059Y401321D01*
X353061Y401321D01*
X353061Y401319D01*
X353059Y401319D01*
G37*
%LPD*%
%LPC*%
G36*
X292099Y304799D02*
X292099Y304799D01*
X292099Y304801D01*
X292101Y304801D01*
X292101Y304799D01*
X292099Y304799D01*
G37*
%LPD*%
%LPC*%
G36*
X401319Y401319D02*
X401319Y401319D01*
X401319Y401321D01*
X401321Y401321D01*
X401321Y401319D01*
X401319Y401319D01*
G37*
%LPD*%
%LPC*%
G36*
X449579Y401319D02*
X449579Y401319D01*
X449579Y401321D01*
X449581Y401321D01*
X449581Y401319D01*
X449579Y401319D01*
G37*
%LPD*%
%LPC*%
G36*
X398779Y292099D02*
X398779Y292099D01*
X398779Y292101D01*
X398781Y292101D01*
X398781Y292099D01*
X398779Y292099D01*
G37*
%LPD*%
%LPC*%
G36*
X353059Y292099D02*
X353059Y292099D01*
X353059Y292101D01*
X353061Y292101D01*
X353061Y292099D01*
X353059Y292099D01*
G37*
%LPD*%
%LPC*%
G36*
X317499Y685799D02*
X317499Y685799D01*
X317499Y685801D01*
X317501Y685801D01*
X317501Y685799D01*
X317499Y685799D01*
G37*
%LPD*%
%LPC*%
G36*
X241299Y304799D02*
X241299Y304799D01*
X241299Y304801D01*
X241301Y304801D01*
X241301Y304799D01*
X241299Y304799D01*
G37*
%LPD*%
%LPC*%
G36*
X190499Y304799D02*
X190499Y304799D01*
X190499Y304801D01*
X190501Y304801D01*
X190501Y304799D01*
X190499Y304799D01*
G37*
%LPD*%
D10*
X38100Y685800D03*
X63500Y685800D03*
X88900Y685800D03*
X114300Y685800D03*
X139700Y685800D03*
X165100Y685800D03*
X190500Y685800D03*
X215900Y685800D03*
X241300Y685800D03*
X266700Y685800D03*
X292100Y685800D03*
X317500Y685800D03*
X342900Y685800D03*
X368300Y685800D03*
X393700Y685800D03*
X419100Y685800D03*
X444500Y685800D03*
X38100Y533400D03*
X63500Y533400D03*
X88900Y533400D03*
X114300Y533400D03*
X139700Y533400D03*
X165100Y533400D03*
X190500Y533400D03*
X215900Y533400D03*
X241300Y533400D03*
X266700Y533400D03*
X292100Y533400D03*
X317500Y533400D03*
X342900Y533400D03*
X368300Y533400D03*
X393700Y533400D03*
X419100Y533400D03*
X444500Y533400D03*
D11*
X299720Y457200D02*
X284480Y457200D01*
X284480Y431800D02*
X299720Y431800D01*
X299720Y406400D02*
X284480Y406400D01*
X248920Y457200D02*
X233680Y457200D01*
X233680Y431800D02*
X248920Y431800D01*
X248920Y406400D02*
X233680Y406400D01*
X198120Y457200D02*
X182880Y457200D01*
X182880Y431800D02*
X198120Y431800D01*
X198120Y406400D02*
X182880Y406400D01*
X147320Y457200D02*
X132080Y457200D01*
X132080Y431800D02*
X147320Y431800D01*
X147320Y406400D02*
X132080Y406400D01*
X96520Y457200D02*
X81280Y457200D01*
X81280Y431800D02*
X96520Y431800D01*
X96520Y406400D02*
X81280Y406400D01*
X284480Y355600D02*
X299720Y355600D01*
X299720Y330200D02*
X284480Y330200D01*
X284480Y304800D02*
X299720Y304800D01*
X248920Y355600D02*
X233680Y355600D01*
X233680Y330200D02*
X248920Y330200D01*
X248920Y304800D02*
X233680Y304800D01*
X198120Y355600D02*
X182880Y355600D01*
X182880Y330200D02*
X198120Y330200D01*
X198120Y304800D02*
X182880Y304800D01*
X147320Y355600D02*
X132080Y355600D01*
X132080Y330200D02*
X147320Y330200D01*
X147320Y304800D02*
X132080Y304800D01*
X96520Y355600D02*
X81280Y355600D01*
X81280Y330200D02*
X96520Y330200D01*
X96520Y304800D02*
X81280Y304800D01*
D12*
X353060Y368300D03*
X353060Y292100D03*
X398780Y368300D03*
X398780Y292100D03*
X353060Y477520D03*
X353060Y401320D03*
X401320Y477520D03*
X401320Y401320D03*
X449580Y477520D03*
X449580Y401320D03*
D13*
X566420Y375920D03*
X566420Y401320D03*
X566420Y434340D03*
X566420Y459740D03*
X566420Y492760D03*
X566420Y518160D03*
X566420Y551180D03*
X566420Y576580D03*
X566420Y609600D03*
X566420Y635000D03*
D14*
X563880Y325040D02*
X563880Y309960D01*
X538480Y309960D02*
X538480Y325040D01*
X480060Y325040D02*
X480060Y309960D01*
X454660Y309960D02*
X454660Y325040D01*
D13*
X566420Y665480D03*
X566420Y690880D03*
D12*
X497840Y477520D03*
X497840Y401320D03*
D11*
X45720Y457200D02*
X30480Y457200D01*
X30480Y431800D02*
X45720Y431800D01*
X45720Y406400D02*
X30480Y406400D01*
X30480Y355600D02*
X45720Y355600D01*
X45720Y330200D02*
X30480Y330200D01*
X30480Y304800D02*
X45720Y304800D01*
D15*
X537210Y462915D02*
X565785Y434340D01*
X566420Y434340D01*
D16*
X537210Y462915D03*
D15*
X464058Y477774D02*
X565785Y376047D01*
X464058Y477774D02*
X450342Y477774D01*
X565785Y376047D02*
X566420Y375920D01*
X450342Y477774D02*
X449580Y477520D01*
X219456Y532638D02*
X216027Y532638D01*
X219456Y532638D02*
X258318Y493776D01*
X433197Y493776D01*
X449199Y477774D01*
X216027Y532638D02*
X215900Y533400D01*
X449199Y477774D02*
X449580Y477520D01*
X537210Y493776D02*
X565785Y493776D01*
X566420Y492760D01*
X170307Y532638D02*
X165735Y532638D01*
X170307Y532638D02*
X214884Y488061D01*
X341757Y488061D01*
X352044Y477774D01*
X165735Y532638D02*
X165100Y533400D01*
X352044Y477774D02*
X353060Y477520D01*
D16*
X537210Y493776D03*
D15*
X524637Y509778D02*
X565785Y550926D01*
X524637Y509778D02*
X524637Y465201D01*
X565785Y550926D02*
X566420Y551180D01*
X145161Y532638D02*
X140589Y532638D01*
X145161Y532638D02*
X205740Y472059D01*
X306324Y472059D01*
X387477Y390906D01*
X387477Y379476D01*
X397764Y369189D01*
X140589Y532638D02*
X139700Y533400D01*
X397764Y369189D02*
X398780Y368300D01*
D16*
X524637Y465201D03*
D15*
X516636Y560070D02*
X565785Y609219D01*
X516636Y560070D02*
X516636Y457200D01*
X565785Y609219D02*
X566420Y609600D01*
D16*
X516636Y457200D03*
D15*
X498348Y477774D02*
X498348Y597789D01*
X498348Y477774D02*
X497840Y477520D01*
X498729Y597789D02*
X566420Y665480D01*
X498729Y597789D02*
X498348Y597789D01*
M02*
