G04 EAGLE Gerber RS-274X export*
G75*
%MOMM*%
%FSLAX34Y34*%
%LPD*%
%INTop Copper*%
%IPPOS*%
%AMOC8*
5,1,8,0,0,1.08239X$1,22.5*%
G01*
%ADD10C,1.408000*%
%ADD11C,1.524000*%
%ADD12P,1.814519X8X292.500000*%
%ADD13P,1.429621X8X112.500000*%
%ADD14C,1.508000*%
%ADD15C,0.254000*%
%ADD16C,1.016000*%
%ADD17C,0.756400*%


D10*
X38100Y685800D03*
X63500Y685800D03*
X88900Y685800D03*
X114300Y685800D03*
X139700Y685800D03*
X165100Y685800D03*
X190500Y685800D03*
X215900Y685800D03*
X241300Y685800D03*
X266700Y685800D03*
X292100Y685800D03*
X317500Y685800D03*
X342900Y685800D03*
X368300Y685800D03*
X393700Y685800D03*
X419100Y685800D03*
X444500Y685800D03*
X38100Y533400D03*
X63500Y533400D03*
X88900Y533400D03*
X114300Y533400D03*
X139700Y533400D03*
X165100Y533400D03*
X190500Y533400D03*
X215900Y533400D03*
X241300Y533400D03*
X266700Y533400D03*
X292100Y533400D03*
X317500Y533400D03*
X342900Y533400D03*
X368300Y533400D03*
X393700Y533400D03*
X419100Y533400D03*
X444500Y533400D03*
D11*
X299720Y457200D02*
X284480Y457200D01*
X284480Y431800D02*
X299720Y431800D01*
X299720Y406400D02*
X284480Y406400D01*
X248920Y457200D02*
X233680Y457200D01*
X233680Y431800D02*
X248920Y431800D01*
X248920Y406400D02*
X233680Y406400D01*
X198120Y457200D02*
X182880Y457200D01*
X182880Y431800D02*
X198120Y431800D01*
X198120Y406400D02*
X182880Y406400D01*
X147320Y457200D02*
X132080Y457200D01*
X132080Y431800D02*
X147320Y431800D01*
X147320Y406400D02*
X132080Y406400D01*
X96520Y457200D02*
X81280Y457200D01*
X81280Y431800D02*
X96520Y431800D01*
X96520Y406400D02*
X81280Y406400D01*
X284480Y355600D02*
X299720Y355600D01*
X299720Y330200D02*
X284480Y330200D01*
X284480Y304800D02*
X299720Y304800D01*
X248920Y355600D02*
X233680Y355600D01*
X233680Y330200D02*
X248920Y330200D01*
X248920Y304800D02*
X233680Y304800D01*
X198120Y355600D02*
X182880Y355600D01*
X182880Y330200D02*
X198120Y330200D01*
X198120Y304800D02*
X182880Y304800D01*
X147320Y355600D02*
X132080Y355600D01*
X132080Y330200D02*
X147320Y330200D01*
X147320Y304800D02*
X132080Y304800D01*
X96520Y355600D02*
X81280Y355600D01*
X81280Y330200D02*
X96520Y330200D01*
X96520Y304800D02*
X81280Y304800D01*
D12*
X353060Y368300D03*
X353060Y292100D03*
X398780Y368300D03*
X398780Y292100D03*
X353060Y477520D03*
X353060Y401320D03*
X401320Y477520D03*
X401320Y401320D03*
X449580Y477520D03*
X449580Y401320D03*
D13*
X566420Y375920D03*
X566420Y401320D03*
X566420Y434340D03*
X566420Y459740D03*
X566420Y492760D03*
X566420Y518160D03*
X566420Y551180D03*
X566420Y576580D03*
X566420Y609600D03*
X566420Y635000D03*
D14*
X563880Y325040D02*
X563880Y309960D01*
X538480Y309960D02*
X538480Y325040D01*
X480060Y325040D02*
X480060Y309960D01*
X454660Y309960D02*
X454660Y325040D01*
D13*
X566420Y665480D03*
X566420Y690880D03*
D12*
X497840Y477520D03*
X497840Y401320D03*
D11*
X45720Y457200D02*
X30480Y457200D01*
X30480Y431800D02*
X45720Y431800D01*
X45720Y406400D02*
X30480Y406400D01*
X30480Y355600D02*
X45720Y355600D01*
X45720Y330200D02*
X30480Y330200D01*
X30480Y304800D02*
X45720Y304800D01*
D15*
X291465Y547497D02*
X291465Y685800D01*
X291465Y547497D02*
X281178Y537210D01*
X281178Y467487D01*
X291465Y457200D01*
X291465Y685800D02*
X292100Y685800D01*
X291465Y457200D02*
X292100Y457200D01*
X266319Y548640D02*
X266319Y685800D01*
X266319Y548640D02*
X252603Y534924D01*
X252603Y467487D01*
X242316Y457200D01*
X266319Y685800D02*
X266700Y685800D01*
X242316Y457200D02*
X241300Y457200D01*
X241173Y573786D02*
X241173Y685800D01*
X241173Y573786D02*
X201168Y533781D01*
X201168Y467487D01*
X190881Y457200D01*
X241173Y685800D02*
X241300Y685800D01*
X190881Y457200D02*
X190500Y457200D01*
X214884Y572643D02*
X214884Y685800D01*
X214884Y572643D02*
X176022Y533781D01*
X176022Y492633D01*
X140589Y457200D01*
X214884Y685800D02*
X215900Y685800D01*
X140589Y457200D02*
X139700Y457200D01*
X189738Y573786D02*
X189738Y685800D01*
X189738Y573786D02*
X150876Y534924D01*
X150876Y518922D01*
X89154Y457200D01*
X189738Y685800D02*
X190500Y685800D01*
X89154Y457200D02*
X88900Y457200D01*
D16*
X241300Y330200D02*
X292100Y330200D01*
X241300Y330200D02*
X241173Y330200D01*
X190881Y330200D01*
X190500Y330200D01*
X139700Y330200D01*
X139446Y330200D01*
X88900Y330200D01*
X38100Y330200D01*
X549148Y384048D02*
X566420Y401320D01*
X480060Y325040D02*
X480060Y317500D01*
X480060Y325040D02*
X462621Y342479D01*
X311999Y342479D01*
X299720Y330200D01*
X292100Y330200D01*
X550926Y444246D02*
X566420Y459740D01*
X550926Y444246D02*
X550926Y416814D01*
X550926Y502666D02*
X566420Y518160D01*
X550926Y561086D02*
X566420Y576580D01*
X550926Y619506D02*
X566420Y635000D01*
X550926Y619506D02*
X550926Y675386D01*
X550926Y619506D02*
X550926Y561086D01*
X550926Y512064D01*
X550926Y502666D01*
X550926Y444246D01*
X549148Y415036D02*
X549148Y384048D01*
X549148Y415036D02*
X550926Y416814D01*
X550926Y382270D02*
X550926Y369502D01*
X550926Y382270D02*
X549148Y384048D01*
X563880Y342900D02*
X563880Y317500D01*
X563880Y342900D02*
X563880Y356548D01*
X550926Y369502D01*
X563459Y342479D02*
X462621Y342479D01*
X563459Y342479D02*
X563880Y342900D01*
X396621Y532638D02*
X394335Y532638D01*
X396621Y532638D02*
X417195Y512064D01*
X550926Y512064D01*
X394335Y532638D02*
X393700Y533400D01*
X139700Y330200D02*
X139446Y330327D01*
X139446Y330200D01*
X190500Y330200D02*
X190881Y330327D01*
X190881Y330200D01*
X241173Y330327D02*
X241300Y330200D01*
X241173Y330200D02*
X241173Y330327D01*
X550926Y675386D02*
X566420Y690880D01*
D15*
X510921Y489204D02*
X519494Y480632D01*
X537210Y462915D01*
X510921Y489204D02*
X413766Y489204D01*
X402336Y477774D01*
X401320Y477520D01*
X189738Y480060D02*
X189738Y532638D01*
X189738Y480060D02*
X171450Y461772D01*
X171450Y452628D01*
X180594Y443484D01*
X205740Y443484D01*
X228600Y420624D01*
X459486Y420624D01*
X519494Y480632D01*
X190500Y533400D02*
X189738Y532638D01*
D17*
X537210Y462915D03*
D15*
X537210Y493776D02*
X369189Y493776D01*
X353187Y477774D01*
X353060Y477520D01*
D17*
X537210Y493776D03*
D15*
X524637Y465201D02*
X510921Y465201D01*
X459486Y413766D01*
X443484Y413766D01*
X398907Y369189D01*
X398780Y368300D01*
D17*
X524637Y465201D03*
D15*
X516636Y457200D02*
X516636Y451485D01*
X421767Y356616D01*
X364617Y356616D01*
X353187Y368046D01*
X353060Y368300D01*
X114300Y532638D02*
X102870Y532638D01*
X38862Y468630D01*
X26289Y468630D01*
X19431Y461772D01*
X19431Y452628D01*
X28575Y443484D01*
X155448Y443484D01*
X180594Y418338D01*
X205740Y418338D01*
X254889Y369189D01*
X352044Y369189D01*
X114300Y532638D02*
X114300Y533400D01*
X352044Y369189D02*
X353060Y368300D01*
D17*
X516636Y457200D03*
D15*
X241173Y481203D02*
X241173Y532638D01*
X241173Y481203D02*
X221742Y461772D01*
X221742Y452628D01*
X228600Y445770D01*
X466344Y445770D01*
X497205Y476631D01*
X241173Y532638D02*
X241300Y533400D01*
X497205Y476631D02*
X497840Y477520D01*
X164592Y573786D02*
X164592Y685800D01*
X164592Y573786D02*
X125730Y534924D01*
X125730Y529209D01*
X53721Y457200D01*
X38100Y457200D01*
X164592Y685800D02*
X165100Y685800D01*
M02*
