G04 EAGLE Gerber RS-274X export*
G75*
%MOMM*%
%FSLAX34Y34*%
%LPD*%
%INBottom Copper*%
%IPPOS*%
%AMOC8*
5,1,8,0,0,1.08239X$1,22.5*%
G01*
%ADD10P,1.732040X8X292.500000*%
%ADD11C,1.524000*%
%ADD12P,1.649562X8X202.500000*%
%ADD13P,1.632244X8X22.500000*%
%ADD14C,1.508000*%
%ADD15C,1.208000*%
%ADD16P,1.429621X8X202.500000*%
%ADD17C,2.400000*%
%ADD18C,0.457200*%
%ADD19C,0.152400*%
%ADD20C,0.756400*%

G36*
X700852Y-91422D02*
X700852Y-91422D01*
X700956Y-91411D01*
X700973Y-91403D01*
X700992Y-91400D01*
X701084Y-91351D01*
X701179Y-91306D01*
X701193Y-91293D01*
X701209Y-91284D01*
X701281Y-91209D01*
X701357Y-91137D01*
X701366Y-91120D01*
X701379Y-91106D01*
X701423Y-91011D01*
X701471Y-90919D01*
X701474Y-90900D01*
X701482Y-90883D01*
X701494Y-90779D01*
X701510Y-90676D01*
X701507Y-90657D01*
X701509Y-90639D01*
X701487Y-90537D01*
X701470Y-90434D01*
X701461Y-90417D01*
X701457Y-90398D01*
X701404Y-90309D01*
X701354Y-90216D01*
X701341Y-90203D01*
X701331Y-90187D01*
X701252Y-90119D01*
X701176Y-90048D01*
X701155Y-90037D01*
X701144Y-90027D01*
X701114Y-90015D01*
X701027Y-89969D01*
X690884Y-85988D01*
X681415Y-78437D01*
X674592Y-68430D01*
X671022Y-56856D01*
X671022Y-44744D01*
X674592Y-33170D01*
X675575Y-31729D01*
X675575Y-31728D01*
X676613Y-30206D01*
X678170Y-27922D01*
X679208Y-26400D01*
X680246Y-24877D01*
X681415Y-23163D01*
X690884Y-15612D01*
X702158Y-11187D01*
X714236Y-10281D01*
X716194Y-10728D01*
X719529Y-11490D01*
X722865Y-12251D01*
X726045Y-12977D01*
X736534Y-19033D01*
X744772Y-27911D01*
X750027Y-38823D01*
X750125Y-39476D01*
X750146Y-39539D01*
X750157Y-39605D01*
X750183Y-39656D01*
X750201Y-39710D01*
X750240Y-39764D01*
X750272Y-39823D01*
X750313Y-39862D01*
X750347Y-39908D01*
X750402Y-39946D01*
X750450Y-39992D01*
X750502Y-40016D01*
X750549Y-40049D01*
X750613Y-40067D01*
X750673Y-40096D01*
X750730Y-40102D01*
X750785Y-40118D01*
X750851Y-40115D01*
X750917Y-40123D01*
X750973Y-40110D01*
X751030Y-40108D01*
X751093Y-40085D01*
X751158Y-40070D01*
X751207Y-40041D01*
X751260Y-40021D01*
X751312Y-39978D01*
X751369Y-39944D01*
X751406Y-39901D01*
X751450Y-39865D01*
X751485Y-39808D01*
X751529Y-39757D01*
X751550Y-39704D01*
X751580Y-39656D01*
X751596Y-39591D01*
X751621Y-39529D01*
X751630Y-39449D01*
X751637Y-39417D01*
X751636Y-39389D01*
X751639Y-39362D01*
X751639Y623562D01*
X751628Y623628D01*
X751628Y623695D01*
X751609Y623749D01*
X751600Y623805D01*
X751568Y623864D01*
X751546Y623927D01*
X751511Y623972D01*
X751484Y624023D01*
X751436Y624068D01*
X751395Y624121D01*
X751348Y624153D01*
X751306Y624192D01*
X751246Y624220D01*
X751190Y624257D01*
X751135Y624271D01*
X751083Y624296D01*
X751017Y624303D01*
X750952Y624320D01*
X750895Y624316D01*
X750839Y624323D01*
X750773Y624308D01*
X750707Y624304D01*
X750654Y624282D01*
X750598Y624270D01*
X750541Y624236D01*
X750479Y624211D01*
X750436Y624173D01*
X750387Y624144D01*
X750344Y624093D01*
X750293Y624050D01*
X750264Y624001D01*
X750227Y623957D01*
X750202Y623895D01*
X750168Y623838D01*
X750148Y623760D01*
X750135Y623729D01*
X750132Y623702D01*
X750125Y623676D01*
X750027Y623023D01*
X744772Y612111D01*
X736534Y603233D01*
X726045Y597177D01*
X714237Y594482D01*
X702159Y595387D01*
X690884Y599812D01*
X681414Y607363D01*
X674592Y617370D01*
X671022Y628944D01*
X671022Y641056D01*
X674592Y652630D01*
X675114Y653396D01*
X675115Y653396D01*
X675115Y653397D01*
X676152Y654919D01*
X676153Y654919D01*
X677710Y657203D01*
X678748Y658725D01*
X679786Y660248D01*
X681343Y662531D01*
X681343Y662532D01*
X681415Y662637D01*
X690884Y670188D01*
X692619Y670869D01*
X692709Y670923D01*
X692801Y670972D01*
X692814Y670985D01*
X692830Y670995D01*
X692899Y671074D01*
X692970Y671150D01*
X692978Y671167D01*
X692991Y671182D01*
X693030Y671278D01*
X693074Y671373D01*
X693076Y671392D01*
X693083Y671410D01*
X693090Y671514D01*
X693101Y671617D01*
X693097Y671636D01*
X693098Y671655D01*
X693071Y671756D01*
X693049Y671858D01*
X693039Y671874D01*
X693034Y671892D01*
X692976Y671979D01*
X692923Y672069D01*
X692908Y672081D01*
X692898Y672097D01*
X692815Y672161D01*
X692736Y672229D01*
X692718Y672236D01*
X692703Y672248D01*
X692605Y672282D01*
X692508Y672321D01*
X692484Y672323D01*
X692471Y672328D01*
X692439Y672328D01*
X692341Y672339D01*
X69324Y672339D01*
X69277Y672332D01*
X69229Y672333D01*
X69156Y672312D01*
X69081Y672300D01*
X69039Y672277D01*
X68993Y672263D01*
X68931Y672220D01*
X68864Y672184D01*
X68831Y672150D01*
X68792Y672122D01*
X68747Y672061D01*
X68695Y672006D01*
X68674Y671963D01*
X68646Y671924D01*
X68623Y671852D01*
X68591Y671783D01*
X68586Y671735D01*
X68571Y671690D01*
X68572Y671614D01*
X68564Y671539D01*
X68574Y671492D01*
X68575Y671444D01*
X68600Y671372D01*
X68616Y671298D01*
X68641Y671257D01*
X68657Y671212D01*
X68704Y671152D01*
X68742Y671087D01*
X68779Y671056D01*
X68808Y671018D01*
X68912Y670942D01*
X68929Y670927D01*
X68935Y670925D01*
X68943Y670919D01*
X76134Y666767D01*
X84372Y657889D01*
X89627Y646977D01*
X91432Y635000D01*
X89627Y623023D01*
X84372Y612111D01*
X76134Y603232D01*
X65645Y597177D01*
X53836Y594481D01*
X41758Y595387D01*
X30484Y599812D01*
X21015Y607363D01*
X14192Y617370D01*
X11649Y625612D01*
X11645Y625621D01*
X11643Y625631D01*
X11591Y625731D01*
X11540Y625833D01*
X11533Y625840D01*
X11528Y625848D01*
X11446Y625926D01*
X11366Y626006D01*
X11357Y626011D01*
X11350Y626018D01*
X11247Y626065D01*
X11145Y626116D01*
X11136Y626117D01*
X11127Y626121D01*
X11014Y626134D01*
X10902Y626149D01*
X10892Y626147D01*
X10883Y626148D01*
X10771Y626124D01*
X10660Y626103D01*
X10652Y626098D01*
X10642Y626096D01*
X10545Y626038D01*
X10446Y625982D01*
X10439Y625975D01*
X10431Y625970D01*
X10357Y625884D01*
X10281Y625799D01*
X10278Y625790D01*
X10271Y625783D01*
X10229Y625677D01*
X10184Y625574D01*
X10183Y625564D01*
X10179Y625555D01*
X10161Y625388D01*
X10161Y548519D01*
X10161Y548516D01*
X10161Y548512D01*
X10181Y548394D01*
X10200Y548277D01*
X10202Y548273D01*
X10203Y548269D01*
X10260Y548165D01*
X10316Y548059D01*
X10318Y548057D01*
X10320Y548053D01*
X10408Y547971D01*
X10494Y547890D01*
X10498Y547888D01*
X10500Y547886D01*
X10609Y547837D01*
X10717Y547786D01*
X10721Y547786D01*
X10725Y547784D01*
X10844Y547772D01*
X10961Y547759D01*
X10965Y547760D01*
X10969Y547760D01*
X11085Y547786D01*
X11202Y547811D01*
X11205Y547814D01*
X11209Y547814D01*
X11309Y547876D01*
X11413Y547938D01*
X11416Y547941D01*
X11419Y547943D01*
X11495Y548033D01*
X11573Y548125D01*
X11574Y548128D01*
X11577Y548131D01*
X11646Y548284D01*
X11925Y549142D01*
X12964Y551181D01*
X14309Y553033D01*
X15927Y554651D01*
X17779Y555996D01*
X19818Y557035D01*
X21995Y557743D01*
X23877Y558041D01*
X23877Y544322D01*
X23880Y544302D01*
X23878Y544283D01*
X23900Y544181D01*
X23917Y544079D01*
X23926Y544062D01*
X23930Y544042D01*
X23983Y543953D01*
X24032Y543862D01*
X24046Y543848D01*
X24056Y543831D01*
X24135Y543764D01*
X24210Y543693D01*
X24228Y543684D01*
X24243Y543671D01*
X24339Y543633D01*
X24433Y543589D01*
X24453Y543587D01*
X24471Y543579D01*
X24638Y543561D01*
X25401Y543561D01*
X25401Y543559D01*
X24638Y543559D01*
X24618Y543556D01*
X24599Y543558D01*
X24497Y543536D01*
X24395Y543519D01*
X24378Y543510D01*
X24358Y543506D01*
X24269Y543453D01*
X24178Y543404D01*
X24164Y543390D01*
X24147Y543380D01*
X24080Y543301D01*
X24009Y543226D01*
X24000Y543208D01*
X23987Y543193D01*
X23948Y543097D01*
X23905Y543003D01*
X23903Y542983D01*
X23895Y542965D01*
X23877Y542798D01*
X23877Y529079D01*
X21995Y529377D01*
X19818Y530085D01*
X17779Y531124D01*
X15927Y532469D01*
X14309Y534087D01*
X12964Y535939D01*
X11925Y537978D01*
X11646Y538836D01*
X11644Y538839D01*
X11643Y538843D01*
X11588Y538948D01*
X11533Y539054D01*
X11530Y539057D01*
X11528Y539061D01*
X11442Y539142D01*
X11357Y539226D01*
X11353Y539227D01*
X11350Y539230D01*
X11242Y539280D01*
X11135Y539331D01*
X11131Y539332D01*
X11127Y539334D01*
X11010Y539347D01*
X10890Y539361D01*
X10886Y539360D01*
X10883Y539361D01*
X10767Y539336D01*
X10650Y539311D01*
X10646Y539309D01*
X10642Y539308D01*
X10540Y539247D01*
X10437Y539187D01*
X10434Y539184D01*
X10431Y539182D01*
X10353Y539091D01*
X10275Y539002D01*
X10274Y538998D01*
X10271Y538995D01*
X10226Y538884D01*
X10181Y538775D01*
X10181Y538771D01*
X10179Y538767D01*
X10161Y538601D01*
X10161Y473722D01*
X10168Y473675D01*
X10167Y473627D01*
X10188Y473554D01*
X10200Y473480D01*
X10223Y473437D01*
X10237Y473391D01*
X10280Y473329D01*
X10316Y473262D01*
X10350Y473229D01*
X10378Y473190D01*
X10439Y473145D01*
X10494Y473093D01*
X10537Y473073D01*
X10576Y473044D01*
X10648Y473021D01*
X10717Y472989D01*
X10765Y472984D01*
X10810Y472969D01*
X10886Y472970D01*
X10961Y472962D01*
X11008Y472972D01*
X11056Y472973D01*
X11128Y472998D01*
X11202Y473014D01*
X11243Y473039D01*
X11288Y473055D01*
X11348Y473102D01*
X11413Y473140D01*
X11444Y473177D01*
X11482Y473207D01*
X11558Y473310D01*
X11573Y473327D01*
X11575Y473334D01*
X11581Y473342D01*
X13453Y476584D01*
X21256Y484387D01*
X30813Y489905D01*
X41472Y492761D01*
X52508Y492761D01*
X63167Y489905D01*
X72724Y484387D01*
X80527Y476584D01*
X86045Y467027D01*
X88901Y456368D01*
X88901Y445332D01*
X86045Y434673D01*
X80527Y425116D01*
X72724Y417313D01*
X63167Y411795D01*
X52508Y408939D01*
X41472Y408939D01*
X30813Y411795D01*
X21256Y417313D01*
X13453Y425116D01*
X11581Y428358D01*
X11551Y428395D01*
X11528Y428438D01*
X11474Y428490D01*
X11425Y428549D01*
X11385Y428574D01*
X11350Y428607D01*
X11281Y428639D01*
X11217Y428679D01*
X11170Y428691D01*
X11127Y428711D01*
X11052Y428719D01*
X10978Y428737D01*
X10930Y428733D01*
X10883Y428738D01*
X10808Y428722D01*
X10733Y428715D01*
X10689Y428696D01*
X10642Y428686D01*
X10577Y428647D01*
X10508Y428616D01*
X10472Y428584D01*
X10431Y428560D01*
X10382Y428502D01*
X10326Y428451D01*
X10302Y428409D01*
X10271Y428373D01*
X10243Y428302D01*
X10206Y428236D01*
X10197Y428189D01*
X10179Y428144D01*
X10165Y428016D01*
X10161Y427994D01*
X10162Y427988D01*
X10161Y427978D01*
X10161Y-41188D01*
X10162Y-41198D01*
X10161Y-41207D01*
X10182Y-41319D01*
X10200Y-41431D01*
X10205Y-41439D01*
X10207Y-41449D01*
X10263Y-41548D01*
X10316Y-41648D01*
X10323Y-41655D01*
X10327Y-41663D01*
X10412Y-41739D01*
X10494Y-41818D01*
X10503Y-41822D01*
X10510Y-41828D01*
X10614Y-41873D01*
X10717Y-41921D01*
X10727Y-41922D01*
X10736Y-41926D01*
X10849Y-41936D01*
X10961Y-41948D01*
X10971Y-41946D01*
X10981Y-41947D01*
X11091Y-41920D01*
X11202Y-41896D01*
X11210Y-41891D01*
X11220Y-41889D01*
X11316Y-41828D01*
X11413Y-41770D01*
X11419Y-41762D01*
X11428Y-41757D01*
X11499Y-41669D01*
X11573Y-41583D01*
X11576Y-41574D01*
X11583Y-41566D01*
X11649Y-41412D01*
X14192Y-33170D01*
X15175Y-31729D01*
X15175Y-31728D01*
X16213Y-30206D01*
X17770Y-27922D01*
X18808Y-26400D01*
X19846Y-24877D01*
X21015Y-23163D01*
X30484Y-15612D01*
X41758Y-11187D01*
X53836Y-10281D01*
X55794Y-10728D01*
X59129Y-11490D01*
X62465Y-12251D01*
X65645Y-12977D01*
X76134Y-19033D01*
X84372Y-27911D01*
X89627Y-38823D01*
X91432Y-50800D01*
X89627Y-62777D01*
X84372Y-73689D01*
X76134Y-82567D01*
X65645Y-88623D01*
X59894Y-89936D01*
X59859Y-89950D01*
X59821Y-89957D01*
X59745Y-89996D01*
X59666Y-90029D01*
X59637Y-90054D01*
X59603Y-90072D01*
X59545Y-90134D01*
X59480Y-90189D01*
X59460Y-90222D01*
X59434Y-90250D01*
X59398Y-90327D01*
X59355Y-90401D01*
X59347Y-90438D01*
X59330Y-90473D01*
X59321Y-90558D01*
X59303Y-90641D01*
X59308Y-90679D01*
X59303Y-90717D01*
X59321Y-90801D01*
X59331Y-90886D01*
X59347Y-90920D01*
X59356Y-90958D01*
X59399Y-91031D01*
X59436Y-91108D01*
X59462Y-91136D01*
X59482Y-91169D01*
X59547Y-91224D01*
X59606Y-91286D01*
X59639Y-91304D01*
X59669Y-91329D01*
X59748Y-91361D01*
X59823Y-91400D01*
X59861Y-91406D01*
X59897Y-91421D01*
X60064Y-91439D01*
X700749Y-91439D01*
X700852Y-91422D01*
G37*
%LPC*%
G36*
X417522Y421639D02*
X417522Y421639D01*
X340909Y498251D01*
X340836Y498304D01*
X340766Y498364D01*
X340736Y498376D01*
X340710Y498395D01*
X340623Y498422D01*
X340538Y498456D01*
X340497Y498460D01*
X340475Y498467D01*
X340442Y498466D01*
X340371Y498474D01*
X332604Y498474D01*
X327024Y504054D01*
X327024Y511946D01*
X332604Y517526D01*
X340496Y517526D01*
X346076Y511946D01*
X346076Y504179D01*
X346090Y504089D01*
X346098Y503998D01*
X346110Y503968D01*
X346115Y503936D01*
X346158Y503855D01*
X346194Y503771D01*
X346220Y503739D01*
X346231Y503719D01*
X346254Y503696D01*
X346299Y503641D01*
X420456Y429484D01*
X420529Y429431D01*
X420599Y429371D01*
X420629Y429359D01*
X420655Y429340D01*
X420742Y429313D01*
X420827Y429279D01*
X420868Y429275D01*
X420890Y429268D01*
X420923Y429269D01*
X420994Y429261D01*
X658506Y429261D01*
X658596Y429275D01*
X658687Y429283D01*
X658717Y429295D01*
X658749Y429300D01*
X658830Y429343D01*
X658914Y429379D01*
X658946Y429405D01*
X658966Y429416D01*
X658989Y429439D01*
X659044Y429484D01*
X662462Y432902D01*
X662515Y432975D01*
X662575Y433045D01*
X662587Y433075D01*
X662606Y433101D01*
X662633Y433188D01*
X662667Y433273D01*
X662671Y433314D01*
X662678Y433336D01*
X662677Y433369D01*
X662685Y433440D01*
X662685Y436355D01*
X663837Y439135D01*
X665965Y441263D01*
X668098Y442147D01*
X668159Y442185D01*
X668225Y442214D01*
X668263Y442249D01*
X668307Y442276D01*
X668353Y442332D01*
X668406Y442380D01*
X668431Y442426D01*
X668464Y442466D01*
X668490Y442533D01*
X668524Y442596D01*
X668534Y442647D01*
X668552Y442695D01*
X668555Y442767D01*
X668568Y442838D01*
X668560Y442889D01*
X668563Y442941D01*
X668543Y443010D01*
X668532Y443081D01*
X668509Y443127D01*
X668494Y443177D01*
X668453Y443236D01*
X668421Y443300D01*
X668384Y443337D01*
X668354Y443379D01*
X668296Y443422D01*
X668245Y443472D01*
X668182Y443507D01*
X668157Y443526D01*
X668134Y443533D01*
X668098Y443553D01*
X665965Y444437D01*
X663837Y446565D01*
X662685Y449345D01*
X662685Y452355D01*
X663837Y455135D01*
X665965Y457263D01*
X666771Y457597D01*
X666832Y457635D01*
X666897Y457664D01*
X666936Y457699D01*
X666980Y457726D01*
X667026Y457782D01*
X667078Y457830D01*
X667103Y457876D01*
X667137Y457916D01*
X667162Y457983D01*
X667197Y458046D01*
X667206Y458097D01*
X667225Y458146D01*
X667228Y458217D01*
X667241Y458288D01*
X667233Y458339D01*
X667235Y458391D01*
X667215Y458460D01*
X667205Y458531D01*
X667181Y458578D01*
X667167Y458628D01*
X667126Y458686D01*
X667093Y458750D01*
X667056Y458787D01*
X667026Y458830D01*
X666969Y458872D01*
X666918Y458923D01*
X666855Y458957D01*
X666829Y458976D01*
X666807Y458984D01*
X666771Y459003D01*
X666185Y459246D01*
X664780Y460185D01*
X663585Y461380D01*
X662646Y462785D01*
X661999Y464347D01*
X661804Y465327D01*
X669488Y465327D01*
X669508Y465330D01*
X669527Y465328D01*
X669629Y465350D01*
X669731Y465367D01*
X669748Y465376D01*
X669768Y465380D01*
X669857Y465433D01*
X669948Y465482D01*
X669962Y465496D01*
X669979Y465506D01*
X670046Y465585D01*
X670117Y465660D01*
X670126Y465678D01*
X670139Y465693D01*
X670177Y465789D01*
X670221Y465883D01*
X670223Y465903D01*
X670231Y465921D01*
X670249Y466088D01*
X670249Y466851D01*
X670251Y466851D01*
X670251Y466088D01*
X670254Y466068D01*
X670252Y466049D01*
X670274Y465947D01*
X670291Y465845D01*
X670300Y465828D01*
X670304Y465808D01*
X670357Y465719D01*
X670406Y465628D01*
X670420Y465614D01*
X670430Y465597D01*
X670509Y465530D01*
X670584Y465459D01*
X670602Y465450D01*
X670617Y465437D01*
X670713Y465398D01*
X670807Y465355D01*
X670827Y465353D01*
X670845Y465345D01*
X671012Y465327D01*
X677967Y465327D01*
X678032Y465337D01*
X678097Y465338D01*
X678178Y465361D01*
X678210Y465367D01*
X678227Y465376D01*
X678259Y465385D01*
X680745Y466415D01*
X683755Y466415D01*
X686535Y465263D01*
X688663Y463135D01*
X689815Y460355D01*
X689815Y457345D01*
X688663Y454565D01*
X686535Y452437D01*
X684402Y451553D01*
X684341Y451515D01*
X684275Y451486D01*
X684237Y451451D01*
X684193Y451424D01*
X684147Y451368D01*
X684094Y451320D01*
X684069Y451274D01*
X684036Y451234D01*
X684010Y451167D01*
X683976Y451104D01*
X683966Y451053D01*
X683948Y451005D01*
X683945Y450933D01*
X683932Y450862D01*
X683940Y450811D01*
X683937Y450759D01*
X683957Y450690D01*
X683968Y450619D01*
X683991Y450573D01*
X684006Y450523D01*
X684047Y450464D01*
X684079Y450400D01*
X684116Y450363D01*
X684146Y450321D01*
X684204Y450278D01*
X684255Y450228D01*
X684318Y450193D01*
X684343Y450174D01*
X684366Y450167D01*
X684402Y450147D01*
X686535Y449263D01*
X688663Y447135D01*
X689815Y444355D01*
X689815Y441345D01*
X688663Y438565D01*
X686535Y436437D01*
X683755Y435285D01*
X680745Y435285D01*
X678867Y436063D01*
X678823Y436074D01*
X678781Y436093D01*
X678704Y436102D01*
X678628Y436119D01*
X678582Y436115D01*
X678537Y436120D01*
X678460Y436104D01*
X678383Y436096D01*
X678341Y436078D01*
X678296Y436068D01*
X678229Y436028D01*
X678158Y435996D01*
X678124Y435965D01*
X678085Y435942D01*
X678034Y435883D01*
X677977Y435830D01*
X677955Y435790D01*
X677925Y435755D01*
X677896Y435683D01*
X677859Y435614D01*
X677850Y435569D01*
X677843Y435552D01*
X677843Y435551D01*
X677843Y435550D01*
X677833Y435527D01*
X677818Y435391D01*
X677815Y435372D01*
X677816Y435367D01*
X677815Y435360D01*
X677815Y433345D01*
X676663Y430565D01*
X674535Y428437D01*
X671755Y427285D01*
X668745Y427285D01*
X668423Y427419D01*
X668310Y427445D01*
X668196Y427474D01*
X668189Y427474D01*
X668183Y427475D01*
X668067Y427464D01*
X667950Y427455D01*
X667945Y427453D01*
X667938Y427452D01*
X667831Y427404D01*
X667724Y427359D01*
X667718Y427354D01*
X667714Y427352D01*
X667700Y427339D01*
X667593Y427254D01*
X661978Y421639D01*
X417522Y421639D01*
G37*
%LPD*%
%LPC*%
G36*
X161345Y219535D02*
X161345Y219535D01*
X156035Y224845D01*
X156035Y232355D01*
X161345Y237665D01*
X162052Y237665D01*
X162072Y237668D01*
X162091Y237666D01*
X162193Y237688D01*
X162295Y237704D01*
X162312Y237714D01*
X162332Y237718D01*
X162421Y237771D01*
X162512Y237820D01*
X162526Y237834D01*
X162543Y237844D01*
X162610Y237923D01*
X162682Y237998D01*
X162690Y238016D01*
X162703Y238031D01*
X162742Y238127D01*
X162785Y238221D01*
X162787Y238241D01*
X162795Y238259D01*
X162813Y238426D01*
X162813Y339852D01*
X162810Y339872D01*
X162812Y339891D01*
X162790Y339993D01*
X162774Y340095D01*
X162764Y340112D01*
X162760Y340132D01*
X162707Y340221D01*
X162658Y340312D01*
X162644Y340326D01*
X162634Y340343D01*
X162555Y340410D01*
X162480Y340482D01*
X162462Y340490D01*
X162447Y340503D01*
X162351Y340542D01*
X162257Y340585D01*
X162237Y340587D01*
X162219Y340595D01*
X162052Y340613D01*
X145103Y340613D01*
X116596Y369120D01*
X116522Y369173D01*
X116452Y369233D01*
X116422Y369245D01*
X116396Y369264D01*
X116309Y369291D01*
X116224Y369325D01*
X116183Y369329D01*
X116161Y369336D01*
X116129Y369335D01*
X116057Y369343D01*
X112102Y369343D01*
X108993Y372452D01*
X108993Y376848D01*
X112102Y379957D01*
X116498Y379957D01*
X119607Y376848D01*
X119607Y372893D01*
X119608Y372885D01*
X119608Y372884D01*
X119609Y372876D01*
X119621Y372802D01*
X119629Y372712D01*
X119641Y372682D01*
X119646Y372650D01*
X119689Y372569D01*
X119725Y372485D01*
X119751Y372453D01*
X119762Y372432D01*
X119785Y372410D01*
X119830Y372354D01*
X145794Y346390D01*
X145852Y346348D01*
X145904Y346299D01*
X145951Y346277D01*
X145993Y346247D01*
X146062Y346226D01*
X146127Y346195D01*
X146179Y346190D01*
X146229Y346174D01*
X146300Y346176D01*
X146371Y346168D01*
X146422Y346179D01*
X146474Y346181D01*
X146542Y346205D01*
X146612Y346220D01*
X146657Y346247D01*
X146705Y346265D01*
X146761Y346310D01*
X146823Y346347D01*
X146857Y346386D01*
X146897Y346419D01*
X146936Y346479D01*
X146983Y346534D01*
X147002Y346582D01*
X147030Y346626D01*
X147048Y346695D01*
X147075Y346762D01*
X147083Y346833D01*
X147091Y346864D01*
X147089Y346888D01*
X147093Y346928D01*
X147093Y351448D01*
X150202Y354557D01*
X154157Y354557D01*
X154248Y354571D01*
X154338Y354579D01*
X154368Y354591D01*
X154400Y354596D01*
X154481Y354639D01*
X154565Y354675D01*
X154597Y354701D01*
X154618Y354712D01*
X154640Y354735D01*
X154696Y354780D01*
X219740Y419824D01*
X219793Y419898D01*
X219853Y419968D01*
X219865Y419998D01*
X219884Y420024D01*
X219911Y420111D01*
X219945Y420196D01*
X219949Y420237D01*
X219956Y420259D01*
X219955Y420291D01*
X219963Y420363D01*
X219963Y612394D01*
X219960Y612414D01*
X219962Y612433D01*
X219940Y612535D01*
X219924Y612637D01*
X219914Y612654D01*
X219910Y612674D01*
X219857Y612763D01*
X219808Y612854D01*
X219794Y612868D01*
X219784Y612885D01*
X219705Y612952D01*
X219630Y613024D01*
X219612Y613032D01*
X219597Y613045D01*
X219501Y613084D01*
X219407Y613127D01*
X219387Y613129D01*
X219369Y613137D01*
X219202Y613155D01*
X212112Y613155D01*
X206755Y618512D01*
X206755Y626088D01*
X212112Y631445D01*
X219688Y631445D01*
X225045Y626088D01*
X225045Y618512D01*
X224760Y618227D01*
X224707Y618153D01*
X224647Y618084D01*
X224635Y618054D01*
X224616Y618027D01*
X224589Y617940D01*
X224555Y617856D01*
X224551Y617815D01*
X224544Y617792D01*
X224545Y617760D01*
X224537Y617689D01*
X224537Y449779D01*
X224538Y449772D01*
X224538Y449770D01*
X224540Y449761D01*
X224548Y449709D01*
X224550Y449637D01*
X224568Y449588D01*
X224576Y449537D01*
X224610Y449473D01*
X224635Y449406D01*
X224667Y449365D01*
X224692Y449319D01*
X224744Y449270D01*
X224788Y449214D01*
X224832Y449186D01*
X224870Y449150D01*
X224935Y449120D01*
X224995Y449081D01*
X225046Y449068D01*
X225093Y449046D01*
X225164Y449038D01*
X225234Y449021D01*
X225286Y449025D01*
X225337Y449019D01*
X225408Y449034D01*
X225479Y449040D01*
X225527Y449060D01*
X225578Y449071D01*
X225639Y449108D01*
X225705Y449136D01*
X225761Y449181D01*
X225789Y449198D01*
X225804Y449215D01*
X225836Y449241D01*
X226402Y449807D01*
X230357Y449807D01*
X230448Y449821D01*
X230538Y449829D01*
X230568Y449841D01*
X230600Y449846D01*
X230681Y449889D01*
X230765Y449925D01*
X230797Y449951D01*
X230818Y449962D01*
X230820Y449964D01*
X230840Y449985D01*
X230896Y450030D01*
X267520Y486654D01*
X267573Y486728D01*
X267633Y486798D01*
X267645Y486828D01*
X267664Y486854D01*
X267691Y486941D01*
X267725Y487026D01*
X267729Y487067D01*
X267736Y487089D01*
X267735Y487121D01*
X267743Y487193D01*
X267743Y491148D01*
X270852Y494257D01*
X275248Y494257D01*
X278357Y491148D01*
X278357Y486752D01*
X275248Y483643D01*
X271293Y483643D01*
X271202Y483629D01*
X271112Y483621D01*
X271082Y483609D01*
X271050Y483604D01*
X270969Y483561D01*
X270885Y483525D01*
X270853Y483499D01*
X270832Y483488D01*
X270810Y483465D01*
X270754Y483420D01*
X234130Y446796D01*
X234077Y446722D01*
X234017Y446652D01*
X234005Y446622D01*
X233986Y446596D01*
X233959Y446509D01*
X233925Y446424D01*
X233921Y446383D01*
X233914Y446361D01*
X233915Y446329D01*
X233907Y446257D01*
X233907Y442302D01*
X230798Y439193D01*
X226402Y439193D01*
X225836Y439759D01*
X225778Y439801D01*
X225726Y439850D01*
X225679Y439872D01*
X225637Y439902D01*
X225568Y439924D01*
X225503Y439954D01*
X225451Y439959D01*
X225401Y439975D01*
X225330Y439973D01*
X225259Y439981D01*
X225208Y439970D01*
X225156Y439968D01*
X225088Y439944D01*
X225018Y439929D01*
X224973Y439902D01*
X224925Y439884D01*
X224869Y439839D01*
X224807Y439802D01*
X224773Y439763D01*
X224733Y439730D01*
X224694Y439670D01*
X224647Y439615D01*
X224628Y439567D01*
X224600Y439523D01*
X224582Y439454D01*
X224555Y439387D01*
X224547Y439316D01*
X224539Y439285D01*
X224541Y439262D01*
X224537Y439221D01*
X224537Y418153D01*
X157930Y351546D01*
X157877Y351472D01*
X157817Y351402D01*
X157805Y351372D01*
X157786Y351346D01*
X157759Y351259D01*
X157725Y351174D01*
X157721Y351133D01*
X157714Y351111D01*
X157715Y351079D01*
X157707Y351007D01*
X157707Y347052D01*
X157141Y346486D01*
X157099Y346428D01*
X157050Y346376D01*
X157028Y346329D01*
X156998Y346287D01*
X156976Y346218D01*
X156946Y346153D01*
X156941Y346101D01*
X156925Y346051D01*
X156927Y345980D01*
X156919Y345909D01*
X156930Y345858D01*
X156932Y345806D01*
X156956Y345738D01*
X156971Y345668D01*
X156998Y345623D01*
X157016Y345575D01*
X157061Y345519D01*
X157098Y345457D01*
X157137Y345423D01*
X157170Y345383D01*
X157230Y345344D01*
X157285Y345297D01*
X157333Y345278D01*
X157377Y345250D01*
X157446Y345232D01*
X157513Y345205D01*
X157584Y345197D01*
X157615Y345189D01*
X157638Y345191D01*
X157679Y345187D01*
X166047Y345187D01*
X167387Y343847D01*
X167387Y238426D01*
X167390Y238406D01*
X167388Y238387D01*
X167410Y238285D01*
X167426Y238183D01*
X167436Y238166D01*
X167440Y238146D01*
X167493Y238057D01*
X167542Y237966D01*
X167556Y237952D01*
X167566Y237935D01*
X167645Y237868D01*
X167720Y237796D01*
X167738Y237788D01*
X167753Y237775D01*
X167849Y237736D01*
X167943Y237693D01*
X167963Y237691D01*
X167981Y237683D01*
X168148Y237665D01*
X168855Y237665D01*
X174165Y232355D01*
X174165Y224845D01*
X168855Y219535D01*
X161345Y219535D01*
G37*
%LPD*%
%LPC*%
G36*
X175602Y394743D02*
X175602Y394743D01*
X172493Y397852D01*
X172493Y401807D01*
X172479Y401898D01*
X172471Y401988D01*
X172459Y402018D01*
X172454Y402050D01*
X172411Y402131D01*
X172375Y402215D01*
X172349Y402247D01*
X172338Y402268D01*
X172315Y402290D01*
X172270Y402346D01*
X143763Y430853D01*
X143763Y612394D01*
X143760Y612414D01*
X143762Y612433D01*
X143740Y612535D01*
X143724Y612637D01*
X143714Y612654D01*
X143710Y612674D01*
X143657Y612763D01*
X143608Y612854D01*
X143594Y612868D01*
X143584Y612885D01*
X143505Y612952D01*
X143430Y613024D01*
X143412Y613032D01*
X143397Y613045D01*
X143301Y613084D01*
X143207Y613127D01*
X143187Y613129D01*
X143169Y613137D01*
X143002Y613155D01*
X135912Y613155D01*
X130555Y618512D01*
X130555Y626088D01*
X135912Y631445D01*
X143488Y631445D01*
X148845Y626088D01*
X148845Y618512D01*
X148560Y618227D01*
X148507Y618153D01*
X148447Y618084D01*
X148435Y618054D01*
X148416Y618027D01*
X148389Y617940D01*
X148355Y617856D01*
X148351Y617815D01*
X148344Y617792D01*
X148345Y617760D01*
X148337Y617689D01*
X148337Y433063D01*
X148340Y433041D01*
X148338Y433023D01*
X148353Y432956D01*
X148359Y432882D01*
X148371Y432852D01*
X148376Y432820D01*
X148386Y432801D01*
X148391Y432782D01*
X148426Y432722D01*
X148455Y432655D01*
X148481Y432623D01*
X148492Y432602D01*
X148506Y432588D01*
X148517Y432571D01*
X148534Y432556D01*
X148560Y432524D01*
X171194Y409890D01*
X171252Y409848D01*
X171304Y409799D01*
X171351Y409777D01*
X171393Y409747D01*
X171462Y409726D01*
X171527Y409695D01*
X171579Y409690D01*
X171629Y409674D01*
X171700Y409676D01*
X171771Y409668D01*
X171822Y409679D01*
X171874Y409681D01*
X171942Y409705D01*
X172012Y409720D01*
X172057Y409747D01*
X172105Y409765D01*
X172161Y409810D01*
X172223Y409847D01*
X172257Y409886D01*
X172297Y409919D01*
X172336Y409979D01*
X172383Y410034D01*
X172402Y410082D01*
X172430Y410126D01*
X172448Y410195D01*
X172475Y410262D01*
X172483Y410333D01*
X172491Y410364D01*
X172489Y410388D01*
X172493Y410428D01*
X172493Y414507D01*
X172479Y414598D01*
X172471Y414688D01*
X172459Y414718D01*
X172454Y414750D01*
X172411Y414831D01*
X172375Y414915D01*
X172349Y414947D01*
X172338Y414968D01*
X172315Y414990D01*
X172270Y415046D01*
X169163Y418153D01*
X169163Y612394D01*
X169160Y612414D01*
X169162Y612433D01*
X169140Y612535D01*
X169124Y612637D01*
X169114Y612654D01*
X169110Y612674D01*
X169057Y612763D01*
X169008Y612854D01*
X168994Y612868D01*
X168984Y612885D01*
X168905Y612952D01*
X168830Y613024D01*
X168812Y613032D01*
X168797Y613045D01*
X168701Y613084D01*
X168607Y613127D01*
X168587Y613129D01*
X168569Y613137D01*
X168402Y613155D01*
X161312Y613155D01*
X155955Y618512D01*
X155955Y626088D01*
X161312Y631445D01*
X168888Y631445D01*
X174245Y626088D01*
X174245Y618512D01*
X173960Y618227D01*
X173907Y618153D01*
X173847Y618084D01*
X173835Y618054D01*
X173816Y618027D01*
X173789Y617940D01*
X173755Y617856D01*
X173751Y617815D01*
X173744Y617792D01*
X173745Y617760D01*
X173737Y617689D01*
X173737Y420363D01*
X173751Y420272D01*
X173759Y420182D01*
X173771Y420152D01*
X173776Y420120D01*
X173819Y420039D01*
X173855Y419955D01*
X173881Y419923D01*
X173892Y419902D01*
X173915Y419880D01*
X173960Y419824D01*
X175504Y418280D01*
X175578Y418227D01*
X175648Y418167D01*
X175678Y418155D01*
X175704Y418136D01*
X175791Y418109D01*
X175876Y418075D01*
X175917Y418071D01*
X175939Y418064D01*
X175971Y418065D01*
X176043Y418057D01*
X179998Y418057D01*
X183107Y414948D01*
X183107Y410552D01*
X179998Y407443D01*
X175478Y407443D01*
X175408Y407432D01*
X175336Y407430D01*
X175287Y407412D01*
X175236Y407404D01*
X175172Y407370D01*
X175105Y407345D01*
X175064Y407313D01*
X175018Y407288D01*
X174969Y407236D01*
X174913Y407192D01*
X174885Y407148D01*
X174849Y407110D01*
X174819Y407045D01*
X174780Y406985D01*
X174767Y406934D01*
X174745Y406887D01*
X174737Y406816D01*
X174720Y406746D01*
X174724Y406694D01*
X174718Y406643D01*
X174733Y406572D01*
X174739Y406501D01*
X174759Y406453D01*
X174770Y406402D01*
X174807Y406341D01*
X174835Y406275D01*
X174880Y406219D01*
X174897Y406191D01*
X174914Y406176D01*
X174940Y406144D01*
X175504Y405580D01*
X175578Y405526D01*
X175648Y405467D01*
X175678Y405455D01*
X175704Y405436D01*
X175791Y405409D01*
X175876Y405375D01*
X175917Y405371D01*
X175939Y405364D01*
X175971Y405365D01*
X176043Y405357D01*
X179998Y405357D01*
X183107Y402248D01*
X183107Y397852D01*
X179998Y394743D01*
X175602Y394743D01*
G37*
%LPD*%
%LPC*%
G36*
X523683Y487171D02*
X523683Y487171D01*
X518921Y491933D01*
X518921Y498667D01*
X519147Y498893D01*
X519159Y498909D01*
X519174Y498921D01*
X519230Y499008D01*
X519290Y499092D01*
X519296Y499111D01*
X519307Y499128D01*
X519332Y499229D01*
X519363Y499327D01*
X519362Y499347D01*
X519367Y499367D01*
X519359Y499470D01*
X519356Y499573D01*
X519350Y499592D01*
X519348Y499612D01*
X519308Y499707D01*
X519272Y499804D01*
X519259Y499820D01*
X519252Y499838D01*
X519147Y499969D01*
X507276Y511840D01*
X507202Y511893D01*
X507132Y511953D01*
X507102Y511965D01*
X507076Y511984D01*
X506989Y512011D01*
X506904Y512045D01*
X506863Y512049D01*
X506841Y512056D01*
X506809Y512055D01*
X506737Y512063D01*
X411933Y512063D01*
X411843Y512049D01*
X411752Y512041D01*
X411723Y512029D01*
X411691Y512024D01*
X411610Y511981D01*
X411526Y511945D01*
X411494Y511919D01*
X411473Y511908D01*
X411451Y511885D01*
X411395Y511840D01*
X408598Y509043D01*
X404202Y509043D01*
X401405Y511840D01*
X401331Y511893D01*
X401261Y511953D01*
X401231Y511965D01*
X401205Y511984D01*
X401118Y512011D01*
X401033Y512045D01*
X400992Y512049D01*
X400970Y512056D01*
X400938Y512055D01*
X400867Y512063D01*
X354653Y512063D01*
X249863Y616853D01*
X249846Y616865D01*
X249834Y616881D01*
X249747Y616937D01*
X249663Y616997D01*
X249644Y617003D01*
X249627Y617014D01*
X249527Y617039D01*
X249428Y617069D01*
X249408Y617069D01*
X249389Y617074D01*
X249286Y617066D01*
X249182Y617063D01*
X249163Y617056D01*
X249143Y617055D01*
X249049Y617014D01*
X248951Y616979D01*
X248935Y616966D01*
X248917Y616958D01*
X248786Y616853D01*
X245088Y613155D01*
X237512Y613155D01*
X232155Y618512D01*
X232155Y626088D01*
X237512Y631445D01*
X245088Y631445D01*
X250445Y626088D01*
X250445Y623054D01*
X250459Y622964D01*
X250467Y622873D01*
X250479Y622844D01*
X250484Y622812D01*
X250527Y622731D01*
X250563Y622647D01*
X250589Y622615D01*
X250600Y622594D01*
X250623Y622572D01*
X250668Y622516D01*
X356324Y516860D01*
X356398Y516807D01*
X356468Y516747D01*
X356498Y516735D01*
X356524Y516716D01*
X356611Y516689D01*
X356696Y516655D01*
X356737Y516651D01*
X356759Y516644D01*
X356791Y516645D01*
X356863Y516637D01*
X400867Y516637D01*
X400957Y516651D01*
X401048Y516659D01*
X401077Y516671D01*
X401109Y516676D01*
X401190Y516719D01*
X401274Y516755D01*
X401306Y516781D01*
X401327Y516792D01*
X401349Y516815D01*
X401405Y516860D01*
X404202Y519657D01*
X408598Y519657D01*
X411395Y516860D01*
X411469Y516807D01*
X411539Y516747D01*
X411569Y516735D01*
X411595Y516716D01*
X411682Y516689D01*
X411767Y516655D01*
X411808Y516651D01*
X411830Y516644D01*
X411862Y516645D01*
X411933Y516637D01*
X508947Y516637D01*
X510510Y515074D01*
X522381Y503203D01*
X522397Y503191D01*
X522409Y503176D01*
X522497Y503120D01*
X522581Y503060D01*
X522600Y503054D01*
X522616Y503043D01*
X522717Y503018D01*
X522816Y502987D01*
X522836Y502988D01*
X522855Y502983D01*
X522958Y502991D01*
X523061Y502994D01*
X523080Y503000D01*
X523100Y503002D01*
X523195Y503042D01*
X523293Y503078D01*
X523308Y503091D01*
X523326Y503098D01*
X523457Y503203D01*
X523683Y503429D01*
X530417Y503429D01*
X535179Y498667D01*
X535179Y491933D01*
X530417Y487171D01*
X523683Y487171D01*
G37*
%LPD*%
%LPC*%
G36*
X378802Y591593D02*
X378802Y591593D01*
X375693Y594702D01*
X375693Y599098D01*
X378490Y601895D01*
X378543Y601969D01*
X378603Y602039D01*
X378615Y602069D01*
X378634Y602095D01*
X378661Y602182D01*
X378695Y602267D01*
X378699Y602308D01*
X378706Y602330D01*
X378705Y602362D01*
X378713Y602433D01*
X378713Y617943D01*
X378702Y618014D01*
X378700Y618085D01*
X378682Y618134D01*
X378674Y618186D01*
X378640Y618249D01*
X378615Y618316D01*
X378583Y618357D01*
X378558Y618403D01*
X378506Y618452D01*
X378462Y618508D01*
X378418Y618537D01*
X378380Y618572D01*
X378315Y618603D01*
X378255Y618641D01*
X378204Y618654D01*
X378157Y618676D01*
X378086Y618684D01*
X378016Y618701D01*
X377964Y618697D01*
X377913Y618703D01*
X377842Y618688D01*
X377771Y618682D01*
X377723Y618662D01*
X377672Y618651D01*
X377611Y618614D01*
X377545Y618586D01*
X377489Y618541D01*
X377461Y618525D01*
X377446Y618507D01*
X377414Y618481D01*
X372088Y613155D01*
X364512Y613155D01*
X359155Y618512D01*
X359155Y626088D01*
X364481Y631414D01*
X364523Y631472D01*
X364572Y631524D01*
X364594Y631571D01*
X364625Y631613D01*
X364646Y631682D01*
X364676Y631747D01*
X364682Y631799D01*
X364697Y631849D01*
X364695Y631920D01*
X364703Y631991D01*
X364692Y632042D01*
X364691Y632094D01*
X364666Y632162D01*
X364651Y632232D01*
X364624Y632277D01*
X364606Y632325D01*
X364561Y632381D01*
X364525Y632443D01*
X364485Y632477D01*
X364453Y632517D01*
X364392Y632556D01*
X364338Y632603D01*
X364289Y632622D01*
X364246Y632650D01*
X364176Y632668D01*
X364110Y632695D01*
X364038Y632703D01*
X364007Y632711D01*
X363984Y632709D01*
X363943Y632713D01*
X361003Y632713D01*
X351463Y642253D01*
X351446Y642265D01*
X351434Y642281D01*
X351347Y642337D01*
X351263Y642397D01*
X351244Y642403D01*
X351227Y642414D01*
X351127Y642439D01*
X351028Y642469D01*
X351008Y642469D01*
X350989Y642474D01*
X350886Y642466D01*
X350782Y642463D01*
X350763Y642456D01*
X350743Y642455D01*
X350648Y642414D01*
X350551Y642379D01*
X350535Y642366D01*
X350517Y642358D01*
X350386Y642253D01*
X346688Y638555D01*
X339112Y638555D01*
X333755Y643912D01*
X333755Y651488D01*
X339112Y656845D01*
X346688Y656845D01*
X352045Y651488D01*
X352045Y648455D01*
X352059Y648364D01*
X352067Y648274D01*
X352079Y648244D01*
X352084Y648212D01*
X352127Y648131D01*
X352163Y648047D01*
X352189Y648015D01*
X352200Y647994D01*
X352223Y647972D01*
X352268Y647916D01*
X362674Y637510D01*
X362748Y637457D01*
X362818Y637397D01*
X362848Y637385D01*
X362874Y637366D01*
X362961Y637339D01*
X363046Y637305D01*
X363087Y637301D01*
X363109Y637294D01*
X363141Y637295D01*
X363213Y637287D01*
X363943Y637287D01*
X364014Y637298D01*
X364085Y637300D01*
X364134Y637318D01*
X364186Y637326D01*
X364249Y637360D01*
X364316Y637385D01*
X364357Y637417D01*
X364403Y637442D01*
X364452Y637494D01*
X364508Y637538D01*
X364537Y637582D01*
X364572Y637620D01*
X364603Y637685D01*
X364641Y637745D01*
X364654Y637796D01*
X364676Y637843D01*
X364684Y637914D01*
X364701Y637984D01*
X364697Y638036D01*
X364703Y638087D01*
X364688Y638158D01*
X364682Y638229D01*
X364662Y638277D01*
X364651Y638328D01*
X364614Y638389D01*
X364586Y638455D01*
X364541Y638511D01*
X364525Y638539D01*
X364507Y638554D01*
X364481Y638586D01*
X359155Y643912D01*
X359155Y651488D01*
X364512Y656845D01*
X372088Y656845D01*
X377445Y651488D01*
X377445Y643912D01*
X372119Y638586D01*
X372077Y638528D01*
X372028Y638476D01*
X372006Y638429D01*
X371975Y638387D01*
X371954Y638318D01*
X371924Y638253D01*
X371918Y638201D01*
X371903Y638151D01*
X371905Y638080D01*
X371897Y638009D01*
X371908Y637958D01*
X371909Y637906D01*
X371934Y637838D01*
X371949Y637768D01*
X371976Y637723D01*
X371994Y637675D01*
X372039Y637619D01*
X372075Y637557D01*
X372115Y637523D01*
X372147Y637483D01*
X372208Y637444D01*
X372262Y637397D01*
X372311Y637378D01*
X372354Y637350D01*
X372424Y637332D01*
X372490Y637305D01*
X372562Y637297D01*
X372593Y637289D01*
X372616Y637291D01*
X372657Y637287D01*
X381947Y637287D01*
X383287Y635947D01*
X383287Y626657D01*
X383298Y626586D01*
X383300Y626515D01*
X383318Y626466D01*
X383326Y626414D01*
X383360Y626351D01*
X383385Y626284D01*
X383417Y626243D01*
X383442Y626197D01*
X383494Y626148D01*
X383538Y626092D01*
X383582Y626063D01*
X383620Y626028D01*
X383685Y625997D01*
X383745Y625959D01*
X383796Y625946D01*
X383843Y625924D01*
X383914Y625916D01*
X383984Y625899D01*
X384036Y625903D01*
X384087Y625897D01*
X384158Y625912D01*
X384229Y625918D01*
X384277Y625938D01*
X384328Y625949D01*
X384389Y625986D01*
X384455Y626014D01*
X384511Y626059D01*
X384539Y626075D01*
X384554Y626093D01*
X384586Y626119D01*
X389912Y631445D01*
X397488Y631445D01*
X402845Y626088D01*
X402845Y618512D01*
X397488Y613155D01*
X389912Y613155D01*
X384586Y618481D01*
X384528Y618523D01*
X384476Y618572D01*
X384429Y618594D01*
X384387Y618625D01*
X384318Y618646D01*
X384253Y618676D01*
X384201Y618682D01*
X384151Y618697D01*
X384080Y618695D01*
X384009Y618703D01*
X383958Y618692D01*
X383906Y618691D01*
X383838Y618666D01*
X383768Y618651D01*
X383723Y618624D01*
X383675Y618606D01*
X383619Y618561D01*
X383557Y618525D01*
X383523Y618485D01*
X383483Y618453D01*
X383444Y618392D01*
X383397Y618338D01*
X383378Y618289D01*
X383350Y618246D01*
X383332Y618176D01*
X383305Y618110D01*
X383297Y618038D01*
X383289Y618007D01*
X383291Y617984D01*
X383287Y617943D01*
X383287Y602433D01*
X383301Y602343D01*
X383309Y602252D01*
X383321Y602223D01*
X383326Y602191D01*
X383369Y602110D01*
X383405Y602026D01*
X383431Y601994D01*
X383442Y601973D01*
X383465Y601951D01*
X383510Y601895D01*
X386307Y599098D01*
X386307Y594702D01*
X383198Y591593D01*
X378802Y591593D01*
G37*
%LPD*%
%LPC*%
G36*
X447483Y385571D02*
X447483Y385571D01*
X443388Y389666D01*
X443314Y389719D01*
X443245Y389779D01*
X443214Y389791D01*
X443188Y389810D01*
X443101Y389837D01*
X443016Y389871D01*
X442975Y389875D01*
X442953Y389882D01*
X442921Y389881D01*
X442850Y389889D01*
X347672Y389889D01*
X340909Y396651D01*
X340836Y396704D01*
X340766Y396764D01*
X340736Y396776D01*
X340710Y396795D01*
X340623Y396822D01*
X340538Y396856D01*
X340497Y396860D01*
X340475Y396867D01*
X340442Y396866D01*
X340371Y396874D01*
X332604Y396874D01*
X327024Y402454D01*
X327024Y410346D01*
X332604Y415926D01*
X340496Y415926D01*
X346076Y410346D01*
X346076Y402579D01*
X346090Y402489D01*
X346098Y402398D01*
X346110Y402368D01*
X346115Y402336D01*
X346158Y402255D01*
X346194Y402171D01*
X346220Y402139D01*
X346231Y402119D01*
X346254Y402096D01*
X346299Y402041D01*
X350606Y397734D01*
X350679Y397681D01*
X350749Y397621D01*
X350779Y397609D01*
X350805Y397590D01*
X350892Y397563D01*
X350977Y397529D01*
X351018Y397525D01*
X351040Y397518D01*
X351073Y397519D01*
X351144Y397511D01*
X442850Y397511D01*
X442940Y397525D01*
X443031Y397533D01*
X443060Y397545D01*
X443092Y397550D01*
X443173Y397593D01*
X443257Y397629D01*
X443289Y397655D01*
X443310Y397666D01*
X443332Y397689D01*
X443388Y397734D01*
X447483Y401829D01*
X454217Y401829D01*
X458979Y397067D01*
X458979Y390333D01*
X454217Y385571D01*
X447483Y385571D01*
G37*
%LPD*%
%LPC*%
G36*
X135945Y219535D02*
X135945Y219535D01*
X130635Y224845D01*
X130635Y232355D01*
X131135Y232854D01*
X131147Y232871D01*
X131162Y232883D01*
X131218Y232970D01*
X131279Y233054D01*
X131284Y233073D01*
X131295Y233090D01*
X131321Y233190D01*
X131351Y233289D01*
X131350Y233309D01*
X131355Y233329D01*
X131347Y233432D01*
X131345Y233535D01*
X131338Y233554D01*
X131336Y233574D01*
X131296Y233669D01*
X131260Y233766D01*
X131248Y233782D01*
X131240Y233800D01*
X131135Y233931D01*
X100876Y264190D01*
X99313Y265753D01*
X99313Y388297D01*
X100653Y389637D01*
X121467Y389637D01*
X121557Y389651D01*
X121648Y389659D01*
X121677Y389671D01*
X121709Y389676D01*
X121790Y389719D01*
X121874Y389755D01*
X121906Y389781D01*
X121927Y389792D01*
X121949Y389815D01*
X122005Y389860D01*
X124802Y392657D01*
X129198Y392657D01*
X132307Y389548D01*
X132307Y385152D01*
X129198Y382043D01*
X124802Y382043D01*
X122005Y384840D01*
X121931Y384893D01*
X121861Y384953D01*
X121831Y384965D01*
X121805Y384984D01*
X121718Y385011D01*
X121633Y385045D01*
X121592Y385049D01*
X121570Y385056D01*
X121538Y385055D01*
X121467Y385063D01*
X104648Y385063D01*
X104628Y385060D01*
X104609Y385062D01*
X104507Y385040D01*
X104405Y385024D01*
X104388Y385014D01*
X104368Y385010D01*
X104279Y384957D01*
X104188Y384908D01*
X104174Y384894D01*
X104157Y384884D01*
X104090Y384805D01*
X104018Y384730D01*
X104010Y384712D01*
X103997Y384697D01*
X103958Y384601D01*
X103915Y384507D01*
X103913Y384487D01*
X103905Y384469D01*
X103887Y384302D01*
X103887Y267963D01*
X103901Y267872D01*
X103909Y267782D01*
X103921Y267752D01*
X103926Y267720D01*
X103969Y267639D01*
X104005Y267555D01*
X104031Y267523D01*
X104042Y267502D01*
X104065Y267480D01*
X104110Y267424D01*
X134369Y237165D01*
X134385Y237153D01*
X134398Y237138D01*
X134485Y237082D01*
X134569Y237021D01*
X134588Y237016D01*
X134605Y237005D01*
X134705Y236979D01*
X134804Y236949D01*
X134824Y236950D01*
X134843Y236945D01*
X134946Y236953D01*
X135050Y236955D01*
X135068Y236962D01*
X135088Y236964D01*
X135183Y237004D01*
X135281Y237040D01*
X135296Y237052D01*
X135315Y237060D01*
X135446Y237165D01*
X135945Y237665D01*
X143455Y237665D01*
X148765Y232355D01*
X148765Y224845D01*
X143455Y219535D01*
X135945Y219535D01*
G37*
%LPD*%
%LPC*%
G36*
X491545Y219535D02*
X491545Y219535D01*
X486235Y224845D01*
X486235Y232355D01*
X491545Y237665D01*
X499055Y237665D01*
X499554Y237165D01*
X499571Y237153D01*
X499583Y237138D01*
X499670Y237082D01*
X499754Y237021D01*
X499773Y237016D01*
X499790Y237005D01*
X499890Y236979D01*
X499989Y236949D01*
X500009Y236950D01*
X500029Y236945D01*
X500132Y236953D01*
X500235Y236955D01*
X500254Y236962D01*
X500274Y236964D01*
X500369Y237004D01*
X500466Y237040D01*
X500482Y237052D01*
X500500Y237060D01*
X500631Y237165D01*
X511840Y248374D01*
X511893Y248448D01*
X511953Y248518D01*
X511965Y248548D01*
X511984Y248574D01*
X512011Y248661D01*
X512045Y248746D01*
X512049Y248787D01*
X512056Y248809D01*
X512055Y248841D01*
X512063Y248913D01*
X512063Y407347D01*
X515170Y410454D01*
X515213Y410514D01*
X515255Y410558D01*
X515262Y410573D01*
X515283Y410598D01*
X515295Y410628D01*
X515314Y410654D01*
X515341Y410741D01*
X515345Y410753D01*
X515358Y410781D01*
X515359Y410787D01*
X515375Y410826D01*
X515379Y410867D01*
X515386Y410889D01*
X515385Y410921D01*
X515393Y410993D01*
X515393Y414948D01*
X518502Y418057D01*
X522898Y418057D01*
X526007Y414948D01*
X526007Y410552D01*
X522898Y407443D01*
X518943Y407443D01*
X518852Y407429D01*
X518762Y407421D01*
X518732Y407409D01*
X518700Y407404D01*
X518619Y407361D01*
X518535Y407325D01*
X518503Y407299D01*
X518482Y407288D01*
X518460Y407265D01*
X518404Y407220D01*
X516860Y405676D01*
X516807Y405602D01*
X516747Y405532D01*
X516735Y405502D01*
X516716Y405476D01*
X516689Y405389D01*
X516655Y405304D01*
X516651Y405263D01*
X516644Y405241D01*
X516645Y405209D01*
X516637Y405137D01*
X516637Y246703D01*
X515074Y245140D01*
X503865Y233931D01*
X503853Y233915D01*
X503838Y233902D01*
X503782Y233815D01*
X503721Y233731D01*
X503716Y233712D01*
X503705Y233695D01*
X503679Y233595D01*
X503649Y233496D01*
X503650Y233476D01*
X503645Y233457D01*
X503653Y233354D01*
X503655Y233250D01*
X503662Y233232D01*
X503664Y233212D01*
X503704Y233117D01*
X503740Y233019D01*
X503752Y233004D01*
X503760Y232985D01*
X503865Y232854D01*
X504365Y232355D01*
X504365Y224845D01*
X499055Y219535D01*
X491545Y219535D01*
G37*
%LPD*%
%LPC*%
G36*
X99402Y636043D02*
X99402Y636043D01*
X96293Y639152D01*
X96293Y643548D01*
X99402Y646657D01*
X103357Y646657D01*
X103448Y646671D01*
X103538Y646679D01*
X103568Y646691D01*
X103600Y646696D01*
X103681Y646739D01*
X103765Y646775D01*
X103797Y646801D01*
X103818Y646812D01*
X103840Y646835D01*
X103896Y646880D01*
X126053Y669037D01*
X172397Y669037D01*
X185112Y656322D01*
X185129Y656310D01*
X185141Y656294D01*
X185208Y656251D01*
X185246Y656219D01*
X185268Y656210D01*
X185312Y656178D01*
X185331Y656172D01*
X185348Y656161D01*
X185448Y656136D01*
X185460Y656132D01*
X185474Y656127D01*
X185481Y656126D01*
X185547Y656106D01*
X185567Y656106D01*
X185586Y656101D01*
X185689Y656109D01*
X185793Y656112D01*
X185812Y656119D01*
X185832Y656120D01*
X185892Y656146D01*
X185903Y656148D01*
X185929Y656162D01*
X186024Y656196D01*
X186040Y656209D01*
X186058Y656217D01*
X186107Y656256D01*
X186121Y656263D01*
X186135Y656278D01*
X186189Y656322D01*
X186712Y656845D01*
X194288Y656845D01*
X199645Y651488D01*
X199645Y643912D01*
X194288Y638555D01*
X186712Y638555D01*
X181355Y643912D01*
X181355Y651488D01*
X181878Y652011D01*
X181890Y652027D01*
X181906Y652040D01*
X181962Y652127D01*
X182022Y652211D01*
X182028Y652230D01*
X182039Y652247D01*
X182064Y652347D01*
X182094Y652446D01*
X182094Y652466D01*
X182099Y652485D01*
X182091Y652588D01*
X182088Y652692D01*
X182081Y652711D01*
X182080Y652730D01*
X182039Y652825D01*
X182004Y652923D01*
X181991Y652938D01*
X181983Y652957D01*
X181878Y653088D01*
X170726Y664240D01*
X170652Y664293D01*
X170582Y664353D01*
X170552Y664365D01*
X170526Y664384D01*
X170439Y664411D01*
X170354Y664445D01*
X170313Y664449D01*
X170291Y664456D01*
X170259Y664455D01*
X170187Y664463D01*
X128263Y664463D01*
X128172Y664449D01*
X128082Y664441D01*
X128052Y664429D01*
X128020Y664424D01*
X127939Y664381D01*
X127855Y664345D01*
X127823Y664319D01*
X127802Y664308D01*
X127780Y664285D01*
X127724Y664240D01*
X107130Y643646D01*
X107077Y643572D01*
X107017Y643502D01*
X107005Y643472D01*
X106986Y643446D01*
X106959Y643359D01*
X106925Y643274D01*
X106921Y643233D01*
X106914Y643211D01*
X106915Y643179D01*
X106907Y643107D01*
X106907Y639152D01*
X103798Y636043D01*
X99402Y636043D01*
G37*
%LPD*%
%LPC*%
G36*
X187411Y467105D02*
X187411Y467105D01*
X184050Y468497D01*
X181477Y471070D01*
X180085Y474431D01*
X180085Y478069D01*
X181477Y481430D01*
X184050Y484003D01*
X187411Y485395D01*
X206289Y485395D01*
X209650Y484003D01*
X212223Y481430D01*
X213615Y478069D01*
X213615Y474431D01*
X212223Y471070D01*
X209650Y468497D01*
X206289Y467105D01*
X187411Y467105D01*
G37*
%LPD*%
%LPC*%
G36*
X187411Y441705D02*
X187411Y441705D01*
X184050Y443097D01*
X181477Y445670D01*
X180085Y449031D01*
X180085Y452669D01*
X181477Y456030D01*
X184050Y458603D01*
X187411Y459995D01*
X206289Y459995D01*
X209650Y458603D01*
X212223Y456030D01*
X213615Y452669D01*
X213615Y449031D01*
X212223Y445670D01*
X209650Y443097D01*
X206289Y441705D01*
X187411Y441705D01*
G37*
%LPD*%
%LPC*%
G36*
X711407Y478285D02*
X711407Y478285D01*
X708075Y479665D01*
X705525Y482215D01*
X704145Y485547D01*
X704145Y489153D01*
X705525Y492485D01*
X708075Y495035D01*
X711407Y496415D01*
X730093Y496415D01*
X733425Y495035D01*
X735975Y492485D01*
X737355Y489153D01*
X737355Y485547D01*
X735975Y482215D01*
X733425Y479665D01*
X730093Y478285D01*
X711407Y478285D01*
G37*
%LPD*%
%LPC*%
G36*
X711407Y405285D02*
X711407Y405285D01*
X708075Y406665D01*
X705525Y409215D01*
X704145Y412547D01*
X704145Y416153D01*
X705525Y419485D01*
X708075Y422035D01*
X711407Y423415D01*
X730093Y423415D01*
X733425Y422035D01*
X735975Y419485D01*
X737355Y416153D01*
X737355Y412547D01*
X735975Y409215D01*
X733425Y406665D01*
X730093Y405285D01*
X711407Y405285D01*
G37*
%LPD*%
%LPC*%
G36*
X251802Y439193D02*
X251802Y439193D01*
X248693Y442302D01*
X248693Y446698D01*
X251802Y449807D01*
X255757Y449807D01*
X255848Y449821D01*
X255938Y449829D01*
X255968Y449841D01*
X256000Y449846D01*
X256081Y449889D01*
X256165Y449925D01*
X256197Y449951D01*
X256218Y449962D01*
X256220Y449964D01*
X256241Y449985D01*
X256296Y450030D01*
X292920Y486654D01*
X292973Y486728D01*
X293033Y486798D01*
X293045Y486828D01*
X293064Y486854D01*
X293091Y486941D01*
X293125Y487026D01*
X293129Y487067D01*
X293136Y487089D01*
X293135Y487121D01*
X293143Y487192D01*
X293143Y491148D01*
X296252Y494257D01*
X300648Y494257D01*
X303757Y491148D01*
X303757Y486752D01*
X300648Y483643D01*
X296692Y483643D01*
X296602Y483629D01*
X296511Y483621D01*
X296482Y483609D01*
X296450Y483604D01*
X296369Y483561D01*
X296285Y483525D01*
X296253Y483499D01*
X296232Y483488D01*
X296210Y483465D01*
X296154Y483420D01*
X259530Y446796D01*
X259477Y446722D01*
X259417Y446652D01*
X259405Y446622D01*
X259386Y446596D01*
X259359Y446509D01*
X259325Y446424D01*
X259321Y446383D01*
X259314Y446361D01*
X259315Y446329D01*
X259307Y446257D01*
X259307Y442302D01*
X256198Y439193D01*
X251802Y439193D01*
G37*
%LPD*%
%LPC*%
G36*
X156552Y394743D02*
X156552Y394743D01*
X153443Y397852D01*
X153443Y401807D01*
X153429Y401898D01*
X153421Y401988D01*
X153409Y402018D01*
X153404Y402050D01*
X153361Y402131D01*
X153325Y402215D01*
X153299Y402247D01*
X153288Y402268D01*
X153265Y402290D01*
X153220Y402346D01*
X135646Y419920D01*
X135572Y419973D01*
X135502Y420033D01*
X135472Y420045D01*
X135446Y420064D01*
X135359Y420091D01*
X135274Y420125D01*
X135233Y420129D01*
X135211Y420136D01*
X135179Y420135D01*
X135107Y420143D01*
X131152Y420143D01*
X128043Y423252D01*
X128043Y427648D01*
X131152Y430757D01*
X135548Y430757D01*
X138657Y427648D01*
X138657Y423693D01*
X138671Y423602D01*
X138679Y423512D01*
X138691Y423482D01*
X138696Y423450D01*
X138739Y423369D01*
X138775Y423285D01*
X138801Y423253D01*
X138812Y423232D01*
X138835Y423210D01*
X138880Y423154D01*
X156454Y405580D01*
X156528Y405527D01*
X156598Y405467D01*
X156628Y405455D01*
X156654Y405436D01*
X156741Y405409D01*
X156826Y405375D01*
X156867Y405371D01*
X156889Y405364D01*
X156921Y405365D01*
X156993Y405357D01*
X160948Y405357D01*
X164057Y402248D01*
X164057Y397852D01*
X160948Y394743D01*
X156552Y394743D01*
G37*
%LPD*%
%LPC*%
G36*
X415312Y638555D02*
X415312Y638555D01*
X409955Y643912D01*
X409955Y651488D01*
X415312Y656845D01*
X422888Y656845D01*
X428245Y651488D01*
X428245Y643912D01*
X422888Y638555D01*
X415312Y638555D01*
G37*
%LPD*%
%LPC*%
G36*
X389912Y638555D02*
X389912Y638555D01*
X384555Y643912D01*
X384555Y651488D01*
X389912Y656845D01*
X397488Y656845D01*
X402845Y651488D01*
X402845Y643912D01*
X397488Y638555D01*
X389912Y638555D01*
G37*
%LPD*%
%LPC*%
G36*
X313712Y638555D02*
X313712Y638555D01*
X308355Y643912D01*
X308355Y651488D01*
X313712Y656845D01*
X321288Y656845D01*
X326645Y651488D01*
X326645Y643912D01*
X321288Y638555D01*
X313712Y638555D01*
G37*
%LPD*%
%LPC*%
G36*
X288312Y638555D02*
X288312Y638555D01*
X282955Y643912D01*
X282955Y651488D01*
X288312Y656845D01*
X295888Y656845D01*
X301245Y651488D01*
X301245Y643912D01*
X295888Y638555D01*
X288312Y638555D01*
G37*
%LPD*%
%LPC*%
G36*
X262912Y638555D02*
X262912Y638555D01*
X257555Y643912D01*
X257555Y651488D01*
X262912Y656845D01*
X270488Y656845D01*
X275845Y651488D01*
X275845Y643912D01*
X270488Y638555D01*
X262912Y638555D01*
G37*
%LPD*%
%LPC*%
G36*
X618512Y638555D02*
X618512Y638555D01*
X613155Y643912D01*
X613155Y651488D01*
X618512Y656845D01*
X626088Y656845D01*
X631445Y651488D01*
X631445Y643912D01*
X626088Y638555D01*
X618512Y638555D01*
G37*
%LPD*%
%LPC*%
G36*
X516912Y613155D02*
X516912Y613155D01*
X511555Y618512D01*
X511555Y626088D01*
X516912Y631445D01*
X524488Y631445D01*
X529845Y626088D01*
X529845Y618512D01*
X524488Y613155D01*
X516912Y613155D01*
G37*
%LPD*%
%LPC*%
G36*
X466112Y613155D02*
X466112Y613155D01*
X460755Y618512D01*
X460755Y626088D01*
X466112Y631445D01*
X473688Y631445D01*
X479045Y626088D01*
X479045Y618512D01*
X473688Y613155D01*
X466112Y613155D01*
G37*
%LPD*%
%LPC*%
G36*
X237512Y638555D02*
X237512Y638555D01*
X232155Y643912D01*
X232155Y651488D01*
X237512Y656845D01*
X245088Y656845D01*
X250445Y651488D01*
X250445Y643912D01*
X245088Y638555D01*
X237512Y638555D01*
G37*
%LPD*%
%LPC*%
G36*
X262912Y613155D02*
X262912Y613155D01*
X257555Y618512D01*
X257555Y626088D01*
X262912Y631445D01*
X270488Y631445D01*
X275845Y626088D01*
X275845Y618512D01*
X270488Y613155D01*
X262912Y613155D01*
G37*
%LPD*%
%LPC*%
G36*
X288312Y613155D02*
X288312Y613155D01*
X282955Y618512D01*
X282955Y626088D01*
X288312Y631445D01*
X295888Y631445D01*
X301245Y626088D01*
X301245Y618512D01*
X295888Y613155D01*
X288312Y613155D01*
G37*
%LPD*%
%LPC*%
G36*
X567712Y613155D02*
X567712Y613155D01*
X562355Y618512D01*
X562355Y626088D01*
X567712Y631445D01*
X575288Y631445D01*
X580645Y626088D01*
X580645Y618512D01*
X575288Y613155D01*
X567712Y613155D01*
G37*
%LPD*%
%LPC*%
G36*
X339112Y613155D02*
X339112Y613155D01*
X333755Y618512D01*
X333755Y626088D01*
X339112Y631445D01*
X346688Y631445D01*
X352045Y626088D01*
X352045Y618512D01*
X346688Y613155D01*
X339112Y613155D01*
G37*
%LPD*%
%LPC*%
G36*
X415312Y613155D02*
X415312Y613155D01*
X409955Y618512D01*
X409955Y626088D01*
X415312Y631445D01*
X422888Y631445D01*
X428245Y626088D01*
X428245Y618512D01*
X422888Y613155D01*
X415312Y613155D01*
G37*
%LPD*%
%LPC*%
G36*
X313712Y613155D02*
X313712Y613155D01*
X308355Y618512D01*
X308355Y626088D01*
X313712Y631445D01*
X321288Y631445D01*
X326645Y626088D01*
X326645Y618512D01*
X321288Y613155D01*
X313712Y613155D01*
G37*
%LPD*%
%LPC*%
G36*
X440712Y613155D02*
X440712Y613155D01*
X435355Y618512D01*
X435355Y626088D01*
X440712Y631445D01*
X448288Y631445D01*
X453645Y626088D01*
X453645Y618512D01*
X448288Y613155D01*
X440712Y613155D01*
G37*
%LPD*%
%LPC*%
G36*
X491512Y613155D02*
X491512Y613155D01*
X486155Y618512D01*
X486155Y626088D01*
X491512Y631445D01*
X499088Y631445D01*
X504445Y626088D01*
X504445Y618512D01*
X499088Y613155D01*
X491512Y613155D01*
G37*
%LPD*%
%LPC*%
G36*
X593112Y613155D02*
X593112Y613155D01*
X587755Y618512D01*
X587755Y626088D01*
X593112Y631445D01*
X600688Y631445D01*
X606045Y626088D01*
X606045Y618512D01*
X600688Y613155D01*
X593112Y613155D01*
G37*
%LPD*%
%LPC*%
G36*
X186712Y613155D02*
X186712Y613155D01*
X181355Y618512D01*
X181355Y626088D01*
X186712Y631445D01*
X194288Y631445D01*
X199645Y626088D01*
X199645Y618512D01*
X194288Y613155D01*
X186712Y613155D01*
G37*
%LPD*%
%LPC*%
G36*
X567712Y638555D02*
X567712Y638555D01*
X562355Y643912D01*
X562355Y651488D01*
X567712Y656845D01*
X575288Y656845D01*
X580645Y651488D01*
X580645Y643912D01*
X575288Y638555D01*
X567712Y638555D01*
G37*
%LPD*%
%LPC*%
G36*
X466112Y638555D02*
X466112Y638555D01*
X460755Y643912D01*
X460755Y651488D01*
X466112Y656845D01*
X473688Y656845D01*
X479045Y651488D01*
X479045Y643912D01*
X473688Y638555D01*
X466112Y638555D01*
G37*
%LPD*%
%LPC*%
G36*
X212112Y638555D02*
X212112Y638555D01*
X206755Y643912D01*
X206755Y651488D01*
X212112Y656845D01*
X219688Y656845D01*
X225045Y651488D01*
X225045Y643912D01*
X219688Y638555D01*
X212112Y638555D01*
G37*
%LPD*%
%LPC*%
G36*
X542312Y613155D02*
X542312Y613155D01*
X536955Y618512D01*
X536955Y626088D01*
X542312Y631445D01*
X549888Y631445D01*
X555245Y626088D01*
X555245Y618512D01*
X549888Y613155D01*
X542312Y613155D01*
G37*
%LPD*%
%LPC*%
G36*
X593112Y638555D02*
X593112Y638555D01*
X587755Y643912D01*
X587755Y651488D01*
X593112Y656845D01*
X600688Y656845D01*
X606045Y651488D01*
X606045Y643912D01*
X600688Y638555D01*
X593112Y638555D01*
G37*
%LPD*%
%LPC*%
G36*
X542312Y638555D02*
X542312Y638555D01*
X536955Y643912D01*
X536955Y651488D01*
X542312Y656845D01*
X549888Y656845D01*
X555245Y651488D01*
X555245Y643912D01*
X549888Y638555D01*
X542312Y638555D01*
G37*
%LPD*%
%LPC*%
G36*
X516912Y638555D02*
X516912Y638555D01*
X511555Y643912D01*
X511555Y651488D01*
X516912Y656845D01*
X524488Y656845D01*
X529845Y651488D01*
X529845Y643912D01*
X524488Y638555D01*
X516912Y638555D01*
G37*
%LPD*%
%LPC*%
G36*
X491512Y638555D02*
X491512Y638555D01*
X486155Y643912D01*
X486155Y651488D01*
X491512Y656845D01*
X499088Y656845D01*
X504445Y651488D01*
X504445Y643912D01*
X499088Y638555D01*
X491512Y638555D01*
G37*
%LPD*%
%LPC*%
G36*
X440712Y638555D02*
X440712Y638555D01*
X435355Y643912D01*
X435355Y651488D01*
X440712Y656845D01*
X448288Y656845D01*
X453645Y651488D01*
X453645Y643912D01*
X448288Y638555D01*
X440712Y638555D01*
G37*
%LPD*%
%LPC*%
G36*
X542345Y219535D02*
X542345Y219535D01*
X537035Y224845D01*
X537035Y232355D01*
X542345Y237665D01*
X549855Y237665D01*
X555165Y232355D01*
X555165Y224845D01*
X549855Y219535D01*
X542345Y219535D01*
G37*
%LPD*%
%LPC*%
G36*
X567745Y219535D02*
X567745Y219535D01*
X562435Y224845D01*
X562435Y232355D01*
X567745Y237665D01*
X575255Y237665D01*
X580565Y232355D01*
X580565Y224845D01*
X575255Y219535D01*
X567745Y219535D01*
G37*
%LPD*%
%LPC*%
G36*
X593145Y219535D02*
X593145Y219535D01*
X587835Y224845D01*
X587835Y232355D01*
X593145Y237665D01*
X600655Y237665D01*
X605965Y232355D01*
X605965Y224845D01*
X600655Y219535D01*
X593145Y219535D01*
G37*
%LPD*%
%LPC*%
G36*
X618545Y219535D02*
X618545Y219535D01*
X613235Y224845D01*
X613235Y232355D01*
X618545Y237665D01*
X626055Y237665D01*
X631365Y232355D01*
X631365Y224845D01*
X626055Y219535D01*
X618545Y219535D01*
G37*
%LPD*%
%LPC*%
G36*
X643945Y219535D02*
X643945Y219535D01*
X638635Y224845D01*
X638635Y232355D01*
X643945Y237665D01*
X651455Y237665D01*
X656765Y232355D01*
X656765Y224845D01*
X651455Y219535D01*
X643945Y219535D01*
G37*
%LPD*%
%LPC*%
G36*
X110545Y16335D02*
X110545Y16335D01*
X105235Y21645D01*
X105235Y29155D01*
X110545Y34465D01*
X118055Y34465D01*
X123365Y29155D01*
X123365Y21645D01*
X118055Y16335D01*
X110545Y16335D01*
G37*
%LPD*%
%LPC*%
G36*
X669345Y219535D02*
X669345Y219535D01*
X664035Y224845D01*
X664035Y232355D01*
X669345Y237665D01*
X676855Y237665D01*
X682165Y232355D01*
X682165Y224845D01*
X676855Y219535D01*
X669345Y219535D01*
G37*
%LPD*%
%LPC*%
G36*
X59745Y219535D02*
X59745Y219535D01*
X54435Y224845D01*
X54435Y232355D01*
X59745Y237665D01*
X67255Y237665D01*
X72565Y232355D01*
X72565Y224845D01*
X67255Y219535D01*
X59745Y219535D01*
G37*
%LPD*%
%LPC*%
G36*
X135945Y16335D02*
X135945Y16335D01*
X130635Y21645D01*
X130635Y29155D01*
X135945Y34465D01*
X143455Y34465D01*
X148765Y29155D01*
X148765Y21645D01*
X143455Y16335D01*
X135945Y16335D01*
G37*
%LPD*%
%LPC*%
G36*
X161345Y16335D02*
X161345Y16335D01*
X156035Y21645D01*
X156035Y29155D01*
X161345Y34465D01*
X168855Y34465D01*
X174165Y29155D01*
X174165Y21645D01*
X168855Y16335D01*
X161345Y16335D01*
G37*
%LPD*%
%LPC*%
G36*
X186745Y16335D02*
X186745Y16335D01*
X181435Y21645D01*
X181435Y29155D01*
X186745Y34465D01*
X194255Y34465D01*
X199565Y29155D01*
X199565Y21645D01*
X194255Y16335D01*
X186745Y16335D01*
G37*
%LPD*%
%LPC*%
G36*
X212145Y16335D02*
X212145Y16335D01*
X206835Y21645D01*
X206835Y29155D01*
X212145Y34465D01*
X219655Y34465D01*
X224965Y29155D01*
X224965Y21645D01*
X219655Y16335D01*
X212145Y16335D01*
G37*
%LPD*%
%LPC*%
G36*
X262945Y219535D02*
X262945Y219535D01*
X257635Y224845D01*
X257635Y232355D01*
X262945Y237665D01*
X270455Y237665D01*
X275765Y232355D01*
X275765Y224845D01*
X270455Y219535D01*
X262945Y219535D01*
G37*
%LPD*%
%LPC*%
G36*
X110545Y219535D02*
X110545Y219535D01*
X105235Y224845D01*
X105235Y232355D01*
X110545Y237665D01*
X118055Y237665D01*
X123365Y232355D01*
X123365Y224845D01*
X118055Y219535D01*
X110545Y219535D01*
G37*
%LPD*%
%LPC*%
G36*
X237545Y16335D02*
X237545Y16335D01*
X232235Y21645D01*
X232235Y29155D01*
X237545Y34465D01*
X245055Y34465D01*
X250365Y29155D01*
X250365Y21645D01*
X245055Y16335D01*
X237545Y16335D01*
G37*
%LPD*%
%LPC*%
G36*
X186745Y219535D02*
X186745Y219535D01*
X181435Y224845D01*
X181435Y232355D01*
X186745Y237665D01*
X194255Y237665D01*
X199565Y232355D01*
X199565Y224845D01*
X194255Y219535D01*
X186745Y219535D01*
G37*
%LPD*%
%LPC*%
G36*
X212145Y219535D02*
X212145Y219535D01*
X206835Y224845D01*
X206835Y232355D01*
X212145Y237665D01*
X219655Y237665D01*
X224965Y232355D01*
X224965Y224845D01*
X219655Y219535D01*
X212145Y219535D01*
G37*
%LPD*%
%LPC*%
G36*
X237545Y219535D02*
X237545Y219535D01*
X232235Y224845D01*
X232235Y232355D01*
X237545Y237665D01*
X245055Y237665D01*
X250365Y232355D01*
X250365Y224845D01*
X245055Y219535D01*
X237545Y219535D01*
G37*
%LPD*%
%LPC*%
G36*
X288345Y219535D02*
X288345Y219535D01*
X283035Y224845D01*
X283035Y232355D01*
X288345Y237665D01*
X295855Y237665D01*
X301165Y232355D01*
X301165Y224845D01*
X295855Y219535D01*
X288345Y219535D01*
G37*
%LPD*%
%LPC*%
G36*
X313745Y219535D02*
X313745Y219535D01*
X308435Y224845D01*
X308435Y232355D01*
X313745Y237665D01*
X321255Y237665D01*
X326565Y232355D01*
X326565Y224845D01*
X321255Y219535D01*
X313745Y219535D01*
G37*
%LPD*%
%LPC*%
G36*
X440745Y16335D02*
X440745Y16335D01*
X435435Y21645D01*
X435435Y29155D01*
X440745Y34465D01*
X448255Y34465D01*
X453565Y29155D01*
X453565Y21645D01*
X448255Y16335D01*
X440745Y16335D01*
G37*
%LPD*%
%LPC*%
G36*
X339145Y219535D02*
X339145Y219535D01*
X333835Y224845D01*
X333835Y232355D01*
X339145Y237665D01*
X346655Y237665D01*
X351965Y232355D01*
X351965Y224845D01*
X346655Y219535D01*
X339145Y219535D01*
G37*
%LPD*%
%LPC*%
G36*
X364545Y219535D02*
X364545Y219535D01*
X359235Y224845D01*
X359235Y232355D01*
X364545Y237665D01*
X372055Y237665D01*
X377365Y232355D01*
X377365Y224845D01*
X372055Y219535D01*
X364545Y219535D01*
G37*
%LPD*%
%LPC*%
G36*
X440745Y219535D02*
X440745Y219535D01*
X435435Y224845D01*
X435435Y232355D01*
X440745Y237665D01*
X448255Y237665D01*
X453565Y232355D01*
X453565Y224845D01*
X448255Y219535D01*
X440745Y219535D01*
G37*
%LPD*%
%LPC*%
G36*
X389945Y219535D02*
X389945Y219535D01*
X384635Y224845D01*
X384635Y232355D01*
X389945Y237665D01*
X397455Y237665D01*
X402765Y232355D01*
X402765Y224845D01*
X397455Y219535D01*
X389945Y219535D01*
G37*
%LPD*%
%LPC*%
G36*
X415345Y219535D02*
X415345Y219535D01*
X410035Y224845D01*
X410035Y232355D01*
X415345Y237665D01*
X422855Y237665D01*
X428165Y232355D01*
X428165Y224845D01*
X422855Y219535D01*
X415345Y219535D01*
G37*
%LPD*%
%LPC*%
G36*
X466145Y219535D02*
X466145Y219535D01*
X460835Y224845D01*
X460835Y232355D01*
X466145Y237665D01*
X473655Y237665D01*
X478965Y232355D01*
X478965Y224845D01*
X473655Y219535D01*
X466145Y219535D01*
G37*
%LPD*%
%LPC*%
G36*
X516945Y219535D02*
X516945Y219535D01*
X511635Y224845D01*
X511635Y232355D01*
X516945Y237665D01*
X524455Y237665D01*
X529765Y232355D01*
X529765Y224845D01*
X524455Y219535D01*
X516945Y219535D01*
G37*
%LPD*%
%LPC*%
G36*
X85145Y16335D02*
X85145Y16335D01*
X79835Y21645D01*
X79835Y29155D01*
X85145Y34465D01*
X92655Y34465D01*
X97965Y29155D01*
X97965Y21645D01*
X92655Y16335D01*
X85145Y16335D01*
G37*
%LPD*%
%LPC*%
G36*
X59745Y16335D02*
X59745Y16335D01*
X54435Y21645D01*
X54435Y29155D01*
X59745Y34465D01*
X67255Y34465D01*
X72565Y29155D01*
X72565Y21645D01*
X67255Y16335D01*
X59745Y16335D01*
G37*
%LPD*%
%LPC*%
G36*
X694745Y16335D02*
X694745Y16335D01*
X689435Y21645D01*
X689435Y29155D01*
X694745Y34465D01*
X702255Y34465D01*
X707565Y29155D01*
X707565Y21645D01*
X702255Y16335D01*
X694745Y16335D01*
G37*
%LPD*%
%LPC*%
G36*
X643945Y16335D02*
X643945Y16335D01*
X638635Y21645D01*
X638635Y29155D01*
X643945Y34465D01*
X651455Y34465D01*
X656765Y29155D01*
X656765Y21645D01*
X651455Y16335D01*
X643945Y16335D01*
G37*
%LPD*%
%LPC*%
G36*
X618545Y16335D02*
X618545Y16335D01*
X613235Y21645D01*
X613235Y29155D01*
X618545Y34465D01*
X626055Y34465D01*
X631365Y29155D01*
X631365Y21645D01*
X626055Y16335D01*
X618545Y16335D01*
G37*
%LPD*%
%LPC*%
G36*
X593145Y16335D02*
X593145Y16335D01*
X587835Y21645D01*
X587835Y29155D01*
X593145Y34465D01*
X600655Y34465D01*
X605965Y29155D01*
X605965Y21645D01*
X600655Y16335D01*
X593145Y16335D01*
G37*
%LPD*%
%LPC*%
G36*
X567745Y16335D02*
X567745Y16335D01*
X562435Y21645D01*
X562435Y29155D01*
X567745Y34465D01*
X575255Y34465D01*
X580565Y29155D01*
X580565Y21645D01*
X575255Y16335D01*
X567745Y16335D01*
G37*
%LPD*%
%LPC*%
G36*
X542345Y16335D02*
X542345Y16335D01*
X537035Y21645D01*
X537035Y29155D01*
X542345Y34465D01*
X549855Y34465D01*
X555165Y29155D01*
X555165Y21645D01*
X549855Y16335D01*
X542345Y16335D01*
G37*
%LPD*%
%LPC*%
G36*
X516945Y16335D02*
X516945Y16335D01*
X511635Y21645D01*
X511635Y29155D01*
X516945Y34465D01*
X524455Y34465D01*
X529765Y29155D01*
X529765Y21645D01*
X524455Y16335D01*
X516945Y16335D01*
G37*
%LPD*%
%LPC*%
G36*
X491545Y16335D02*
X491545Y16335D01*
X486235Y21645D01*
X486235Y29155D01*
X491545Y34465D01*
X499055Y34465D01*
X504365Y29155D01*
X504365Y21645D01*
X499055Y16335D01*
X491545Y16335D01*
G37*
%LPD*%
%LPC*%
G36*
X466145Y16335D02*
X466145Y16335D01*
X460835Y21645D01*
X460835Y29155D01*
X466145Y34465D01*
X473655Y34465D01*
X478965Y29155D01*
X478965Y21645D01*
X473655Y16335D01*
X466145Y16335D01*
G37*
%LPD*%
%LPC*%
G36*
X415345Y16335D02*
X415345Y16335D01*
X410035Y21645D01*
X410035Y29155D01*
X415345Y34465D01*
X422855Y34465D01*
X428165Y29155D01*
X428165Y21645D01*
X422855Y16335D01*
X415345Y16335D01*
G37*
%LPD*%
%LPC*%
G36*
X389945Y16335D02*
X389945Y16335D01*
X384635Y21645D01*
X384635Y29155D01*
X389945Y34465D01*
X397455Y34465D01*
X402765Y29155D01*
X402765Y21645D01*
X397455Y16335D01*
X389945Y16335D01*
G37*
%LPD*%
%LPC*%
G36*
X364545Y16335D02*
X364545Y16335D01*
X359235Y21645D01*
X359235Y29155D01*
X364545Y34465D01*
X372055Y34465D01*
X377365Y29155D01*
X377365Y21645D01*
X372055Y16335D01*
X364545Y16335D01*
G37*
%LPD*%
%LPC*%
G36*
X339145Y16335D02*
X339145Y16335D01*
X333835Y21645D01*
X333835Y29155D01*
X339145Y34465D01*
X346655Y34465D01*
X351965Y29155D01*
X351965Y21645D01*
X346655Y16335D01*
X339145Y16335D01*
G37*
%LPD*%
%LPC*%
G36*
X313745Y16335D02*
X313745Y16335D01*
X308435Y21645D01*
X308435Y29155D01*
X313745Y34465D01*
X321255Y34465D01*
X326565Y29155D01*
X326565Y21645D01*
X321255Y16335D01*
X313745Y16335D01*
G37*
%LPD*%
%LPC*%
G36*
X288345Y16335D02*
X288345Y16335D01*
X283035Y21645D01*
X283035Y29155D01*
X288345Y34465D01*
X295855Y34465D01*
X301165Y29155D01*
X301165Y21645D01*
X295855Y16335D01*
X288345Y16335D01*
G37*
%LPD*%
%LPC*%
G36*
X262945Y16335D02*
X262945Y16335D01*
X257635Y21645D01*
X257635Y29155D01*
X262945Y34465D01*
X270455Y34465D01*
X275765Y29155D01*
X275765Y21645D01*
X270455Y16335D01*
X262945Y16335D01*
G37*
%LPD*%
%LPC*%
G36*
X523683Y385571D02*
X523683Y385571D01*
X518921Y390333D01*
X518921Y397067D01*
X523683Y401829D01*
X530417Y401829D01*
X535179Y397067D01*
X535179Y390333D01*
X530417Y385571D01*
X523683Y385571D01*
G37*
%LPD*%
%LPC*%
G36*
X447483Y487171D02*
X447483Y487171D01*
X442721Y491933D01*
X442721Y498667D01*
X447483Y503429D01*
X454217Y503429D01*
X458979Y498667D01*
X458979Y491933D01*
X454217Y487171D01*
X447483Y487171D01*
G37*
%LPD*%
%LPC*%
G36*
X725423Y552703D02*
X725423Y552703D01*
X725423Y565661D01*
X727305Y565363D01*
X729482Y564655D01*
X731521Y563616D01*
X733373Y562271D01*
X734991Y560653D01*
X736336Y558801D01*
X737375Y556762D01*
X738083Y554585D01*
X738381Y552703D01*
X725423Y552703D01*
G37*
%LPD*%
%LPC*%
G36*
X26923Y545083D02*
X26923Y545083D01*
X26923Y558041D01*
X28805Y557743D01*
X30982Y557035D01*
X33021Y555996D01*
X34873Y554651D01*
X36491Y553033D01*
X37836Y551181D01*
X38875Y549142D01*
X39583Y546965D01*
X39881Y545083D01*
X26923Y545083D01*
G37*
%LPD*%
%LPC*%
G36*
X725423Y319023D02*
X725423Y319023D01*
X725423Y331981D01*
X727305Y331683D01*
X729482Y330975D01*
X731521Y329936D01*
X733373Y328591D01*
X734991Y326973D01*
X736336Y325121D01*
X737375Y323082D01*
X738083Y320905D01*
X738381Y319023D01*
X725423Y319023D01*
G37*
%LPD*%
%LPC*%
G36*
X598423Y-75183D02*
X598423Y-75183D01*
X611381Y-75183D01*
X611083Y-77065D01*
X610375Y-79242D01*
X609336Y-81281D01*
X607991Y-83133D01*
X606373Y-84751D01*
X604521Y-86096D01*
X602482Y-87135D01*
X600305Y-87843D01*
X598423Y-88141D01*
X598423Y-75183D01*
G37*
%LPD*%
%LPC*%
G36*
X148843Y-75183D02*
X148843Y-75183D01*
X161801Y-75183D01*
X161503Y-77065D01*
X160795Y-79242D01*
X159756Y-81281D01*
X158411Y-83133D01*
X156793Y-84751D01*
X154941Y-86096D01*
X152902Y-87135D01*
X150725Y-87843D01*
X148843Y-88141D01*
X148843Y-75183D01*
G37*
%LPD*%
%LPC*%
G36*
X26923Y542037D02*
X26923Y542037D01*
X39881Y542037D01*
X39583Y540155D01*
X38875Y537978D01*
X37836Y535939D01*
X36491Y534087D01*
X34873Y532469D01*
X33021Y531124D01*
X30982Y530085D01*
X28805Y529377D01*
X26923Y529079D01*
X26923Y542037D01*
G37*
%LPD*%
%LPC*%
G36*
X143915Y-87843D02*
X143915Y-87843D01*
X141738Y-87135D01*
X139699Y-86096D01*
X137847Y-84751D01*
X136229Y-83133D01*
X134884Y-81281D01*
X133845Y-79242D01*
X133137Y-77065D01*
X132839Y-75183D01*
X145797Y-75183D01*
X145797Y-88141D01*
X143915Y-87843D01*
G37*
%LPD*%
%LPC*%
G36*
X709419Y319023D02*
X709419Y319023D01*
X709717Y320905D01*
X710425Y323082D01*
X711464Y325121D01*
X712809Y326973D01*
X714427Y328591D01*
X716279Y329936D01*
X718318Y330975D01*
X720495Y331683D01*
X722377Y331981D01*
X722377Y319023D01*
X709419Y319023D01*
G37*
%LPD*%
%LPC*%
G36*
X725423Y315977D02*
X725423Y315977D01*
X738381Y315977D01*
X738083Y314095D01*
X737375Y311918D01*
X736336Y309879D01*
X734991Y308027D01*
X733373Y306409D01*
X731521Y305064D01*
X729482Y304025D01*
X727305Y303317D01*
X725423Y303019D01*
X725423Y315977D01*
G37*
%LPD*%
%LPC*%
G36*
X148843Y-72137D02*
X148843Y-72137D01*
X148843Y-59179D01*
X150725Y-59477D01*
X152902Y-60185D01*
X154941Y-61224D01*
X156793Y-62569D01*
X158411Y-64187D01*
X159756Y-66039D01*
X160795Y-68078D01*
X161503Y-70255D01*
X161801Y-72137D01*
X148843Y-72137D01*
G37*
%LPD*%
%LPC*%
G36*
X598423Y-72137D02*
X598423Y-72137D01*
X598423Y-59179D01*
X600305Y-59477D01*
X602482Y-60185D01*
X604521Y-61224D01*
X606373Y-62569D01*
X607991Y-64187D01*
X609336Y-66039D01*
X610375Y-68078D01*
X611083Y-70255D01*
X611381Y-72137D01*
X598423Y-72137D01*
G37*
%LPD*%
%LPC*%
G36*
X709419Y552703D02*
X709419Y552703D01*
X709717Y554585D01*
X710425Y556762D01*
X711464Y558801D01*
X712809Y560653D01*
X714427Y562271D01*
X716279Y563616D01*
X718318Y564655D01*
X720495Y565363D01*
X722377Y565661D01*
X722377Y552703D01*
X709419Y552703D01*
G37*
%LPD*%
%LPC*%
G36*
X593495Y-87843D02*
X593495Y-87843D01*
X591318Y-87135D01*
X589279Y-86096D01*
X587427Y-84751D01*
X585809Y-83133D01*
X584464Y-81281D01*
X583425Y-79242D01*
X582717Y-77065D01*
X582419Y-75183D01*
X595377Y-75183D01*
X595377Y-88141D01*
X593495Y-87843D01*
G37*
%LPD*%
%LPC*%
G36*
X725423Y549657D02*
X725423Y549657D01*
X738381Y549657D01*
X738083Y547775D01*
X737375Y545598D01*
X736336Y543559D01*
X734991Y541707D01*
X733373Y540089D01*
X731521Y538744D01*
X729482Y537705D01*
X727305Y536997D01*
X725423Y536699D01*
X725423Y549657D01*
G37*
%LPD*%
%LPC*%
G36*
X720495Y303317D02*
X720495Y303317D01*
X718318Y304025D01*
X716279Y305064D01*
X714427Y306409D01*
X712809Y308027D01*
X711464Y309879D01*
X710425Y311918D01*
X709717Y314095D01*
X709419Y315977D01*
X722377Y315977D01*
X722377Y303019D01*
X720495Y303317D01*
G37*
%LPD*%
%LPC*%
G36*
X132839Y-72137D02*
X132839Y-72137D01*
X133137Y-70255D01*
X133845Y-68078D01*
X134884Y-66039D01*
X136229Y-64187D01*
X137847Y-62569D01*
X139699Y-61224D01*
X141738Y-60185D01*
X143915Y-59477D01*
X145797Y-59179D01*
X145797Y-72137D01*
X132839Y-72137D01*
G37*
%LPD*%
%LPC*%
G36*
X582419Y-72137D02*
X582419Y-72137D01*
X582717Y-70255D01*
X583425Y-68078D01*
X584464Y-66039D01*
X585809Y-64187D01*
X587427Y-62569D01*
X589279Y-61224D01*
X591318Y-60185D01*
X593495Y-59477D01*
X595377Y-59179D01*
X595377Y-72137D01*
X582419Y-72137D01*
G37*
%LPD*%
%LPC*%
G36*
X720495Y536997D02*
X720495Y536997D01*
X718318Y537705D01*
X716279Y538744D01*
X714427Y540089D01*
X712809Y541707D01*
X711464Y543559D01*
X710425Y545598D01*
X709717Y547775D01*
X709419Y549657D01*
X722377Y549657D01*
X722377Y536699D01*
X720495Y536997D01*
G37*
%LPD*%
%LPC*%
G36*
X198373Y426973D02*
X198373Y426973D01*
X198373Y435611D01*
X205270Y435611D01*
X206849Y435361D01*
X208370Y434866D01*
X209795Y434140D01*
X211089Y433200D01*
X212220Y432069D01*
X213160Y430775D01*
X213886Y429350D01*
X214381Y427829D01*
X214516Y426973D01*
X198373Y426973D01*
G37*
%LPD*%
%LPC*%
G36*
X179184Y426973D02*
X179184Y426973D01*
X179319Y427829D01*
X179814Y429350D01*
X180540Y430775D01*
X181480Y432069D01*
X182611Y433200D01*
X183905Y434140D01*
X185330Y434866D01*
X186851Y435361D01*
X188430Y435611D01*
X195327Y435611D01*
X195327Y426973D01*
X179184Y426973D01*
G37*
%LPD*%
%LPC*%
G36*
X198373Y415289D02*
X198373Y415289D01*
X198373Y423927D01*
X214516Y423927D01*
X214381Y423071D01*
X213886Y421550D01*
X213160Y420125D01*
X212220Y418831D01*
X211089Y417700D01*
X209795Y416760D01*
X208370Y416034D01*
X206849Y415539D01*
X205270Y415289D01*
X198373Y415289D01*
G37*
%LPD*%
%LPC*%
G36*
X188430Y415289D02*
X188430Y415289D01*
X186851Y415539D01*
X185330Y416034D01*
X183905Y416760D01*
X182611Y417700D01*
X181480Y418831D01*
X180540Y420125D01*
X179814Y421550D01*
X179319Y423071D01*
X179184Y423927D01*
X195327Y423927D01*
X195327Y415289D01*
X188430Y415289D01*
G37*
%LPD*%
%LPC*%
G36*
X338073Y484123D02*
X338073Y484123D01*
X338073Y493142D01*
X340917Y493142D01*
X347092Y486967D01*
X347092Y484123D01*
X338073Y484123D01*
G37*
%LPD*%
%LPC*%
G36*
X338073Y382523D02*
X338073Y382523D01*
X338073Y391542D01*
X340917Y391542D01*
X347092Y385367D01*
X347092Y382523D01*
X338073Y382523D01*
G37*
%LPD*%
%LPC*%
G36*
X326008Y484123D02*
X326008Y484123D01*
X326008Y486967D01*
X332183Y493142D01*
X335027Y493142D01*
X335027Y484123D01*
X326008Y484123D01*
G37*
%LPD*%
%LPC*%
G36*
X338073Y370458D02*
X338073Y370458D01*
X338073Y379477D01*
X347092Y379477D01*
X347092Y376633D01*
X340917Y370458D01*
X338073Y370458D01*
G37*
%LPD*%
%LPC*%
G36*
X326008Y382523D02*
X326008Y382523D01*
X326008Y385367D01*
X332183Y391542D01*
X335027Y391542D01*
X335027Y382523D01*
X326008Y382523D01*
G37*
%LPD*%
%LPC*%
G36*
X338073Y472058D02*
X338073Y472058D01*
X338073Y481077D01*
X347092Y481077D01*
X347092Y478233D01*
X340917Y472058D01*
X338073Y472058D01*
G37*
%LPD*%
%LPC*%
G36*
X332183Y370458D02*
X332183Y370458D01*
X326008Y376633D01*
X326008Y379477D01*
X335027Y379477D01*
X335027Y370458D01*
X332183Y370458D01*
G37*
%LPD*%
%LPC*%
G36*
X332183Y472058D02*
X332183Y472058D01*
X326008Y478233D01*
X326008Y481077D01*
X335027Y481077D01*
X335027Y472058D01*
X332183Y472058D01*
G37*
%LPD*%
%LPC*%
G36*
X623823Y623823D02*
X623823Y623823D01*
X623823Y632461D01*
X626509Y632461D01*
X632461Y626509D01*
X632461Y623823D01*
X623823Y623823D01*
G37*
%LPD*%
%LPC*%
G36*
X141223Y649223D02*
X141223Y649223D01*
X141223Y657861D01*
X143909Y657861D01*
X149861Y651909D01*
X149861Y649223D01*
X141223Y649223D01*
G37*
%LPD*%
%LPC*%
G36*
X166623Y649223D02*
X166623Y649223D01*
X166623Y657861D01*
X169309Y657861D01*
X175261Y651909D01*
X175261Y649223D01*
X166623Y649223D01*
G37*
%LPD*%
%LPC*%
G36*
X612139Y623823D02*
X612139Y623823D01*
X612139Y626509D01*
X618091Y632461D01*
X620777Y632461D01*
X620777Y623823D01*
X612139Y623823D01*
G37*
%LPD*%
%LPC*%
G36*
X154939Y649223D02*
X154939Y649223D01*
X154939Y651909D01*
X160891Y657861D01*
X163577Y657861D01*
X163577Y649223D01*
X154939Y649223D01*
G37*
%LPD*%
%LPC*%
G36*
X129539Y649223D02*
X129539Y649223D01*
X129539Y651909D01*
X135491Y657861D01*
X138177Y657861D01*
X138177Y649223D01*
X129539Y649223D01*
G37*
%LPD*%
%LPC*%
G36*
X623823Y612139D02*
X623823Y612139D01*
X623823Y620777D01*
X632461Y620777D01*
X632461Y618091D01*
X626509Y612139D01*
X623823Y612139D01*
G37*
%LPD*%
%LPC*%
G36*
X141223Y637539D02*
X141223Y637539D01*
X141223Y646177D01*
X149861Y646177D01*
X149861Y643491D01*
X143909Y637539D01*
X141223Y637539D01*
G37*
%LPD*%
%LPC*%
G36*
X166623Y637539D02*
X166623Y637539D01*
X166623Y646177D01*
X175261Y646177D01*
X175261Y643491D01*
X169309Y637539D01*
X166623Y637539D01*
G37*
%LPD*%
%LPC*%
G36*
X135491Y637539D02*
X135491Y637539D01*
X129539Y643491D01*
X129539Y646177D01*
X138177Y646177D01*
X138177Y637539D01*
X135491Y637539D01*
G37*
%LPD*%
%LPC*%
G36*
X160891Y637539D02*
X160891Y637539D01*
X154939Y643491D01*
X154939Y646177D01*
X163577Y646177D01*
X163577Y637539D01*
X160891Y637539D01*
G37*
%LPD*%
%LPC*%
G36*
X618091Y612139D02*
X618091Y612139D01*
X612139Y618091D01*
X612139Y620777D01*
X620777Y620777D01*
X620777Y612139D01*
X618091Y612139D01*
G37*
%LPD*%
%LPC*%
G36*
X674623Y26923D02*
X674623Y26923D01*
X674623Y35481D01*
X677276Y35481D01*
X683181Y29576D01*
X683181Y26923D01*
X674623Y26923D01*
G37*
%LPD*%
%LPC*%
G36*
X90423Y230123D02*
X90423Y230123D01*
X90423Y238681D01*
X93076Y238681D01*
X98981Y232776D01*
X98981Y230123D01*
X90423Y230123D01*
G37*
%LPD*%
%LPC*%
G36*
X700023Y230123D02*
X700023Y230123D01*
X700023Y238681D01*
X702676Y238681D01*
X708581Y232776D01*
X708581Y230123D01*
X700023Y230123D01*
G37*
%LPD*%
%LPC*%
G36*
X78819Y230123D02*
X78819Y230123D01*
X78819Y232776D01*
X84724Y238681D01*
X87377Y238681D01*
X87377Y230123D01*
X78819Y230123D01*
G37*
%LPD*%
%LPC*%
G36*
X663019Y26923D02*
X663019Y26923D01*
X663019Y29576D01*
X668924Y35481D01*
X671577Y35481D01*
X671577Y26923D01*
X663019Y26923D01*
G37*
%LPD*%
%LPC*%
G36*
X688419Y230123D02*
X688419Y230123D01*
X688419Y232776D01*
X694324Y238681D01*
X696977Y238681D01*
X696977Y230123D01*
X688419Y230123D01*
G37*
%LPD*%
%LPC*%
G36*
X674623Y15319D02*
X674623Y15319D01*
X674623Y23877D01*
X683181Y23877D01*
X683181Y21224D01*
X677276Y15319D01*
X674623Y15319D01*
G37*
%LPD*%
%LPC*%
G36*
X90423Y218519D02*
X90423Y218519D01*
X90423Y227077D01*
X98981Y227077D01*
X98981Y224424D01*
X93076Y218519D01*
X90423Y218519D01*
G37*
%LPD*%
%LPC*%
G36*
X700023Y218519D02*
X700023Y218519D01*
X700023Y227077D01*
X708581Y227077D01*
X708581Y224424D01*
X702676Y218519D01*
X700023Y218519D01*
G37*
%LPD*%
%LPC*%
G36*
X84724Y218519D02*
X84724Y218519D01*
X78819Y224424D01*
X78819Y227077D01*
X87377Y227077D01*
X87377Y218519D01*
X84724Y218519D01*
G37*
%LPD*%
%LPC*%
G36*
X668924Y15319D02*
X668924Y15319D01*
X663019Y21224D01*
X663019Y23877D01*
X671577Y23877D01*
X671577Y15319D01*
X668924Y15319D01*
G37*
%LPD*%
%LPC*%
G36*
X694324Y218519D02*
X694324Y218519D01*
X688419Y224424D01*
X688419Y227077D01*
X696977Y227077D01*
X696977Y218519D01*
X694324Y218519D01*
G37*
%LPD*%
%LPC*%
G36*
X671773Y468373D02*
X671773Y468373D01*
X671773Y475296D01*
X672753Y475101D01*
X674315Y474454D01*
X675720Y473515D01*
X676915Y472320D01*
X677854Y470915D01*
X678501Y469353D01*
X678696Y468373D01*
X671773Y468373D01*
G37*
%LPD*%
%LPC*%
G36*
X661804Y468373D02*
X661804Y468373D01*
X661999Y469353D01*
X662646Y470915D01*
X663585Y472320D01*
X664780Y473515D01*
X666185Y474454D01*
X667747Y475101D01*
X668727Y475296D01*
X668727Y468373D01*
X661804Y468373D01*
G37*
%LPD*%
%LPC*%
G36*
X165099Y647699D02*
X165099Y647699D01*
X165099Y647701D01*
X165101Y647701D01*
X165101Y647699D01*
X165099Y647699D01*
G37*
%LPD*%
%LPC*%
G36*
X139699Y647699D02*
X139699Y647699D01*
X139699Y647701D01*
X139701Y647701D01*
X139701Y647699D01*
X139699Y647699D01*
G37*
%LPD*%
%LPC*%
G36*
X723899Y551179D02*
X723899Y551179D01*
X723899Y551181D01*
X723901Y551181D01*
X723901Y551179D01*
X723899Y551179D01*
G37*
%LPD*%
%LPC*%
G36*
X88899Y228599D02*
X88899Y228599D01*
X88899Y228601D01*
X88901Y228601D01*
X88901Y228599D01*
X88899Y228599D01*
G37*
%LPD*%
%LPC*%
G36*
X723899Y317499D02*
X723899Y317499D01*
X723899Y317501D01*
X723901Y317501D01*
X723901Y317499D01*
X723899Y317499D01*
G37*
%LPD*%
%LPC*%
G36*
X698499Y228599D02*
X698499Y228599D01*
X698499Y228601D01*
X698501Y228601D01*
X698501Y228599D01*
X698499Y228599D01*
G37*
%LPD*%
%LPC*%
G36*
X622299Y622299D02*
X622299Y622299D01*
X622299Y622301D01*
X622301Y622301D01*
X622301Y622299D01*
X622299Y622299D01*
G37*
%LPD*%
%LPC*%
G36*
X596899Y-73661D02*
X596899Y-73661D01*
X596899Y-73659D01*
X596901Y-73659D01*
X596901Y-73661D01*
X596899Y-73661D01*
G37*
%LPD*%
%LPC*%
G36*
X147319Y-73661D02*
X147319Y-73661D01*
X147319Y-73659D01*
X147321Y-73659D01*
X147321Y-73661D01*
X147319Y-73661D01*
G37*
%LPD*%
%LPC*%
G36*
X336549Y482599D02*
X336549Y482599D01*
X336549Y482601D01*
X336551Y482601D01*
X336551Y482599D01*
X336549Y482599D01*
G37*
%LPD*%
%LPC*%
G36*
X196849Y425449D02*
X196849Y425449D01*
X196849Y425451D01*
X196851Y425451D01*
X196851Y425449D01*
X196849Y425449D01*
G37*
%LPD*%
%LPC*%
G36*
X336549Y380999D02*
X336549Y380999D01*
X336549Y381001D01*
X336551Y381001D01*
X336551Y380999D01*
X336549Y380999D01*
G37*
%LPD*%
%LPC*%
G36*
X673099Y25399D02*
X673099Y25399D01*
X673099Y25401D01*
X673101Y25401D01*
X673101Y25399D01*
X673099Y25399D01*
G37*
%LPD*%
D10*
X336550Y406400D03*
X336550Y381000D03*
X336550Y508000D03*
X336550Y482600D03*
D11*
X204470Y425450D02*
X189230Y425450D01*
X189230Y450850D02*
X204470Y450850D01*
X204470Y476250D02*
X189230Y476250D01*
D12*
X622300Y622300D03*
X622300Y647700D03*
X596900Y622300D03*
X596900Y647700D03*
X571500Y622300D03*
X571500Y647700D03*
X546100Y622300D03*
X546100Y647700D03*
X520700Y622300D03*
X520700Y647700D03*
X495300Y622300D03*
X495300Y647700D03*
X469900Y622300D03*
X469900Y647700D03*
X444500Y622300D03*
X444500Y647700D03*
X419100Y622300D03*
X419100Y647700D03*
X393700Y622300D03*
X393700Y647700D03*
X368300Y622300D03*
X368300Y647700D03*
X342900Y622300D03*
X342900Y647700D03*
X317500Y622300D03*
X317500Y647700D03*
X292100Y622300D03*
X292100Y647700D03*
X266700Y622300D03*
X266700Y647700D03*
X241300Y622300D03*
X241300Y647700D03*
X215900Y622300D03*
X215900Y647700D03*
X190500Y622300D03*
X190500Y647700D03*
X165100Y622300D03*
X165100Y647700D03*
X139700Y622300D03*
X139700Y647700D03*
D13*
X63500Y25400D03*
X88900Y25400D03*
X114300Y25400D03*
X139700Y25400D03*
X165100Y25400D03*
X190500Y25400D03*
X215900Y25400D03*
X241300Y25400D03*
X266700Y25400D03*
X292100Y25400D03*
X317500Y25400D03*
X342900Y25400D03*
X368300Y25400D03*
X393700Y25400D03*
X419100Y25400D03*
X444500Y25400D03*
X469900Y25400D03*
X495300Y25400D03*
X520700Y25400D03*
X546100Y25400D03*
X571500Y25400D03*
X596900Y25400D03*
X622300Y25400D03*
X647700Y25400D03*
X673100Y25400D03*
X698500Y25400D03*
D14*
X713210Y414350D02*
X728290Y414350D01*
X728290Y487350D02*
X713210Y487350D01*
D15*
X682250Y458850D03*
X670250Y450850D03*
X670250Y434850D03*
X670250Y466850D03*
X682250Y442850D03*
D13*
X63500Y228600D03*
X88900Y228600D03*
X114300Y228600D03*
X139700Y228600D03*
X165100Y228600D03*
X190500Y228600D03*
X215900Y228600D03*
X241300Y228600D03*
X266700Y228600D03*
X292100Y228600D03*
X317500Y228600D03*
X342900Y228600D03*
X368300Y228600D03*
X393700Y228600D03*
X419100Y228600D03*
X444500Y228600D03*
X469900Y228600D03*
X495300Y228600D03*
X520700Y228600D03*
X546100Y228600D03*
X571500Y228600D03*
X596900Y228600D03*
X622300Y228600D03*
X647700Y228600D03*
X673100Y228600D03*
X698500Y228600D03*
D16*
X527050Y393700D03*
X450850Y393700D03*
X527050Y495300D03*
X450850Y495300D03*
D17*
X147320Y-73660D03*
X596900Y-73660D03*
X25400Y543560D03*
X723900Y551180D03*
X723900Y317500D03*
D18*
X419100Y425450D02*
X336550Y508000D01*
X419100Y425450D02*
X660400Y425450D01*
X666750Y431800D01*
X670250Y434850D01*
X349250Y393700D02*
X336550Y406400D01*
X349250Y393700D02*
X450850Y393700D01*
D19*
X158750Y400050D02*
X133350Y425450D01*
D20*
X158750Y400050D03*
X133350Y425450D03*
D19*
X171450Y419100D02*
X177800Y412750D01*
X171450Y419100D02*
X171450Y622300D01*
X165100Y622300D01*
D20*
X177800Y412750D03*
D19*
X381000Y596900D02*
X381000Y635000D01*
X361950Y635000D01*
X349250Y647700D01*
X342900Y647700D01*
D20*
X381000Y596900D03*
D19*
X273050Y488950D02*
X228600Y444500D01*
D20*
X228600Y444500D03*
X273050Y488950D03*
D19*
X101600Y641350D02*
X127000Y666750D01*
X171450Y666750D01*
X190500Y647700D01*
D20*
X101600Y641350D03*
D19*
X298450Y488950D02*
X254000Y444500D01*
D20*
X254000Y444500D03*
X298450Y488950D03*
D19*
X508000Y514350D02*
X527050Y495300D01*
X406400Y514350D02*
X355600Y514350D01*
X406400Y514350D02*
X508000Y514350D01*
X355600Y514350D02*
X247650Y622300D01*
X241300Y622300D01*
D20*
X406400Y514350D03*
D19*
X222250Y419100D02*
X152400Y349250D01*
X222250Y419100D02*
X222250Y622300D01*
X215900Y622300D01*
D20*
X152400Y349250D03*
D19*
X177800Y400050D02*
X146050Y431800D01*
X146050Y622300D01*
X139700Y622300D01*
D20*
X177800Y400050D03*
D19*
X495300Y228600D02*
X514350Y247650D01*
X514350Y406400D01*
X520700Y412750D01*
D20*
X520700Y412750D03*
D19*
X139700Y228600D02*
X101600Y266700D01*
X101600Y387350D01*
X127000Y387350D01*
D20*
X127000Y387350D03*
D19*
X165100Y342900D02*
X165100Y228600D01*
X165100Y342900D02*
X146050Y342900D01*
X114300Y374650D01*
D20*
X114300Y374650D03*
M02*
